<?xml version="1.0" encoding="UTF-8"?>
<svg id="Camada_2" xmlns="http://www.w3.org/2000/svg" version="1.1" viewBox="0 0 102.1 75.4">
  <!-- Generator: Adobe Illustrator 29.8.3, SVG Export Plug-In . SVG Version: 2.1.1 Build 3)  -->
  <defs>
    <style>
      .st0 {
        fill: #fff;
      }

      .st1 {
        fill: #ec671b;
      }
    </style>
  </defs>
  <path class="st0" d="M28.7,0v30h-8.1v-5h-9.9l-2,5H0L9.1,8.2c.7-1.7,1.4-3,2-4.1.7-1.1,1.4-1.9,2.2-2.5.8-.6,1.8-1,3-1.2,1.2-.2,2.6-.3,4.4-.3h8.1ZM20.6,6.9c-.9.1-1.8.7-2.6,1.6-.7.9-1.5,2.3-2.3,4.2l-2.3,5.6h7.1V6.9h0Z"/>
  <path class="st0" d="M54.3,23.2v6.8h-15.6c-1.9,0-3.2-.4-3.9-1.3-.7-.9-1.1-2.2-1.1-3.9V0h8.2v21.9c0,.5,0,.8.2,1,.2.2.5.3,1,.3h11.2,0Z"/>
  <polygon class="st0" points="75.8 0 75.8 6.8 67.3 6.8 67.3 30 59.2 30 59.2 6.8 50.8 6.8 50.8 0 75.8 0"/>
  <path class="st0" d="M101,0v30h-8.1v-5h-9.4l-2,5h-9.2l9.1-21.9c.7-1.7,1.3-3,2-4.1.7-1.1,1.4-1.9,2.2-2.5.8-.6,1.8-1,3-1.2,1.2-.2,2.6-.3,4.4-.3h8.1ZM92.9,6.9c-.9.1-1.7.7-2.3,1.6-.6.9-1.3,2.3-2.1,4.2l-2.2,5.6h6.6V6.9Z"/>
  <path class="st0" d="M60.1,34.9l-9.1,21.9c-.7,1.7-1.3,3-2,4.1-.6,1.1-1.4,1.9-2.2,2.5-.8.6-1.8,1-3,1.2-1.1.2-2.6.3-4.3.3h-8.1v-30h8.1v22.6c1-.1,1.8-.5,2.5-1.3.8-.8,1.5-2.1,2.3-4l7-17.4h8.7,0Z"/>
  <rect class="st0" x="62.6" y="34.9" width="8.2" height="30"/>
  <path class="st0" d="M102.1,34.9v30h-8.1v-5h-9.4l-2,5h-9.2l9.1-21.8c.7-1.7,1.3-3,2-4.1.7-1.1,1.4-1.9,2.2-2.5.8-.6,1.8-1,3-1.2,1.2-.2,2.6-.3,4.4-.3h8.1ZM94,41.8c-.9.1-1.7.7-2.3,1.6-.6.9-1.3,2.3-2.1,4.2l-2.2,5.6h6.6v-11.4h0Z"/>
  <path class="st1" d="M102,67.5H31c5.6.3,20.1.2,33.6,1.1,13.5.9,18.2.7,23.3,6.3.6-4.3,9.7-6.7,14.1-7.4"/>
</svg>