<svg version="1.1" id="Capa_1" xmlns="http://www.w3.org/2000/svg" xmlns:xlink="http://www.w3.org/1999/xlink" x="0px" y="0px" viewBox="0 0 512 512" style="enable-background:new 0 0 512 512;" xml:space="preserve">
<g>
	<g>
		<rect x="31.887" y="30.135" style="fill:#FFFFFF;" width="448.226" height="326.382"/>
		<path style="fill:#FD6050;" d="M103.02,252.334c0,0,58.679,28.405,58.679,104.183h-82.15V252.334H103.02z"/>
		<path style="fill:#FD6050;" d="M173.822,77.119l7.508-46.983H79.549v222.199h23.472&#10;&#9;&#9;&#9;C160.244,191.703,173.822,77.119,173.822,77.119z"/>
		<path style="fill:#BC3C85;" d="M79.549,42.508l11.792,13.468c16.966,23.141,40.872,42.404,69.268,55.792&#10;&#9;&#9;&#9;c2.092,0.987,4.212,1.929,6.346,2.848c5.061-22.275,6.867-37.498,6.867-37.498l7.508-46.983H79.549V42.508z"/>
		<path style="fill:#FD6050;" d="M408.98,252.334c0,0-58.679,28.405-58.679,104.183h82.15V252.334H408.98z"/>
		<path style="fill:#FD6050;" d="M338.178,77.119l-7.508-46.983h101.781v222.199H408.98&#10;&#9;&#9;&#9;C351.756,191.703,338.178,77.119,338.178,77.119z"/>
		<path style="fill:#BC3C85;" d="M432.451,44.444V30.135H330.67l7.509,46.983c0,0,1.807,15.222,6.867,37.496&#10;&#9;&#9;&#9;c2.125-0.915,4.236-1.854,6.319-2.836c27.931-13.165,51.519-32.014,68.434-54.646L432.451,44.444z"/>
		<g>
			<g>
				<rect x="10" y="356.517" style="fill:#D2DCFD;" width="492" height="85.534"/>
				<rect x="31.887" y="30.135" style="fill:#93B2F4;" width="47.662" height="326.382"/>
				<rect x="432.451" y="30.135" style="fill:#93B2F4;" width="47.662" height="326.382"/>
				<g>
					<path style="fill:#FDCB50;" d="M133,481.865H10v-39.814c0-21.785,17.66-39.445,39.445-39.445h44.11&#10;&#9;&#9;&#9;&#9;&#9;&#9;c21.785,0,39.445,17.66,39.445,39.445V481.865z"/>
					<path style="fill:#FD8F01;" d="M256,481.865H133v-39.814c0-21.785,17.66-39.445,39.445-39.445h44.11&#10;&#9;&#9;&#9;&#9;&#9;&#9;c21.785,0,39.445,17.66,39.445,39.445V481.865z"/>
					<path style="fill:#FDCB50;" d="M379,481.865H256v-39.814c0-21.785,17.66-39.445,39.445-39.445h44.11&#10;&#9;&#9;&#9;&#9;&#9;&#9;c21.785,0,39.445,17.66,39.445,39.445V481.865z"/>
					<path style="fill:#FD8F01;" d="M502,481.865H379v-39.814c0-21.785,17.66-39.445,39.445-39.445h44.11&#10;&#9;&#9;&#9;&#9;&#9;&#9;c21.785,0,39.445,17.66,39.445,39.445V481.865z"/>
				</g>
			</g>
			<g>
				<path style="fill:#FDCB50;" d="M287.779,293.93L256,311.742l-31.779-17.812c-19.067-10.687-30.874-30.84-30.874-52.698v-87.939&#10;&#9;&#9;&#9;&#9;&#9;l0,0c40.944,11.736,84.361,11.736,125.305,0l0,0v87.939C318.652,263.09,306.846,283.243,287.779,293.93z"/>
			</g>
		</g>
		<path style="fill:#FD6050;" d="M389.314,31.053c-26.17,36.727-76.067,61.541-133.317,61.541&#10;&#9;&#9;&#9;c-57.265,0-107.172-24.827-133.337-61.569l-0.779-0.89h268.349L389.314,31.053z"/>
	</g>
	<g>
		<g>
			<g>
				<g>
					<path style="fill:none;stroke:#052A75;stroke-width:20;stroke-linecap:round;stroke-linejoin:round;stroke-miterlimit:10;" d="&#10;&#9;&#9;&#9;&#9;&#9;&#9;M173.822,77.119c0,0-13.578,114.585-70.802,175.216c0,0,57.333,27.754,58.656,101.579"/>
					
						<line style="fill:none;stroke:#052A75;stroke-width:20;stroke-linecap:round;stroke-linejoin:round;stroke-miterlimit:10;" x1="103.02" y1="251.51" x2="83.307" y2="251.51"/>
				</g>
			</g>
			<g>
				<g>
					<path style="fill:none;stroke:#052A75;stroke-width:20;stroke-linecap:round;stroke-linejoin:round;stroke-miterlimit:10;" d="&#10;&#9;&#9;&#9;&#9;&#9;&#9;M338.178,77.119c0,0,13.578,114.585,70.802,175.216c0,0-57.333,27.754-58.656,101.579"/>
					
						<line style="fill:none;stroke:#052A75;stroke-width:20;stroke-linecap:round;stroke-linejoin:round;stroke-miterlimit:10;" x1="408.98" y1="251.51" x2="428.693" y2="251.51"/>
				</g>
			</g>
			<path style="fill:none;stroke:#052A75;stroke-width:20;stroke-linecap:round;stroke-linejoin:round;stroke-miterlimit:10;" d="&#10;&#9;&#9;&#9;&#9;M389.314,31.053c-26.17,36.727-76.067,61.541-133.317,61.541c-57.265,0-107.172-24.827-133.337-61.569"/>
		</g>
		<g>
			<g>
				
					<polyline style="fill:none;stroke:#052A75;stroke-width:20;stroke-linecap:round;stroke-linejoin:round;stroke-miterlimit:10;" points="&#10;&#9;&#9;&#9;&#9;&#9;10,442.051 10,356.517 502,356.517 502,442.051 &#9;&#9;&#9;&#9;"/>
				
					<line style="fill:none;stroke:#052A75;stroke-width:20;stroke-linecap:round;stroke-linejoin:round;stroke-miterlimit:10;" x1="79.549" y1="32.571" x2="79.549" y2="353.914"/>
				
					<line style="fill:none;stroke:#052A75;stroke-width:20;stroke-linecap:round;stroke-linejoin:round;stroke-miterlimit:10;" x1="31.887" y1="353.914" x2="31.887" y2="32.571"/>
				
					<line style="fill:none;stroke:#052A75;stroke-width:20;stroke-linecap:round;stroke-linejoin:round;stroke-miterlimit:10;" x1="480.113" y1="32.571" x2="480.113" y2="353.914"/>
				
					<line style="fill:none;stroke:#052A75;stroke-width:20;stroke-linecap:round;stroke-linejoin:round;stroke-miterlimit:10;" x1="432.451" y1="353.914" x2="432.451" y2="32.571"/>
				
					<line style="fill:none;stroke:#052A75;stroke-width:20;stroke-linecap:round;stroke-linejoin:round;stroke-miterlimit:10;" x1="10" y1="30.135" x2="502" y2="30.135"/>
				<g>
					<path style="fill:none;stroke:#052A75;stroke-width:20;stroke-linecap:round;stroke-linejoin:round;stroke-miterlimit:10;" d="&#10;&#9;&#9;&#9;&#9;&#9;&#9;M133,481.865H10v-39.814c0-21.785,17.66-39.445,39.445-39.445h44.11c21.785,0,39.445,17.66,39.445,39.445"/>
					<path style="fill:none;stroke:#052A75;stroke-width:20;stroke-linecap:round;stroke-linejoin:round;stroke-miterlimit:10;" d="&#10;&#9;&#9;&#9;&#9;&#9;&#9;M256,481.865H133v-39.814c0-21.785,17.66-39.445,39.445-39.445h44.11c21.785,0,39.445,17.66,39.445,39.445V481.865z"/>
					
						<line style="fill:none;stroke:#052A75;stroke-width:20;stroke-linecap:round;stroke-linejoin:round;stroke-miterlimit:10;" x1="379" y1="481.865" x2="256" y2="481.865"/>
					<path style="fill:none;stroke:#052A75;stroke-width:20;stroke-linecap:round;stroke-linejoin:round;stroke-miterlimit:10;" d="&#10;&#9;&#9;&#9;&#9;&#9;&#9;M256,442.051c0-21.785,17.66-39.445,39.445-39.445h44.11c21.785,0,39.445,17.66,39.445,39.445"/>
					<path style="fill:none;stroke:#052A75;stroke-width:20;stroke-linecap:round;stroke-linejoin:round;stroke-miterlimit:10;" d="&#10;&#9;&#9;&#9;&#9;&#9;&#9;M502,481.865H379v-39.814c0-21.785,17.66-39.445,39.445-39.445h44.11c21.785,0,39.445,17.66,39.445,39.445V481.865z"/>
				</g>
			</g>
			<g>
				<path style="fill:none;stroke:#052A75;stroke-width:20;stroke-linecap:round;stroke-linejoin:round;stroke-miterlimit:10;" d="&#10;&#9;&#9;&#9;&#9;&#9;M287.779,293.93L256,311.742l-31.779-17.812c-19.067-10.687-30.874-30.84-30.874-52.698v-87.939l0,0&#10;&#9;&#9;&#9;&#9;&#9;c40.944,11.736,84.361,11.736,125.305,0l0,0v87.939C318.652,263.09,306.846,283.243,287.779,293.93z"/>
				<path style="fill:none;stroke:#FD8F01;stroke-width:20;stroke-linecap:round;stroke-linejoin:round;stroke-miterlimit:10;" d="&#10;&#9;&#9;&#9;&#9;&#9;M237.132,251.51L237.132,251.51c11.198,8.333,26.537,8.333,37.735,0l0,0"/>
			</g>
		</g>
	</g>
</g>
<g>
</g>
<g>
</g>
<g>
</g>
<g>
</g>
<g>
</g>
<g>
</g>
<g>
</g>
<g>
</g>
<g>
</g>
<g>
</g>
<g>
</g>
<g>
</g>
<g>
</g>
<g>
</g>
<g>
</g>
</svg>