<?xml version="1.0" encoding="UTF-8"?>
<svg id="Layer_5" xmlns="http://www.w3.org/2000/svg" version="1.1" viewBox="0 0 512 512">
  <!-- Generator: Adobe Illustrator 29.8.3, SVG Export Plug-In . SVG Version: 2.1.1 Build 3)  -->
  <defs>
    <style>
      .st0 {
        fill: #f60;
      }
    </style>
  </defs>
  <path class="st0" d="M344,424h-48v-43.6l71.1-44.4-71.1-44.4v-51.6h48v-64h-48v-56h64V8h-144v112h64v56h-48v24h-72v16h72v24h48v51.6l-71.1,44.4,71.1,44.4v43.6h-48c-13.2,0-24,10.8-24,24v32c0,13.2,10.8,24,24,24h112c13.2,0,24-10.8,24-24v-32c0-13.2-10.8-24-24-24ZM232,24h112v80h-112V24ZM248,192h80v32h-80v-32ZM288,305.4l48.9,30.6-48.9,30.6-48.9-30.6,48.9-30.6ZM352,480c0,4.4-3.6,8-8,8h-112c-4.4,0-8-3.6-8-8v-32c0-4.4,3.6-8,8-8h112c4.4,0,8,3.6,8,8v32Z"/>
  <path class="st0" d="M146.3,437.7l18.3,18.3h-70.2c-2.4-6.8-7.8-12.1-14.5-14.5v-169.5h-16v169.5c-9.3,3.3-16,12.1-16,22.5s10.8,24,24,24,19.2-6.7,22.5-16h70.2l-18.3,18.3,11.3,11.3,37.7-37.7-37.7-37.7-11.3,11.3ZM72,472c-4.4,0-8-3.6-8-8s3.6-8,8-8,8,3.6,8,8-3.6,8-8,8Z"/>
  <path class="st0" d="M488,313.5V86.5c9.3-3.3,16-12.1,16-22.5s-10.8-24-24-24-19.2,6.7-22.5,16h-81.5v16h81.5c2.4,6.8,7.8,12.1,14.5,14.5v227c-6.8,2.4-12.1,7.8-14.5,14.5h-54.2l18.3-18.3-11.3-11.3-37.7,37.6,37.7,37.7,11.3-11.3-18.3-18.3h54.2c3.3,9.3,12.1,16,22.5,16s24-10.8,24-24-6.7-19.2-16-22.5ZM480,56c4.4,0,8,3.6,8,8s-3.6,8-8,8-8-3.6-8-8,3.6-8,8-8ZM480,344c-4.4,0-8-3.6-8-8s3.6-8,8-8,8,3.6,8,8-3.6,8-8,8Z"/>
  <path class="st0" d="M141.8,208l-69.8-49.8L2.2,208l69.8,49.8,69.8-49.8ZM72,177.8l42.2,30.2-42.2,30.2-42.2-30.2,42.2-30.2Z"/>
  <path class="st0" d="M248,40h80v16h-80v-16Z"/>
  <path class="st0" d="M248,72h48v16h-48v-16Z"/>
  <path class="st0" d="M312,72h16v16h-16v-16Z"/>
  <path class="st0" d="M448,456h16v16h-16v-16Z"/>
  <path class="st0" d="M416,456h16v16h-16v-16Z"/>
  <path class="st0" d="M384,456h16v16h-16v-16Z"/>
  <path class="st0" d="M152,72h16v16h-16v-16Z"/>
  <path class="st0" d="M184,72h16v16h-16v-16Z"/>
  <path class="st0" d="M120,72h16v16h-16v-16Z"/>
</svg>