<svg style="fill: #ff6600;" id="Layer_1" enable-background="new 0 0 512 512" viewBox="0 0 512 512" xmlns="http://www.w3.org/2000/svg"><path d="m346.16 339.063c0 3.709-3.018 6.727-6.727 6.727s-6.727-3.018-6.727-6.727 3.018-6.727 6.727-6.727 6.727 3.018 6.727 6.727zm-223.743-190.875c-15.152 0-27.479 12.327-27.479 27.479s12.327 27.479 27.479 27.479 27.479-12.327 27.479-27.479-12.326-27.479-27.479-27.479zm-68.656 0c-15.152 0-27.479 12.327-27.479 27.479s12.327 27.479 27.479 27.479 27.479-12.327 27.479-27.479-12.326-27.479-27.479-27.479zm0 74.646c-15.152 0-27.479 12.328-27.479 27.48s12.327 27.479 27.479 27.479 27.479-12.327 27.479-27.479-12.326-27.48-27.479-27.48zm0 74.647c-15.152 0-27.479 12.327-27.479 27.479s12.327 27.479 27.479 27.479 27.479-12.327 27.479-27.479-12.326-27.479-27.479-27.479zm68.656-74.647c-15.152 0-27.479 12.328-27.479 27.48s12.327 27.479 27.479 27.479 27.479-12.327 27.479-27.479-12.326-27.48-27.479-27.48zm48.522 170.082c0 4.143-3.358 7.5-7.5 7.5h-140.329c-12.192 0-22.111-9.919-22.111-22.111v-323.799c0-12.192 9.919-22.111 22.111-22.111h25.416v-8.396c0-12.478 10.151-22.629 22.628-22.629 12.478 0 22.629 10.151 22.629 22.629v8.396h34.689v-8.396c0-12.478 10.151-22.629 22.629-22.629 12.477 0 22.628 10.151 22.628 22.629v8.396h34.69v-8.396c0-12.478 10.151-22.629 22.628-22.629s22.628 10.151 22.628 22.629v8.396h34.69v-8.396c0-12.478 10.151-22.629 22.628-22.629 12.478 0 22.628 10.151 22.628 22.629v8.396h25.416c12.192 0 22.111 9.919 22.111 22.111v102.761c0 4.143-3.358 7.5-7.5 7.5s-7.5-3.357-7.5-7.5v-42.056h-350.149v263.094c0 3.921 3.19 7.111 7.111 7.111h140.329c4.142 0 7.5 3.357 7.5 7.5zm-154.94-292.705h350.148v-45.705c0-3.921-3.19-7.111-7.111-7.111h-25.416v8.397c0 12.478-10.151 22.629-22.628 22.629s-22.628-10.151-22.628-22.629v-8.397h-34.69v8.397c0 12.478-10.151 22.629-22.628 22.629-12.478 0-22.628-10.151-22.628-22.629v-8.397h-34.69v8.397c0 12.478-10.151 22.629-22.628 22.629-12.478 0-22.629-10.151-22.629-22.629v-8.397h-34.689v8.397c0 12.478-10.151 22.629-22.629 22.629-12.477 0-22.628-10.151-22.628-22.629v-8.397h-25.415c-3.921 0-7.111 3.19-7.111 7.111zm106.418 197.27c-15.152 0-27.479 12.327-27.479 27.479s12.327 27.479 27.479 27.479 27.479-12.327 27.479-27.479-12.326-27.479-27.479-27.479zm129.534 161.047c-37.938-27.832-60.588-72.491-60.588-119.465 0-15.465 2.345-30.543 6.969-45.014l2.229 5.431c1.19 2.9 3.989 4.654 6.941 4.654.948 0 1.913-.182 2.845-.563 3.832-1.573 5.663-5.954 4.09-9.786l-9.351-22.78c-1.573-3.832-5.956-5.662-9.786-4.091l-22.781 9.351c-3.832 1.573-5.664 5.954-4.091 9.786 1.573 3.831 5.952 5.66 9.787 4.091l6.484-2.662c-5.531 16.553-8.338 33.839-8.338 51.583 0 26.04 6.292 51.945 18.195 74.914 11.514 22.218 28.292 41.806 48.521 56.646 1.337.98 2.891 1.453 4.431 1.453 2.307 0 4.584-1.062 6.053-3.064 2.452-3.34 1.73-8.034-1.61-10.484zm-33.399-282.861c0-15.152-12.327-27.479-27.479-27.479s-27.479 12.327-27.479 27.479 12.327 27.479 27.479 27.479 27.479-12.327 27.479-27.479zm250.833 249.275c-3.34-2.451-8.033-1.729-10.484 1.61-27.829 37.934-72.49 60.581-119.467 60.581-15.47 0-30.548-2.345-45.015-6.969l5.432-2.23c3.832-1.573 5.663-5.954 4.09-9.786s-5.954-5.662-9.787-4.091l-22.781 9.351c-3.832 1.573-5.663 5.954-4.09 9.786l9.351 22.781c1.19 2.9 3.989 4.654 6.941 4.654.948 0 1.913-.182 2.845-.563 3.832-1.573 5.664-5.954 4.091-9.786l-2.66-6.48c16.549 5.529 33.833 8.333 51.582 8.333 26.04 0 51.945-6.291 74.915-18.191 22.22-11.514 41.808-28.29 56.647-48.517 2.451-3.339 1.729-8.032-1.61-10.483zm41.052-32.866c-1.572-3.833-5.953-5.664-9.786-4.091l-6.479 2.66c5.529-16.548 8.333-33.833 8.333-51.582 0-26.04-6.291-51.945-18.192-74.915-11.513-22.22-28.29-41.808-48.516-56.646-3.34-2.451-8.033-1.729-10.484 1.61-2.45 3.34-1.729 8.033 1.611 10.483 37.934 27.83 60.582 72.491 60.582 119.468 0 15.47-2.345 30.548-6.969 45.016l-2.23-5.433c-1.573-3.832-5.956-5.662-9.786-4.091-3.832 1.573-5.664 5.954-4.091 9.786l9.351 22.781c.755 1.841 2.211 3.305 4.046 4.072.925.387 1.908.58 2.892.58.968 0 1.936-.188 2.848-.562l22.781-9.352c3.831-1.571 5.662-5.953 4.089-9.784zm-119.422-207.753c-16.55-5.528-33.835-8.331-51.581-8.331-26.04 0-51.945 6.292-74.914 18.195-22.218 11.514-41.806 28.292-56.645 48.521-2.45 3.34-1.729 8.034 1.611 10.483 1.337.981 2.891 1.454 4.431 1.454 2.307 0 4.584-1.062 6.053-3.064 27.832-37.938 72.491-60.589 119.464-60.589 15.469 0 30.548 2.345 45.018 6.968l-5.436 2.231c-3.832 1.573-5.664 5.954-4.091 9.786 1.19 2.9 3.989 4.654 6.941 4.654.948 0 1.913-.182 2.845-.563l22.781-9.351c1.84-.756 3.305-2.211 4.072-4.046.767-1.836.773-3.9.019-5.74l-9.351-22.781c-1.573-3.832-5.954-5.663-9.787-4.091-3.832 1.573-5.663 5.954-4.09 9.786zm-51.581 33.489c66.857 0 121.25 54.393 121.25 121.251 0 66.857-54.393 121.25-121.25 121.25-66.858 0-121.25-54.393-121.25-121.25-.001-66.858 54.392-121.251 121.25-121.251zm0 15c-58.587 0-106.25 47.664-106.25 106.251s47.664 106.25 106.25 106.25 106.25-47.663 106.25-106.25-47.664-106.251-106.25-106.251zm0 9.747c53.213 0 96.504 43.292 96.504 96.505s-43.292 96.505-96.504 96.505-96.504-43.292-96.504-96.505 43.291-96.505 96.504-96.505zm21.726 96.504c0-9.345-5.931-17.331-14.227-20.391v-38.362c0-4.143-3.358-7.5-7.5-7.5s-7.5 3.357-7.5 7.5v38.363c-8.295 3.061-14.227 11.046-14.227 20.391 0 3.252.723 6.337 2.01 9.11l-24.379 24.379c-2.929 2.929-2.929 7.678 0 10.606 1.465 1.465 3.384 2.197 5.304 2.197s3.839-.732 5.303-2.196l24.38-24.38c2.773 1.286 5.858 2.01 9.11 2.01 11.979 0 21.726-9.746 21.726-21.727z"/></svg>