<?xml version="1.0" encoding="UTF-8"?>
<svg id="Upload_Line_Style" xmlns="http://www.w3.org/2000/svg" version="1.1" viewBox="0 0 512 512">
  <!-- Generator: Adobe Illustrator 29.8.3, SVG Export Plug-In . SVG Version: 2.1.1 Build 3)  -->
  <defs>
    <style>
      .st0 {
        fill: #f60;
      }
    </style>
  </defs>
  <path class="st0" d="M437.3,362.6c-17,0-33.5,6-46.6,16.8l-66.4-66.4c11.6-13.9,18.7-31,20.3-49h63.7c4.4,23.6,27.1,39.1,50.7,34.7s39.1-27.1,34.7-50.7-27.1-39.1-50.7-34.7c-17.6,3.3-31.4,17.1-34.7,34.7h-63.7c-1.6-18-8.7-35.1-20.3-49l59.3-59.3c13.9,11.6,31.4,17.9,49.5,18,43.6,0,78.9-35.3,78.9-78.9C512,35.3,476.7,0,433.1,0s-78.9,35.3-78.9,78.9c0,18.1,6.4,35.6,18,49.5l-59.3,59.3c-13.9-11.6-31-18.7-49-20.3v-63.7c23.6-4.4,39.1-27.1,34.7-50.7-4.4-23.6-27.1-39.1-50.7-34.7-23.6,4.4-39.1,27.1-34.7,50.7,3.3,17.6,17.1,31.4,34.7,34.7v63.7c-18.1,1.6-35.2,8.7-49.1,20.4l-37.2-37c25.4-27.2,23.9-69.9-3.3-95.3-27.2-25.4-69.9-23.9-95.3,3.3-25.4,27.2-23.9,69.9,3.3,95.3,22.7,21.2,57,24.1,83,7.1l38.2,38c-11.5,13.8-18.6,30.9-20.2,48.8h-63.7c-4.4-23.6-27.1-39.1-50.7-34.7-23.6,4.4-39.1,27.1-34.7,50.7s27.1,39.1,50.7,34.7c17.6-3.3,31.4-17.1,34.7-34.7h63.7c1.6,18,8.7,35.1,20.3,49l-20.9,20.9c-42.6-36.4-106.7-31.3-143.1,11.3-36.4,42.6-31.3,106.7,11.3,143.1,42.6,36.4,106.7,31.3,143.1-11.3,32.4-38,32.4-93.8,0-131.8l20.9-20.9c13.9,11.6,31,18.7,49,20.3v45.9c-23.6,4.4-39.1,27.1-34.7,50.7,4.4,23.6,27.1,39.1,50.7,34.7,23.6-4.4,39.1-27.1,34.7-50.7-3.3-17.6-17.1-31.4-34.7-34.7v-45.9c18-1.6,35.1-8.7,49-20.3l66.4,66.4c-10.8,13.1-16.7,29.6-16.8,46.6,0,41.3,33.4,74.7,74.7,74.7,41.3,0,74.7-33.4,74.7-74.7s-33.4-74.7-74.7-74.7h0,0ZM210,231.9c-2.3,16-2.3,32.2,0,48.2-16.8-6.3-27-15.4-27-24.1s10.2-17.8,27-24.1ZM256,183c8.7,0,17.8,10.3,24.1,27-16-2.3-32.2-2.3-48.2,0,6.3-16.8,15.4-27,24.1-27ZM320.7,223c-7.1-4-14.7-7-22.6-9.2-2.2-7.9-5.2-15.4-9.2-22.6,13.7,7,24.8,18.1,31.8,31.8ZM302,280.1c2.3-16,2.3-32.2,0-48.2,16.8,6.3,27,15.4,27,24.1s-10.2,17.8-27,24.1h0ZM256,224.3c9.7,0,19.4.9,29,2.8,3.7,19.1,3.7,38.8,0,57.9-19.1,3.7-38.8,3.7-57.9,0-3.7-19.1-3.7-38.8,0-57.9,9.5-1.9,19.2-2.8,29-2.8ZM213.8,298.2c2.2,7.9,5.2,15.4,9.2,22.6-13.7-7-24.8-18.1-31.8-31.8,7.1,3.9,14.7,7,22.6,9.2ZM231.9,302c16,2.3,32.2,2.3,48.2,0-6.3,16.8-15.4,27-24.1,27s-17.8-10.3-24.1-27h0ZM298.2,298.2c7.9-2.2,15.4-5.2,22.6-9.2-7,13.7-18.1,24.8-31.8,31.8,3.9-7.1,7-14.7,9.2-22.6ZM450.9,228.6c15.1,0,27.4,12.3,27.4,27.4,0,15.1-12.3,27.4-27.4,27.4-15.1,0-27.4-12.3-27.4-27.4,0-15.1,12.3-27.4,27.4-27.4ZM400.7,132.4v-2.9c0-17.9,14.4-32.6,32.3-32.7,17.9,0,32.6,14.4,32.7,32.3,0,.1,0,.2,0,.4v2.9c-19.9,12.4-45.1,12.4-65,0ZM418.4,66.2c0-8.2,6.6-14.8,14.8-14.8,8.2,0,14.8,6.6,14.8,14.8s-6.6,14.8-14.8,14.8h0c-8.2,0-14.8-6.6-14.8-14.8ZM433.1,16c34.7,0,62.8,28.2,62.9,62.9,0,15-5.5,29.5-15.4,40.7-3-14.1-12.1-26-24.8-32.7,11.5-12.5,10.7-32-1.8-43.5-12.5-11.5-32-10.7-43.5,1.8-10.8,11.8-10.8,29.9,0,41.6-12.7,6.7-21.8,18.7-24.8,32.7-9.9-11.3-15.3-25.8-15.4-40.7,0-34.7,28.2-62.8,62.9-62.9ZM228.6,61.1c0-15.1,12.3-27.4,27.4-27.4,15.1,0,27.4,12.3,27.4,27.4,0,15.1-12.3,27.4-27.4,27.4-15.1,0-27.4-12.3-27.4-27.4ZM223,191.3c-4,7.1-7,14.7-9.2,22.6-7.9,2.2-15.4,5.2-22.6,9.2,7-13.7,18.1-24.8,31.8-31.8h0ZM60.8,104.4c0-28.6,23.2-51.8,51.8-51.8s51.8,23.2,51.8,51.8c0,11.6-4,22.8-11.2,31.8-2.9-10.7-9.9-19.9-19.5-25.4,4-4.8,6.2-10.8,6.2-17.1,0-15-12.2-27.2-27.2-27.2s-27.2,12.2-27.2,27.2c0,6.2,2.2,12.3,6.2,17.1-9.6,5.6-16.6,14.7-19.5,25.4-7.2-9-11.2-20.2-11.2-31.8ZM101.3,93.7c0-6.2,5-11.2,11.2-11.2,6.2,0,11.2,5,11.2,11.2,0,6.2-5,11.2-11.2,11.2-6.2,0-11.2-5-11.2-11.2ZM86.4,148.8v-1.7c0-14.4,11.7-26.2,26.2-26.2s26.2,11.7,26.2,26.2v1.7c-16.1,9.8-36.3,9.8-52.3,0ZM61.1,283.4c-15.1,0-27.4-12.3-27.4-27.4,0-15.1,12.3-27.4,27.4-27.4,15.1,0,27.4,12.3,27.4,27.4,0,15.1-12.3,27.4-27.4,27.4ZM56,482.7v-5.3c.1-25,20.5-45.2,45.5-45.1,24.8.1,44.9,20.2,45.1,45.1v5.3c-27.6,17.7-63,17.7-90.5,0ZM79.3,394.1c0-12.1,9.8-22,22-22s22,9.8,22,22-9.8,22-22,22h0c-12.1,0-21.9-9.8-22-22h0ZM161.8,470.6c-2.3-21.2-15.6-39.7-34.9-48.7,15.4-14.2,16.5-38.2,2.3-53.6-14.2-15.4-38.2-16.5-53.6-2.3-15.4,14.2-16.5,38.2-2.3,53.6.7.8,1.5,1.6,2.3,2.3-19.3,9-32.6,27.5-34.9,48.7-33.1-33.5-32.8-87.4.6-120.5,33.5-33.1,87.4-32.8,120.5.6,32.9,33.2,32.9,86.7,0,119.9h0ZM283.4,433.1c0,15.1-12.3,27.4-27.4,27.4s-27.4-12.3-27.4-27.4c0-15.1,12.3-27.4,27.4-27.4,15.1,0,27.4,12.3,27.4,27.4h0ZM407.2,487.4v-2.5c0-16.6,13.7-30,30.3-29.9,16.5,0,29.8,13.4,29.9,29.9v2.5c-18.4,11.4-41.8,11.4-60.2,0h0ZM423.9,425.4c0-7.4,6-13.4,13.4-13.4,7.4,0,13.4,6,13.4,13.4,0,7.4-6,13.4-13.4,13.4-7.4,0-13.4-6-13.4-13.4h0ZM482.2,474.7c-3-12.8-11.3-23.7-22.8-30,10.8-12.2,9.6-30.8-2.5-41.6-12.2-10.8-30.8-9.6-41.6,2.5-9.9,11.1-9.9,27.9,0,39-11.5,6.3-19.8,17.2-22.8,30-8.9-10.4-13.8-23.7-13.8-37.4-.4-32.4,25.6-59,58-59.4,32.4-.4,59,25.6,59.4,58,0,.5,0,1,0,1.5,0,13.7-5,26.9-13.8,37.4h0Z"/>
</svg>