<?xml version="1.0"?>
<svg style="fill: #ff6600;" xmlns="http://www.w3.org/2000/svg" id="Layer_1" data-name="Layer 1" viewBox="0 0 512 512"><path d="M4.691,213.73l23.5,40.7a8,8,0,0,0,9.724,3.5L68.268,246.61a123.125,123.125,0,0,0,46.562,26.912l5.369,31.914a8,8,0,0,0,7.889,6.672h47a8,8,0,0,0,7.89-6.672l5.368-31.907a123.163,123.163,0,0,0,46.57-26.916l30.347,11.315a8,8,0,0,0,9.723-3.5l23.5-40.7a8,8,0,0,0-1.834-10.168l-24.958-20.611a123.811,123.811,0,0,0,0-53.795l24.956-20.609a8,8,0,0,0,1.834-10.169l-23.5-40.7a8,8,0,0,0-9.723-3.5L234.908,65.5a123.16,123.16,0,0,0-46.562-26.912L182.977,6.673A8,8,0,0,0,175.087,0h-47A8,8,0,0,0,120.2,6.673L114.83,38.586A123.149,123.149,0,0,0,68.268,65.5L37.914,54.18a8,8,0,0,0-9.724,3.5l-23.5,40.7a8,8,0,0,0,1.834,10.169l24.956,20.609a123.857,123.857,0,0,0,0,53.8L6.525,203.562A8,8,0,0,0,4.691,213.73Zm40.85-21.638a8,8,0,0,0,2.632-8.24,107.735,107.735,0,0,1,0-55.6,8,8,0,0,0-2.632-8.24l-23.61-19.5L38.664,71.536,67.385,82.245A8,8,0,0,0,75.84,80.4a107.077,107.077,0,0,1,48.1-27.8,8,8,0,0,0,5.83-6.4L134.855,16h33.466L173.4,46.2a8,8,0,0,0,5.829,6.4,107.07,107.07,0,0,1,48.1,27.8,8,8,0,0,0,8.455,1.843l28.722-10.709,16.733,28.983-23.61,19.5a8,8,0,0,0-2.633,8.24,107.7,107.7,0,0,1,0,55.6,8,8,0,0,0,2.633,8.24l23.612,19.5-16.733,28.983L235.8,229.866a8,8,0,0,0-8.455,1.842,107.056,107.056,0,0,1-48.112,27.806,8,8,0,0,0-5.83,6.4l-5.079,30.191H134.855l-5.081-30.2a8,8,0,0,0-5.829-6.4,107.069,107.069,0,0,1-48.1-27.8,8,8,0,0,0-8.455-1.842L38.664,240.573,21.931,211.59ZM151.588,222.27a66.216,66.216,0,1,0-66.215-66.216A66.291,66.291,0,0,0,151.588,222.27Zm0-116.431a50.216,50.216,0,1,1-50.215,50.215A50.271,50.271,0,0,1,151.588,105.839ZM405.662,400.062l26-7.534a8,8,0,0,0,5.72-8.605l-4.641-40.044a8,8,0,0,0-7.537-7.068l-27.055-1.39a106.745,106.745,0,0,0-26.974-36.343l6.473-26.277a8,8,0,0,0-4.592-9.257l-37-16a8,8,0,0,0-9.889,2.992l-14.716,22.712a106.748,106.748,0,0,0-44.956,5.233l-19.54-18.764a8,8,0,0,0-10.312-.652l-32.36,24.042a8,8,0,0,0-2.353,10.061l12.313,24.1a107.367,107.367,0,0,0-17.972,41.552l-26,7.534a8,8,0,0,0-5.72,8.605l4.641,40.045a8,8,0,0,0,7.537,7.068l27.054,1.39a106.764,106.764,0,0,0,26.974,36.343l-6.472,26.276a8,8,0,0,0,4.592,9.257l37,16a8,8,0,0,0,9.89-2.993l14.712-22.706a106.791,106.791,0,0,0,44.964-5.233l19.536,18.759a8,8,0,0,0,10.312.651l32.359-24.042A8,8,0,0,0,400,465.719l-12.314-24.105a107.331,107.331,0,0,0,17.973-41.552ZM390.717,392.6a91.209,91.209,0,0,1-18.7,43.226,8,8,0,0,0-.854,8.608l11.51,22.534-21.5,15.97L342.915,465.4a8,8,0,0,0-8.492-1.665,90.724,90.724,0,0,1-46.757,5.441,8,8,0,0,0-7.892,3.562l-13.756,21.231-24.579-10.631,6.051-24.569a8,8,0,0,0-2.808-8.19,90.713,90.713,0,0,1-28.051-37.793,8,8,0,0,0-7.029-5.047l-25.3-1.3-3.083-26.6,24.3-7.043a8,8,0,0,0,5.687-6.518,91.26,91.26,0,0,1,18.7-43.225,8,8,0,0,0,.855-8.609l-11.51-22.532,21.5-15.971,18.269,17.544a8,8,0,0,0,8.492,1.666,90.7,90.7,0,0,1,46.75-5.441,8,8,0,0,0,7.891-3.563l13.759-21.235,24.58,10.631-6.052,24.568a8,8,0,0,0,2.808,8.191A90.7,90.7,0,0,1,385.3,346.1a8,8,0,0,0,7.029,5.047l25.3,1.3,3.083,26.6-24.3,7.043A8,8,0,0,0,390.717,392.6ZM323.962,326.27a57.933,57.933,0,1,0,30.863,31.835A58,58,0,0,0,323.962,326.27Zm15.49,69.818a41.932,41.932,0,1,1,.5-32.09A41.992,41.992,0,0,1,339.452,396.088Zm-27.8-272.03-19.979,5.79a8,8,0,0,0-5.72,8.6l3.73,32.18a8,8,0,0,0,7.536,7.069l20.792,1.068A87.375,87.375,0,0,0,338.97,207L334,227.2a8,8,0,0,0,4.591,9.257l29.735,12.86a8,8,0,0,0,9.889-2.993l11.306-17.449a87.384,87.384,0,0,0,34.931-4.066l15.013,14.417a8,8,0,0,0,10.312.651l26-19.32a8,8,0,0,0,2.353-10.061l-9.463-18.526a87.814,87.814,0,0,0,13.962-32.278l19.978-5.79a8,8,0,0,0,5.721-8.6l-3.73-32.18a8,8,0,0,0-7.536-7.069l-20.792-1.067a87.39,87.39,0,0,0-20.956-28.234l4.975-20.193a8,8,0,0,0-4.592-9.257l-29.734-12.86a8,8,0,0,0-9.89,2.993L404.765,54.879a87.432,87.432,0,0,0-34.924,4.066L354.823,44.524a8,8,0,0,0-10.312-.65l-26,19.319a8,8,0,0,0-2.353,10.061l9.463,18.524a87.882,87.882,0,0,0-13.961,32.28Zm14.914,7.466a71.754,71.754,0,0,1,14.7-33.99,8,8,0,0,0,.854-8.609L333.48,72l15.142-11.249L362.346,73.93a8,8,0,0,0,8.491,1.666A71.325,71.325,0,0,1,407.6,71.317a7.987,7.987,0,0,0,7.892-3.562l10.335-15.95,17.313,7.488-4.546,18.453a8,8,0,0,0,2.808,8.191,71.311,71.311,0,0,1,22.056,29.716,8,8,0,0,0,7.029,5.047l19,.976,2.172,18.738L473.4,145.7a8,8,0,0,0-5.688,6.518,71.707,71.707,0,0,1-14.7,33.989,8,8,0,0,0-.854,8.608l8.646,16.925-15.142,11.25-13.72-13.175a8,8,0,0,0-8.492-1.665,71.318,71.318,0,0,1-36.763,4.279A8,8,0,0,0,378.794,216l-10.331,15.946-17.314-7.488L355.7,206a8,8,0,0,0-2.808-8.191,71.309,71.309,0,0,1-22.055-29.716,8,8,0,0,0-7.03-5.047l-19-.976-2.172-18.738,18.253-5.29A8,8,0,0,0,326.57,131.524Zm51.467,54.522A48.127,48.127,0,1,0,352.4,159.6,47.869,47.869,0,0,0,378.037,186.046ZM367.655,129.12A32.127,32.127,0,0,1,409.9,112.386h0a32.128,32.128,0,1,1-42.241,16.735Z"/></svg>
