<svg style="fill: #ff6600;" id="Layer_1" enable-background="new 0 0 66 66" height="512" viewBox="0 0 66 66" width="512" xmlns="http://www.w3.org/2000/svg"><g><path d="m63.41 18.18c-.01-.49-.05-.98-.1-1.46-.06-.55-.54-.94-1.11-.88-.55.06-.94.56-.88 1.11.05.43.08.86.09 1.3.01.33.01.67 0 1h-3.53c.03-.2.05-.41.05-.62 0-2.02-1.64-3.66-3.66-3.66s-3.66 1.64-3.66 3.66c0 .21.02.42.05.62h-4.86v-5.92c0-.38-.22-.73-.57-.9s-.76-.12-1.06.12c-.29.23-.65.36-1.03.36-.91 0-1.66-.74-1.66-1.66s.74-1.66 1.66-1.66c.38 0 .73.12 1.03.36s.71.28 1.06.12c.34-.17.56-.52.56-.9v-6.94c6.76.4 12.64 4.92 14.78 11.43.17.52.74.81 1.26.64s.81-.74.64-1.26c-2.45-7.56-9.44-12.72-17.34-12.84-.08 0-.15 0-.31 0-.55 0-1 .45-1 1v6.44c-.21-.04-.43-.06-.65-.06-2.02 0-3.66 1.64-3.66 3.66s1.64 3.66 3.66 3.66c.22 0 .43-.02.65-.06v5.41c0 .55.45 1 1 1h7.36c.38 0 .73-.22.9-.56s.13-.75-.1-1.05c-.23-.29-.34-.64-.34-1.01 0-.91.74-1.66 1.66-1.66s1.66.74 1.66 1.66c0 .37-.12.72-.34 1.01-.23.3-.27.71-.1 1.05s.52.56.9.56h5.98c.52 0 .95-.4 1-.92.02-.72.04-1.44.01-2.15z"/><path d="m19.36 7.45-7.26 7.26-2.44-2.44c-.39-.39-1.02-.39-1.41 0s-.39 1.02 0 1.41l3.14 3.14c.2.2.45.29.71.29s.51-.1.71-.29l7.97-7.97c.39-.39.39-1.02 0-1.41s-1.03-.38-1.42.01z"/><path d="m52.57 27.26h-4.47c.03-.2.05-.41.05-.62 0-2.02-1.64-3.66-3.66-3.66s-3.66 1.64-3.66 3.66c0 .21.02.42.05.62h-4.86v-5.92c0-.38-.22-.73-.57-.9s-.76-.12-1.06.12c-.29.23-.65.36-1.03.36-.91 0-1.66-.74-1.66-1.66s.74-1.66 1.66-1.66c.38 0 .73.12 1.03.36s.71.29 1.06.12.57-.52.57-.9v-7.96c0-.55-.45-1-1-1-3.06 0-6.04.76-8.72 2.19-.84-5.77-5.8-10.21-11.79-10.21-6.58 0-11.93 5.36-11.93 11.94s5.36 11.94 11.94 11.94c.74 0 1.47-.08 2.17-.21-.16.99-.26 1.98-.26 2.94 0 4.54 1.65 8.91 4.66 12.31.2.22.47.34.75.34.24 0 .47-.08.66-.25.41-.37.45-1 .09-1.41-2.68-3.03-4.15-6.93-4.15-10.98 0-1.16.14-2.36.41-3.56 4.3-1.68 7.38-5.78 7.59-10.62 2.31-1.41 4.91-2.23 7.6-2.39v5.41c-.21-.04-.43-.06-.65-.06-2.02 0-3.66 1.64-3.66 3.66s1.64 3.66 3.66 3.66c.22 0 .44-.02.65-.06v5.41c0 .55.45 1 1 1h7.36c.38 0 .73-.22.9-.56s.13-.75-.1-1.05c-.23-.29-.34-.64-.34-1.01 0-.91.74-1.66 1.66-1.66s1.66.74 1.66 1.66c0 .37-.12.72-.35 1.01-.23.3-.27.71-.1 1.05s.52.56.9.56h4.86c-.57 3.91-2.51 7.45-5.52 10.07-1.59 1.39-2.85 3.06-3.74 4.96-.75 1.62-1.19 3.31-1.31 5.06h-11.75c-.22-3.13-1.48-6.15-3.6-8.58-.36-.42-1-.46-1.41-.1-.42.36-.46.99-.1 1.41 1.8 2.07 2.88 4.61 3.1 7.26h-.48c-.55 0-1 .45-1 1v10.75c0 .55.45 1 1 1h2.73c.96 2.2 3.15 3.69 5.6 3.69s4.64-1.49 5.6-3.69h2.73c.55 0 1-.45 1-1v-10.75c0-.55-.45-1-1-1h-.42c.12-1.46.48-2.87 1.1-4.22.77-1.64 1.85-3.09 3.24-4.29 3.68-3.21 5.93-7.64 6.32-12.5.02-.28-.07-.55-.26-.76s-.47-.32-.75-.32zm-38.06-5.18c-5.48 0-9.94-4.46-9.94-9.94s4.46-9.94 9.94-9.94 9.94 4.46 9.94 9.94-4.46 9.94-9.94 9.94zm27.34 29.27h.47v3.38h-14.65v-3.38h.53zm-6.85 12.45c-1.33 0-2.56-.66-3.32-1.69h6.64c-.76 1.03-1.99 1.69-3.32 1.69zm4.91-3.69h-9.83-2.41v-3.38h14.65v3.38z"/></g></svg>