<svg style="fill: #ff6600;" id="Layer_1" enable-background="new 0 0 512 512" viewBox="0 0 512 512" xmlns="http://www.w3.org/2000/svg"><path d="m284.165 334.459h-16.655c-2.929-11.499-7.462-22.436-13.534-32.651l11.783-11.782c3.124-3.124 3.124-8.189 0-11.313l-32.468-32.47c-1.5-1.501-3.535-2.344-5.657-2.344s-4.156.843-5.656 2.343l-11.784 11.783c-10.22-6.073-21.157-10.606-32.652-13.534v-16.654c0-4.418-3.582-8-8-8h-45.918c-4.418 0-8 3.582-8 8v16.654c-11.499 2.929-22.437 7.462-32.652 13.534l-11.782-11.783c-3.123-3.121-8.188-3.123-11.313 0l-32.473 32.468c-1.5 1.501-2.343 3.535-2.343 5.657s.843 4.156 2.343 5.657l11.783 11.783c-6.072 10.219-10.606 21.156-13.535 32.651h-16.652c-4.418 0-8 3.582-8 8v45.918c0 4.418 3.582 8 8 8h16.652c2.93 11.499 7.464 22.438 13.535 32.653l-11.782 11.781c-3.124 3.125-3.124 8.189 0 11.313l32.469 32.471c1.501 1.5 3.535 2.343 5.657 2.343s4.156-.843 5.657-2.343l11.782-11.783c10.22 6.074 21.157 10.607 32.652 13.535v16.654c0 4.418 3.582 8 8 8h45.918c4.418 0 8-3.582 8-8v-16.652c11.5-2.93 22.438-7.464 32.653-13.535l11.781 11.782c3.126 3.124 8.19 3.122 11.314 0l32.469-32.469c3.124-3.124 3.124-8.189 0-11.313l-11.783-11.783c6.074-10.22 10.607-21.157 13.535-32.652h16.654c4.418 0 8-3.582 8-8v-45.918c.002-4.419-3.58-8.001-7.998-8.001zm-8 45.918h-15.04c-3.815 0-7.1 2.694-7.846 6.437-2.78 13.95-8.207 27.044-16.13 38.916-2.117 3.173-1.7 7.399.997 10.097l10.642 10.643-21.155 21.155-10.641-10.642c-2.698-2.697-6.925-3.114-10.099-.997-11.864 7.92-24.958 13.347-38.917 16.131-3.741.746-6.436 4.03-6.436 7.846v15.037h-29.918v-15.038c0-3.815-2.694-7.1-6.437-7.846-13.95-2.78-27.044-8.207-38.917-16.13-3.173-2.118-7.399-1.7-10.098.997l-10.641 10.642-21.155-21.156 10.642-10.641c2.697-2.698 3.114-6.926.996-10.099-7.919-11.863-13.346-24.957-16.13-38.917-.746-3.741-4.03-6.436-7.846-6.436h-15.036v-29.918h15.038c3.815 0 7.1-2.694 7.846-6.436 2.781-13.952 8.209-27.045 16.131-38.917 2.117-3.173 1.7-7.399-.997-10.098l-10.643-10.642 21.156-21.155 10.642 10.643c2.698 2.696 6.924 3.113 10.099.997 11.865-7.92 24.958-13.347 38.916-16.13 3.741-.746 6.436-4.03 6.436-7.846v-15.04h29.918v15.04c0 3.815 2.694 7.1 6.437 7.846 13.95 2.78 27.044 8.208 38.916 16.13 3.174 2.119 7.399 1.699 10.097-.997l10.644-10.643 21.154 21.156-10.643 10.642c-2.697 2.698-3.114 6.926-.996 10.099 7.919 11.864 13.346 24.957 16.129 38.915.746 3.741 4.03 6.436 7.846 6.436h15.041v29.919zm-129.582-94.263c-43.729 0-79.305 35.575-79.305 79.304s35.576 79.304 79.305 79.304 79.304-35.575 79.304-79.304-35.575-79.304-79.304-79.304zm0 142.608c-34.906 0-63.305-28.397-63.305-63.304s28.398-63.304 63.305-63.304 63.304 28.397 63.304 63.304-28.398 63.304-63.304 63.304zm15.076-73.138c2.21 3.826.898 8.719-2.928 10.928l-1.479.854v1.707c0 4.418-3.582 8-8 8-2.039 0-3.893-.769-5.306-2.024l-17.772 10.261c-1.26.728-2.636 1.073-3.992 1.073-2.766 0-5.454-1.435-6.936-4.001-2.21-3.826-.898-8.719 2.928-10.928l23.078-13.324v-39.755c0-4.418 3.582-8 8-8s8 3.582 8 8v33.625c1.795.596 3.388 1.819 4.407 3.584zm341.341 24.963h-10.104c-1.987-7.206-4.846-14.101-8.543-20.608l7.15-7.149c3.124-3.125 3.124-8.189 0-11.313l-23.147-23.148c-1.501-1.501-3.535-2.344-5.657-2.344s-4.156.843-5.657 2.343l-7.15 7.15c-6.51-3.698-13.404-6.556-20.607-8.542v-10.105c0-4.418-3.582-8-8-8h-32.736c-4.418 0-8 3.582-8 8v10.105c-7.205 1.987-14.101 4.846-20.607 8.543l-7.149-7.15c-3.124-3.122-8.189-3.124-11.313 0l-23.148 23.147c-1.501 1.501-2.344 3.535-2.344 5.657s.843 4.156 2.343 5.657l7.15 7.149c-3.697 6.51-6.556 13.404-8.542 20.608h-10.109c-4.418 0-8 3.582-8 8v32.735c0 4.418 3.582 8 8 8h10.105c1.987 7.206 4.846 14.101 8.543 20.607l-7.151 7.15c-3.124 3.125-3.124 8.189 0 11.313l23.147 23.148c1.501 1.501 3.535 2.344 5.657 2.344s4.156-.843 5.657-2.343l7.15-7.151c6.51 3.697 13.403 6.556 20.607 8.542v10.108c0 4.418 3.582 8 8 8h32.736c4.418 0 8-3.582 8-8v-10.106c7.205-1.987 14.1-4.845 20.607-8.542l7.15 7.151c1.501 1.5 3.535 2.343 5.657 2.343s4.156-.843 5.657-2.344l23.147-23.148c3.124-3.124 3.124-8.188 0-11.313l-7.15-7.149c3.698-6.51 6.556-13.405 8.542-20.608h10.109c4.418 0 8-3.582 8-8v-32.735c0-4.42-3.582-8.002-8-8.002zm-8 32.735h-8.425c-3.815 0-7.1 2.694-7.846 6.437-1.923 9.648-5.677 18.705-11.157 26.919-2.117 3.173-1.7 7.399.997 10.098l5.963 5.962-11.834 11.835-5.963-5.964c-2.698-2.696-6.924-3.114-10.099-.997-8.208 5.479-17.265 9.232-26.918 11.157-3.741.746-6.436 4.03-6.436 7.846v8.425h-16.736v-8.426c0-3.815-2.694-7.1-6.436-7.846-9.65-1.924-18.707-5.678-26.919-11.157-3.174-2.118-7.398-1.699-10.098.997l-5.963 5.964-11.834-11.835 5.964-5.963c2.697-2.698 3.114-6.925.997-10.099-5.479-8.207-9.232-17.264-11.158-26.919-.747-3.741-4.031-6.435-7.846-6.435h-8.425v-16.735h8.425c3.815 0 7.1-2.694 7.846-6.436 1.924-9.651 5.678-18.708 11.157-26.92 2.117-3.173 1.7-7.4-.997-10.098l-5.963-5.962 11.835-11.834 5.962 5.963c2.698 2.696 6.924 3.115 10.099.996 8.207-5.479 17.264-9.232 26.918-11.157 3.741-.746 6.436-4.03 6.436-7.846v-8.425h16.736v8.425c0 3.815 2.694 7.1 6.437 7.846 9.647 1.923 18.704 5.677 26.92 11.158 3.172 2.117 7.397 1.699 10.097-.998l5.962-5.963 11.834 11.835-5.963 5.962c-2.697 2.698-3.114 6.925-.997 10.099 5.479 8.207 9.232 17.265 11.158 26.92.747 3.741 4.031 6.435 7.846 6.435h8.424zm-90.084-67.373c-32.535 0-59.005 26.47-59.005 59.005s26.47 59.004 59.005 59.004 59.004-26.469 59.004-59.004-26.469-59.005-59.004-59.005zm0 102.009c-23.713 0-43.005-19.291-43.005-43.004s19.292-43.005 43.005-43.005 43.004 19.292 43.004 43.005-19.291 43.004-43.004 43.004zm-42.058-272.387h.009 12.782v86.974c0 8.492 6.908 15.4 15.4 15.4h27.73c8.492 0 15.4-6.908 15.4-15.4v-86.973l12.781-.001h.006c5.248 0 9.949-2.934 12.27-7.656 2.303-4.688 1.738-10.182-1.473-14.336l-42.049-54.419c-2.606-3.371-6.543-5.305-10.801-5.304-4.257 0-8.192 1.934-10.797 5.305l-42.05 54.416c-3.213 4.155-3.777 9.649-1.474 14.338 2.321 4.724 7.022 7.656 12.266 7.656zm42.057-64.218 37.26 48.218-15.994.001c-4.419 0-8 3.582-8 8v94.373h-26.531v-94.374c0-4.418-3.582-8-8-8h-15.994zm-83.978 53.555c0-2.122-.843-4.156-2.343-5.657l-7.151-7.15c3.698-6.508 6.556-13.402 8.543-20.607h10.104c4.418 0 8-3.582 8-8v-32.737c0-4.418-3.582-8-8-8h-10.104c-1.987-7.205-4.845-14.101-8.542-20.608l7.149-7.15c3.124-3.124 3.124-8.189 0-11.313l-23.147-23.147c-3.125-3.123-8.189-3.123-11.314 0l-7.149 7.15c-6.51-3.698-13.405-6.557-20.608-8.542v-10.107c0-4.418-3.582-8-8-8h-32.735c-4.418 0-8 3.582-8 8v10.105c-7.206 1.987-14.101 4.845-20.608 8.542l-7.149-7.15c-3.124-3.122-8.188-3.123-11.314 0l-23.147 23.147c-3.124 3.124-3.124 8.189 0 11.313l7.15 7.151c-3.698 6.51-6.556 13.404-8.542 20.607h-10.11c-4.418 0-8 3.582-8 8v32.736c0 4.418 3.582 8 8 8h10.106c1.987 7.206 4.846 14.101 8.542 20.607l-7.15 7.149c-3.124 3.124-3.124 8.189 0 11.313l23.146 23.148c1.5 1.501 3.535 2.344 5.657 2.344 2.121 0 4.156-.843 5.656-2.343l7.152-7.151c6.508 3.698 13.402 6.556 20.607 8.543v10.106c0 4.418 3.582 8 8 8h32.735c4.418 0 8-3.582 8-8v-10.106c7.206-1.987 14.101-4.846 20.607-8.542l7.151 7.15c3.123 3.123 8.189 3.123 11.312 0l23.148-23.147c1.505-1.498 2.348-3.532 2.348-5.654zm-15.117-42.979c-1.924 9.652-5.679 18.708-11.158 26.918-2.117 3.174-1.7 7.4.997 10.099l5.964 5.963-11.835 11.834-5.964-5.963c-2.696-2.696-6.923-3.114-10.098-.997-8.206 5.478-17.263 9.231-26.919 11.157-3.741.747-6.435 4.031-6.435 7.846v8.426h-16.735v-8.426c0-3.815-2.694-7.1-6.436-7.846-9.652-1.924-18.708-5.679-26.918-11.158-3.174-2.116-7.4-1.7-10.098.997l-5.965 5.964-11.833-11.835 5.963-5.962c2.697-2.698 3.114-6.925.997-10.099-5.478-8.206-9.231-17.263-11.157-26.919-.747-3.741-4.031-6.435-7.846-6.435h-8.426v-16.736h8.426c3.815 0 7.1-2.694 7.846-6.437 1.923-9.647 5.677-18.704 11.157-26.918 2.117-3.173 1.7-7.399-.997-10.097l-5.963-5.964 11.834-11.834 5.962 5.963c2.698 2.696 6.925 3.114 10.099.997 8.208-5.479 17.265-9.232 26.919-11.157 3.741-.746 6.436-4.03 6.436-7.846v-8.424h16.735v8.425c0 3.815 2.694 7.1 6.437 7.846 9.648 1.923 18.705 5.677 26.919 11.157 3.174 2.119 7.399 1.7 10.098-.997l5.962-5.963 11.834 11.834-5.962 5.963c-2.697 2.697-3.114 6.924-.997 10.097 5.479 8.21 9.232 17.267 11.157 26.92.746 3.741 4.03 6.436 7.846 6.436h8.424v16.736h-8.424c-3.815-.001-7.1 2.693-7.846 6.435zm-73.814-73.809c-32.535 0-59.004 26.469-59.004 59.004s26.469 59.005 59.004 59.005 59.004-26.47 59.004-59.005-26.469-59.004-59.004-59.004zm0 102.009c-23.713 0-43.004-19.292-43.004-43.005s19.291-43.004 43.004-43.004 43.004 19.291 43.004 43.004-19.291 43.005-43.004 43.005zm-217.335-67.373h.006 12.781v86.973c0 8.492 6.909 15.4 15.401 15.4h27.729c8.492 0 15.401-6.908 15.401-15.4v-86.973h12.78.006c5.248 0 9.949-2.934 12.27-7.655 2.303-4.688 1.739-10.182-1.472-14.338l-42.05-54.419c-2.605-3.37-6.541-5.304-10.798-5.304s-8.193 1.934-10.8 5.306l-42.051 54.416c-3.211 4.155-3.775 9.648-1.473 14.337 2.322 4.723 7.024 7.657 12.27 7.657zm42.054-64.219 37.261 48.219h-15.996c-4.418 0-8 3.582-8 8v94.373h-26.532v-94.373c0-4.418-3.582-8-8-8h-15.995z"/></svg>