<svg style="fill: #ff6600;" clip-rule="evenodd" fill-rule="evenodd" stroke-linejoin="round" stroke-miterlimit="2" viewBox="0 0 48 48" xmlns="http://www.w3.org/2000/svg"><path id="path802" d="m24 3c-.239 0-.48.086-.67.258l-10 9c-.308.277-.412.713-.264 1.099.149.387.52.643.934.643h4v12c0 .552.448 1 1 1s1-.448 1-1v-13c0-.552-.448-1-1-1h-2.395l7.395-6.654 7.395 6.654h-2.395c-.552 0-1 .448-1 1v4c0 .552.448 1 1 1s1-.448 1-1v-3h4c.414 0 .785-.256.934-.643.148-.386.044-.822-.264-1.099l-10-9c-.19-.172-.431-.258-.67-.258zm11 16c-3.196 0-6.024.719-7.781 1.783-1.456.883-2.219 2.04-2.219 3.217.001 5.472 0 11.107 0 16.031 0 1.173.764 2.326 2.221 3.206 1.756 1.059 4.585 1.773 7.779 1.773s6.023-.714 7.779-1.773c1.457-.88 2.221-2.033 2.221-3.206-.001-5.338 0-10.674 0-16.011-.376-1.546-1.191-2.594-2.219-3.237-1.757-1.064-4.585-1.783-7.781-1.783zm0 2c2.765 0 5.224.573 6.744 1.494.731.444 1.256.915 1.256 1.506s-.525 1.064-1.256 1.508c-1.52.92-3.979 1.492-6.744 1.492s-5.224-.572-6.744-1.492c-.731-.444-1.256-.917-1.256-1.508s.525-1.062 1.256-1.506c1.52-.921 3.979-1.494 6.744-1.494zm-22 6c-3.196 0-6.024.719-7.781 1.783-1.456.883-2.219 2.04-2.219 3.217.002 2.737 0 5.557 0 8.022 0 1.172.764 2.325 2.221 3.205 1.756 1.059 4.585 1.773 7.779 1.773s6.023-.714 7.779-1.773c1.457-.88 2.221-2.033 2.221-3.206-.002-2.671 0-5.331 0-8.001-.376-1.546-1.191-2.594-2.219-3.237-1.757-1.064-4.585-1.783-7.781-1.783zm14 .078c.072.047.143.093.219.139 1.757 1.064 4.585 1.783 7.781 1.783s6.024-.719 7.781-1.783c.076-.046.147-.092.219-.139v.902c0 .586-.526 1.054-1.254 1.495-1.52.916-3.98 1.486-6.746 1.486s-5.226-.57-6.746-1.486c-.728-.441-1.254-.909-1.254-1.495zm-14 1.922c2.765 0 5.224.573 6.744 1.494.731.444 1.256.915 1.256 1.506s-.525 1.064-1.256 1.508c-1.52.92-3.979 1.492-6.744 1.492s-5.224-.572-6.744-1.492c-.731-.444-1.256-.917-1.256-1.508s.525-1.062 1.256-1.506c1.52-.921 3.979-1.494 6.744-1.494zm14 2.047c.072.047.145.095.221.141 1.756 1.059 4.585 1.773 7.779 1.773s6.023-.714 7.779-1.773c.076-.046.149-.094.221-.141v.984c-.006.581-.53 1.045-1.254 1.483-1.52.916-3.98 1.486-6.746 1.486s-5.226-.57-6.746-1.486c-.728-.441-1.254-.907-1.254-1.493zm-22 4.031c.072.047.143.093.219.139 1.757 1.064 4.585 1.783 7.781 1.783s6.024-.719 7.781-1.783c.076-.046.147-.092.219-.139v.902c0 .586-.526 1.054-1.254 1.495-1.52.916-3.98 1.486-6.746 1.486s-5.226-.57-6.746-1.486c-.728-.441-1.254-.909-1.254-1.495zm22 .01c.072.047.145.093.221.139 1.756 1.059 4.585 1.773 7.779 1.773s6.023-.714 7.779-1.773c.076-.046.149-.092.221-.139v.902c0 .586-.526 1.054-1.254 1.494-1.52.916-3.98 1.487-6.746 1.487s-5.226-.571-6.746-1.487c-.728-.44-1.254-.908-1.254-1.494zm-22 3.959c.072.047.145.095.221.141 1.757 1.059 4.585 1.773 7.779 1.773s6.023-.714 7.779-1.773c.076-.046.149-.094.221-.141v.975c0 .585-.526 1.052-1.254 1.492-1.52.916-3.98 1.486-6.746 1.486s-5.226-.57-6.746-1.486c-.728-.441-1.254-.907-1.254-1.493zm22 .012c.072.047.145.093.221.138 1.757 1.06 4.585 1.774 7.779 1.774s6.023-.714 7.779-1.774c.076-.045.149-.091.221-.138v.972c0 .586-.526 1.054-1.254 1.495-1.52.916-3.98 1.484-6.746 1.484s-5.226-.568-6.746-1.484c-.728-.441-1.254-.909-1.254-1.495z"/></svg>