<svg style="fill: #ff6600;" id="Layer_1" enable-background="new 0 0 512 512" viewBox="0 0 512 512" xmlns="http://www.w3.org/2000/svg"><path d="m336.32 175.43c-44.29-44.29-116.35-44.29-160.64 0s-44.29 116.35 0 160.64c22.14 22.14 51.23 33.22 80.32 33.22s58.18-11.07 80.32-33.22c44.29-44.29 44.29-116.35 0-160.64zm-152.15 8.48c39.61-39.61 104.06-39.61 143.67 0 39.35 39.35 39.6 103.22.76 142.89-6.98-22.87-25.93-40.27-49.14-45.43 12.75-7.89 21.27-21.99 21.27-38.06 0-24.66-20.06-44.73-44.73-44.73s-44.73 20.06-44.73 44.73c0 16.06 8.52 30.17 21.27 38.06-23.2 5.15-42.15 22.55-49.14 45.43-38.84-39.67-38.59-103.54.77-142.89zm71.83 92.13c-18.04 0-32.73-14.68-32.73-32.73 0-18.04 14.68-32.73 32.73-32.73s32.73 14.68 32.73 32.73c-.01 18.05-14.69 32.73-32.73 32.73zm-62.5 59.8c4.88-25.33 27.25-44.05 53.35-44.05h18.3c26.1 0 48.47 18.72 53.35 44.05-18.29 14.3-40.39 21.45-62.5 21.45-22.1 0-44.2-7.16-62.5-21.45zm217.67-204.02c17.08 0 30.98-13.9 30.98-30.98s-13.9-30.98-30.98-30.98-30.98 13.9-30.98 30.98 13.89 30.98 30.98 30.98zm0-49.97c10.47 0 18.98 8.52 18.98 18.98s-8.52 18.98-18.98 18.98-18.98-8.51-18.98-18.98 8.51-18.98 18.98-18.98zm-61.33 28.64c0 2.92 2.1 5.41 4.97 5.91l6.44 1.12c.78 2.33 1.72 4.59 2.82 6.79l-3.76 5.35c-1.68 2.39-1.4 5.63.67 7.69l13.66 13.66c2.06 2.06 5.31 2.34 7.69.67l5.35-3.76c2.2 1.1 4.47 2.04 6.79 2.82l1.12 6.44c.5 2.87 3 4.97 5.91 4.97h19.32c2.92 0 5.41-2.1 5.91-4.97l1.12-6.44c2.33-.78 4.6-1.72 6.79-2.82l5.35 3.76c2.39 1.68 5.63 1.4 7.69-.67l13.66-13.66c2.06-2.06 2.34-5.31.67-7.69l-3.76-5.35c1.1-2.2 2.04-4.47 2.82-6.79l6.44-1.12c2.87-.5 4.97-3 4.97-5.91v-9.66-9.66c0-2.92-2.1-5.41-4.97-5.91l-6.44-1.12c-.78-2.33-1.72-4.59-2.82-6.79l3.76-5.35c1.68-2.39 1.4-5.63-.67-7.69l-13.64-13.66c-2.06-2.06-5.31-2.34-7.69-.67l-5.35 3.76c-2.2-1.1-4.47-2.04-6.79-2.82l-1.12-6.44c-.5-2.87-3-4.97-5.91-4.97h-19.32c-2.92 0-5.41 2.1-5.91 4.97l-1.12 6.44c-2.33.78-4.6 1.72-6.79 2.82l-5.35-3.76c-2.39-1.68-5.63-1.4-7.69.67l-13.68 13.65c-2.06 2.06-2.34 5.31-.67 7.69l3.76 5.35c-1.1 2.2-2.04 4.47-2.82 6.79l-6.44 1.12c-2.87.5-4.97 3-4.97 5.91v9.66zm12-14.27 5.15-.9c2.33-.41 4.21-2.15 4.79-4.44.96-3.81 2.47-7.46 4.5-10.85 1.22-2.03 1.12-4.59-.24-6.53l-3.01-4.28 6.53-6.53 4.28 3.01c1.94 1.36 4.5 1.46 6.53.24 3.38-2.02 7.03-3.54 10.85-4.5 2.3-.58 4.04-2.45 4.45-4.79l.9-5.15h9.23l.9 5.15c.41 2.33 2.15 4.21 4.45 4.79 3.81.96 7.46 2.47 10.85 4.5 2.03 1.22 4.59 1.12 6.53-.24l4.28-3.01 6.53 6.53-3.01 4.28c-1.36 1.94-1.46 4.5-.24 6.53 2.02 3.39 3.54 7.03 4.5 10.85.58 2.3 2.45 4.04 4.79 4.44l5.15.9v4.62 4.61l-5.15.9c-2.33.41-4.21 2.15-4.79 4.44-.96 3.81-2.47 7.46-4.5 10.85-1.22 2.03-1.12 4.59.24 6.53l3.01 4.28-6.53 6.53-4.28-3.01c-1.94-1.36-4.49-1.46-6.53-.24-3.39 2.02-7.04 3.54-10.85 4.5-2.3.58-4.04 2.45-4.44 4.79l-.9 5.15h-9.23l-.9-5.15c-.41-2.33-2.15-4.21-4.44-4.79-3.81-.96-7.46-2.47-10.85-4.5-2.03-1.22-4.59-1.12-6.53.24l-4.28 3.01-6.53-6.53 3.01-4.28c1.36-1.94 1.46-4.5.24-6.53-2.02-3.38-3.54-7.03-4.5-10.85-.58-2.3-2.45-4.04-4.79-4.44l-5.15-.9v-4.62zm133.95 159.53c0-34.05-6.99-66.88-20.75-97.66 13.64-15.2 21.95-35.27 21.95-57.25.01-47.33-38.49-85.84-85.82-85.84-21.93 0-41.96 8.28-57.15 21.86-30.88-13.86-63.83-20.91-98.02-20.91s-67.14 7.05-98.02 20.91c-15.19-13.58-35.22-21.86-57.15-21.86-47.33 0-85.83 38.51-85.83 85.83 0 21.98 8.31 42.05 21.95 57.25-13.75 30.78-20.75 63.61-20.75 97.66 0 34.18 7.04 67.12 20.9 97.99-13.73 15.23-22.1 35.37-22.1 57.44 0 47.33 38.5 85.83 85.83 85.83 22.11 0 42.3-8.41 57.53-22.19 30.78 13.75 63.6 20.73 97.63 20.73 34.04 0 66.86-6.99 97.63-20.73 15.23 13.78 35.42 22.19 57.53 22.19 47.33 0 85.83-38.5 85.83-85.83 0-22.06-8.37-42.21-22.1-57.43 13.87-30.88 20.91-63.82 20.91-97.99zm-84.62-228.75c40.71 0 73.83 33.12 73.83 73.83s-33.12 73.83-73.83 73.83-73.83-33.12-73.83-73.83 33.11-73.83 73.83-73.83zm-316.34.27v8.82c0 3.31 2.69 6 6 6s6-2.69 6-6v-8.82c35.93 2.91 64.66 31.64 67.57 67.57h-8.83c-3.31 0-6 2.69-6 6s2.69 6 6 6h8.83c-2.91 35.93-31.64 64.66-67.57 67.57v-8.82c0-3.31-2.69-6-6-6s-6 2.69-6 6v8.82c-35.93-2.91-64.66-31.64-67.57-67.57h8.82c3.31 0 6-2.69 6-6s-2.69-6-6-6h-8.82c2.91-35.94 31.64-64.67 67.57-67.57zm6 457.73c-40.71 0-73.83-33.12-73.83-73.83s33.12-73.83 73.83-73.83 73.83 33.12 73.83 73.83-33.11 73.83-73.83 73.83zm66.35-19.44c12.17-14.82 19.49-33.77 19.49-54.39 0-47.33-38.51-85.83-85.83-85.83-20.68 0-39.67 7.35-54.5 19.57-12.02-28.18-18.12-58.13-18.12-89.16 0-30.88 6.05-60.71 17.97-88.79 14.86 12.3 33.91 19.71 54.66 19.71 47.33 0 85.83-38.5 85.83-85.83 0-20.8-7.44-39.9-19.8-54.77 28.18-12.01 58.12-18.11 89.13-18.11s60.95 6.1 89.13 18.11c-12.36 14.87-19.8 33.97-19.8 54.77 0 47.33 38.5 85.83 85.83 85.83 20.75 0 39.8-7.4 54.66-19.71 11.91 28.08 17.97 57.9 17.97 88.79 0 31.02-6.1 60.97-18.12 89.16-14.83-12.22-33.83-19.57-54.5-19.57-47.33 0-85.83 38.5-85.83 85.83 0 20.63 7.32 39.58 19.49 54.39-28.09 11.92-57.92 17.98-88.82 17.98-30.92 0-60.75-6.06-88.84-17.98zm243.99 19.44c-40.71 0-73.83-33.12-73.83-73.83s33.12-73.83 73.83-73.83 73.83 33.11 73.83 73.83-33.12 73.83-73.83 73.83zm29.4-52.59c0 12.82-10.02 23.58-23.4 26.29v7.6c0 3.31-2.69 6-6 6s-6-2.69-6-6v-7.39c-10.56-1.74-19.46-8.46-23.01-17.84-1.17-3.1.39-6.56 3.49-7.74 3.1-1.17 6.56.39 7.74 3.49 2.35 6.21 9.42 10.55 17.19 10.55 9.93 0 18-6.71 18-14.95 0-1.84-.33-7.99-4.63-9.7l-14.86-5.92-12.11-4.15c-9.24-3.17-15.21-12.09-15.21-22.72 0-12.82 10.02-23.58 23.4-26.29v-7.6c0-3.31 2.69-6 6-6s6 2.69 6 6v7.39c10.56 1.74 19.46 8.46 23.01 17.84 1.17 3.1-.39 6.56-3.49 7.74-3.1 1.17-6.56-.39-7.74-3.49-2.35-6.21-9.42-10.55-17.19-10.55-9.93 0-18 6.71-18 14.95 0 4.32 1.87 9.58 7.1 11.37l12.25 4.2c.09.03.18.07.27.1l14.99 5.97c7.64 3.05 12.2 10.84 12.2 20.85zm-297.81-69.35h-27.95c-3.31 0-6 2.69-6 6v17.46h-21.95c-3.31 0-6 2.69-6 6v19.33h-21.96c-3.31 0-6 2.69-6 6v35.43c0 3.31 2.69 6 6 6h27.95 27.95 27.95c3.31 0 6-2.69 6-6v-84.21c.01-3.32-2.67-6.01-5.99-6.01zm-77.86 60.79h15.95v23.43h-15.95zm27.96-25.33h15.95v48.76h-15.95zm43.9 48.75h-15.95v-72.21h15.95zm-35.93-326.04c9.16 0 16.92-6.07 19.49-14.39h14.55c3.31 0 6-2.69 6-6s-2.69-6-6-6h-14.55c-1.98-6.43-7.06-11.51-13.49-13.49v-22.8c0-3.31-2.69-6-6-6s-6 2.69-6 6v22.79c-8.33 2.57-14.39 10.33-14.39 19.49 0 11.25 9.15 20.4 20.39 20.4zm0-28.79c4.63 0 8.4 3.77 8.4 8.39 0 4.63-3.77 8.39-8.4 8.39s-8.39-3.77-8.39-8.39 3.77-8.39 8.39-8.39z"/></svg>