<?xml version="1.0" encoding="UTF-8"?>
<svg id="Camada_1" xmlns="http://www.w3.org/2000/svg" version="1.1" viewBox="0 0 512 512">
  <!-- Generator: Adobe Illustrator 29.8.3, SVG Export Plug-In . SVG Version: 2.1.1 Build 3)  -->
  <defs>
    <style>
      .st0 {
        fill: #f60;
      }
    </style>
  </defs>
  <path class="st0" d="M24,368c-4.4,0-8-3.6-8-8V56c0-4.4,3.6-8,8-8s8,3.6,8,8v304c0,4.4-3.6,8-8,8Z"/>
  <path class="st0" d="M24,64c-4.4,0-8-3.6-8-8,0-13.2,10.8-24,24-24s8,3.6,8,8-3.6,8-8,8-8,3.6-8,8-3.6,8-8,8Z"/>
  <path class="st0" d="M488,368c-4.4,0-8-3.6-8-8V56c0-4.4,3.6-8,8-8s8,3.6,8,8v304c0,4.4-3.6,8-8,8Z"/>
  <path class="st0" d="M488,64c-4.4,0-8-3.6-8-8s-3.6-8-8-8-8-3.6-8-8,3.6-8,8-8c13.2,0,24,10.8,24,24s-3.6,8-8,8Z"/>
  <path class="st0" d="M472,48H40c-4.4,0-8-3.6-8-8s3.6-8,8-8h432c4.4,0,8,3.6,8,8s-3.6,8-8,8Z"/>
  <path class="st0" d="M504,392H8c-4.4,0-8-3.6-8-8v-24c0-4.4,3.6-8,8-8h496c4.4,0,8,3.6,8,8v24c0,4.4-3.6,8-8,8ZM16,376h480v-8H16v8Z"/>
  <path class="st0" d="M168,504c-.9,0-1.8-.2-2.7-.5-4.2-1.5-6.3-6.1-4.8-10.2l40-112c1.5-4.2,6.1-6.4,10.2-4.8,4.2,1.5,6.3,6.1,4.8,10.2l-40,112c-1.2,3.3-4.2,5.3-7.5,5.3Z"/>
  <path class="st0" d="M128,504c-.9,0-1.8-.2-2.7-.5-4.2-1.5-6.3-6.1-4.8-10.2l40-112c1.5-4.2,6.1-6.4,10.2-4.8,4.2,1.5,6.3,6.1,4.8,10.2l-40,112c-1.2,3.3-4.2,5.3-7.5,5.3Z"/>
  <path class="st0" d="M168,504h-40c-4.4,0-8-3.6-8-8s3.6-8,8-8h40c4.4,0,8,3.6,8,8s-3.6,8-8,8Z"/>
  <path class="st0" d="M344,504c-3.3,0-6.4-2-7.5-5.3l-40-112c-1.5-4.2.7-8.7,4.8-10.2,4.1-1.5,8.7.7,10.2,4.8l40,112c1.5,4.2-.7,8.7-4.8,10.2-.9.3-1.8.5-2.7.5Z"/>
  <path class="st0" d="M384,504c-3.3,0-6.4-2-7.5-5.3l-40-112c-1.5-4.2.7-8.7,4.8-10.2,4.1-1.5,8.7.7,10.2,4.8l40,112c1.5,4.2-.7,8.7-4.8,10.2-.9.3-1.8.5-2.7.5Z"/>
  <path class="st0" d="M384,504h-40c-4.4,0-8-3.6-8-8s3.6-8,8-8h40c4.4,0,8,3.6,8,8s-3.6,8-8,8Z"/>
  <path class="st0" d="M321.1,440h-130.3c-4.4,0-8-3.6-8-8s3.6-8,8-8h130.3c4.4,0,8,3.6,8,8s-3.6,8-8,8Z"/>
  <path class="st0" d="M329.7,464h-147.4c-4.4,0-8-3.6-8-8s3.6-8,8-8h147.4c4.4,0,8,3.6,8,8s-3.6,8-8,8Z"/>
  <path class="st0" d="M288,48h-64c-4.4,0-8-3.6-8-8v-24c0-4.4,3.6-8,8-8h64c4.4,0,8,3.6,8,8v24c0,4.4-3.6,8-8,8ZM232,32h48v-8h-48v8Z"/>
  <path class="st0" d="M104,312c-17.6,0-32-14.4-32-32s14.4-32,32-32,32,14.4,32,32-14.4,32-32,32ZM104,264c-8.8,0-16,7.2-16,16s7.2,16,16,16,16-7.2,16-16-7.2-16-16-16Z"/>
  <path class="st0" d="M384,200c-17.6,0-32-14.4-32-32s14.4-32,32-32,32,14.4,32,32-14.4,32-32,32ZM384,152c-8.8,0-16,7.2-16,16s7.2,16,16,16,16-7.2,16-16-7.2-16-16-16Z"/>
  <path class="st0" d="M384,176c-4.4,0-8-3.6-8-8v-72c0-4.4,3.6-8,8-8s8,3.6,8,8v72c0,4.4-3.6,8-8,8Z"/>
  <path class="st0" d="M432,104h-48c-4.4,0-8-3.6-8-8s3.6-8,8-8h48c4.4,0,8,3.6,8,8s-3.6,8-8,8Z"/>
  <path class="st0" d="M432,136h-48c-4.4,0-8-3.6-8-8s3.6-8,8-8h48c4.4,0,8,3.6,8,8s-3.6,8-8,8Z"/>
  <path class="st0" d="M432,136c-2.9,0-5.8-1.6-7.2-4.4l-8-16c-1.1-2.2-1.1-4.9,0-7.2l8-16c2-3.9,6.8-5.5,10.7-3.6,4,2,5.6,6.8,3.6,10.7l-6.2,12.4,6.2,12.4c2,3.9.4,8.8-3.6,10.7-1.1.6-2.4.8-3.6.8Z"/>
  <path class="st0" d="M144,248c-1.9,0-3.8-.7-5.3-2-3.3-2.9-3.6-8-.7-11.3,2.7-3.1,67.8-74.7,190-74.7s8,3.6,8,8-3.6,8-8,8c-115.1,0-177.4,68.6-178,69.3-1.6,1.8-3.8,2.7-6,2.7Z"/>
  <path class="st0" d="M312,192c-2,0-4.1-.8-5.7-2.3-3.1-3.1-3.1-8.2,0-11.3l16-16c3.1-3.1,8.2-3.1,11.3,0s3.1,8.2,0,11.3l-16,16c-1.6,1.6-3.6,2.3-5.7,2.3Z"/>
  <path class="st0" d="M328,176c-2,0-4.1-.8-5.7-2.3l-16-16c-3.1-3.1-3.1-8.2,0-11.3s8.2-3.1,11.3,0l16,16c3.1,3.1,3.1,8.2,0,11.3s-3.6,2.3-5.7,2.3Z"/>
  <path class="st0" d="M104.2,288c-4.4,0-8-3.6-8-8s3.5-8,8-8h0c4.4,0,8,3.6,8,8s-3.6,8-8,8Z"/>
  <path class="st0" d="M120,176c-2,0-4.1-.8-5.7-2.3l-32-32c-3.1-3.1-3.1-8.2,0-11.3s8.2-3.1,11.3,0l32,32c3.1,3.1,3.1,8.2,0,11.3s-3.6,2.3-5.7,2.3Z"/>
  <path class="st0" d="M88,176c-2,0-4.1-.8-5.7-2.3-3.1-3.1-3.1-8.2,0-11.3l32-32c3.1-3.1,8.2-3.1,11.3,0s3.1,8.2,0,11.3l-32,32c-1.6,1.6-3.6,2.3-5.7,2.3Z"/>
  <path class="st0" d="M240,120c-2,0-4.1-.8-5.7-2.3l-32-32c-3.1-3.1-3.1-8.2,0-11.3s8.2-3.1,11.3,0l32,32c3.1,3.1,3.1,8.2,0,11.3s-3.6,2.3-5.7,2.3Z"/>
  <path class="st0" d="M208,120c-2,0-4.1-.8-5.7-2.3-3.1-3.1-3.1-8.2,0-11.3l32-32c3.1-3.1,8.2-3.1,11.3,0s3.1,8.2,0,11.3l-32,32c-1.6,1.6-3.6,2.3-5.7,2.3Z"/>
  <path class="st0" d="M256,328c-2,0-4.1-.8-5.7-2.3l-32-32c-3.1-3.1-3.1-8.2,0-11.3s8.2-3.1,11.3,0l32,32c3.1,3.1,3.1,8.2,0,11.3s-3.6,2.3-5.7,2.3Z"/>
  <path class="st0" d="M224,328c-2,0-4.1-.8-5.7-2.3-3.1-3.1-3.1-8.2,0-11.3l32-32c3.1-3.1,8.2-3.1,11.3,0s3.1,8.2,0,11.3l-32,32c-1.6,1.6-3.6,2.3-5.7,2.3Z"/>
  <path class="st0" d="M376,288c-2,0-4.1-.8-5.7-2.3l-32-32c-3.1-3.1-3.1-8.2,0-11.3s8.2-3.1,11.3,0l32,32c3.1,3.1,3.1,8.2,0,11.3s-3.6,2.3-5.7,2.3Z"/>
  <path class="st0" d="M344,288c-2,0-4.1-.8-5.7-2.3-3.1-3.1-3.1-8.2,0-11.3l32-32c3.1-3.1,8.2-3.1,11.3,0s3.1,8.2,0,11.3l-32,32c-1.6,1.6-3.6,2.3-5.7,2.3Z"/>
</svg>