<?xml version="1.0" encoding="UTF-8"?>
<svg id="Camada_1" xmlns="http://www.w3.org/2000/svg" version="1.1" viewBox="0 0 512 512">
  <!-- Generator: Adobe Illustrator 29.8.3, SVG Export Plug-In . SVG Version: 2.1.1 Build 3)  -->
  <defs>
    <style>
      .st0 {
        fill: #f60;
      }
    </style>
  </defs>
  <path class="st0" d="M426.7,170.7c-47.1,0-85.3-38.2-85.3-85.3S379.5,0,426.7,0s85.3,38.2,85.3,85.3c0,47.1-38.2,85.3-85.3,85.3ZM426.7,21.3c-35.3,0-64,28.7-64,64s28.7,64,64,64,64-28.7,64-64c0-35.3-28.7-64-64-64Z"/>
  <path class="st0" d="M458.7,330.7h-64c-5.9,0-10.7-4.8-10.7-10.7v-170.7h21.3v160h42.7v-160h21.3v170.7c0,5.9-4.8,10.7-10.7,10.7Z"/>
  <path class="st0" d="M426.7,117.3c-17.7,0-32-14.3-32-32s14.3-32,32-32,32,14.3,32,32-14.3,32-32,32ZM426.7,74.7c-5.9,0-10.7,4.8-10.7,10.7s4.8,10.7,10.7,10.7,10.7-4.8,10.7-10.7-4.8-10.7-10.7-10.7Z"/>
  <path class="st0" d="M416,106.7h21.3v53.3h-21.3v-53.3Z"/>
  <path class="st0" d="M394.7,192h64v21.3h-64v-21.3Z"/>
  <path class="st0" d="M426.7,362.7c-2.8,0-5.5-1.1-7.5-3.1l-32-32,15.1-15.1,24.5,24.5,24.5-24.5,15.1,15.1-32,32c-2,2-4.7,3.1-7.5,3.1Z"/>
  <path class="st0" d="M352,512H10.7c-5.9,0-10.7-4.8-10.7-10.7V160c0-4.3,2.6-8.2,6.6-9.9,4-1.7,8.6-.7,11.6,2.3l341.3,341.3c3,3.1,4,7.6,2.3,11.6-1.6,4-5.5,6.6-9.9,6.6ZM21.3,490.7h304.9L21.3,185.8v304.9Z"/>
  <path class="st0" d="M224,458.7H64c-5.9,0-10.7-4.8-10.7-10.7v-149.3c0-4.2,2.5-8.1,6.4-9.8,3.9-1.7,8.4-.9,11.5,2l160,149.3c3.2,3,4.3,7.6,2.6,11.7-1.6,4.1-5.5,6.8-9.9,6.8ZM74.7,437.3h122.3l-122.3-114.1v114.1Z"/>
  <path class="st0" d="M64,149.3h-21.3V32C42.7,14.3,57,0,74.7,0h277.3v21.3H74.7c-5.9,0-10.7,4.8-10.7,10.7v117.3Z"/>
  <path class="st0" d="M480,437.3h-160v-21.3h160c5.9,0,10.7-4.8,10.7-10.7v-245.3h21.3v245.3c0,17.7-14.3,32-32,32Z"/>
  <path class="st0" d="M53.3,53.3h266.7v21.3H53.3v-21.3Z"/>
  <path class="st0" d="M128,181.3c-23.6,0-42.7-19.1-42.7-42.7s19.1-42.7,42.7-42.7,42.7,19.1,42.7,42.7-19.1,42.7-42.7,42.7ZM128,117.3c-11.8,0-21.3,9.6-21.3,21.3s9.6,21.3,21.3,21.3,21.3-9.6,21.3-21.3-9.6-21.3-21.3-21.3Z"/>
  <path class="st0" d="M277.3,181.3c-23.6,0-42.7-19.1-42.7-42.7s19.1-42.7,42.7-42.7,42.7,19.1,42.7,42.7-19.1,42.7-42.7,42.7ZM277.3,117.3c-11.8,0-21.3,9.6-21.3,21.3s9.6,21.3,21.3,21.3,21.3-9.6,21.3-21.3-9.6-21.3-21.3-21.3Z"/>
  <path class="st0" d="M426.7,362.7h-128c-17.7,0-32-14.3-32-32v-42.7c0-5.9-4.8-10.7-10.7-10.7h-32c-17.7,0-32-14.3-32-32v-32c0-5.9,4.8-10.7,10.7-10.7h53.3c5.9,0,10.7-4.8,10.7-10.7v-21.3h21.3v21.3c0,17.7-14.3,32-32,32h-42.7v21.3c0,5.9,4.8,10.7,10.7,10.7h32c17.7,0,32,14.3,32,32v42.7c0,5.9,4.8,10.7,10.7,10.7h128v21.3Z"/>
  <path class="st0" d="M202.7,224h-53.3c-17.7,0-32-14.3-32-32v-21.3h21.3v21.3c0,5.9,4.8,10.7,10.7,10.7h53.3v21.3Z"/>
</svg>