<svg style="fill: #ff6600;" id="svg8" height="512" viewBox="0 0 16.933333 16.933334" width="512" xmlns="http://www.w3.org/2000/svg" xmlns:svg="http://www.w3.org/2000/svg"><g id="layer1-0" transform="translate(2.382 -1.059)"><path id="rect6824" d="m8.6920571 1.7338242c-1.5522124.418092-2.7317984 1.681217-3.0477806 3.2542203l-.019119.03255c-.470577-.3274612-1.040628-.5217919-1.6577262-.5217919-1.4272403 0-2.6071455 1.0276905-2.8550326 2.3826733-.26880722.1689186-.45806619.427646-.5637722.7000273-.12418603.3200033-.12086704.6343577-.09405.9454239.02285.2650613.06073.5366176.07183.8415805-.17958603.0578-.34065909.177342-.44440311.356989l-1.72077179 2.9778254c-.4374351.757479-.184361 1.724969.5818582 2.167242.13810597.07971.28268897.135451.42941707.170486l-.1519241.954206c-.06615.416143.1139511.793728.40978216 1.056497.28877306.256499.68102716.408133 1.09188826.408133 2.58081831.000001 5.16164211 0 7.74241181 0 .146317.000556.2653112-.118031.2656102-.265028v-3.705234c-.0002991-.146995-.119301-.265588-.2656162-.265028h-.1860288l-.0057-.03513c-.06092-.38335-.256983-.662239-.527583-.874649-.257106-.201815-.5565631-.336698-.8593534-.482528-.0013-.000009-.0023-.000009-.0036 0l-1.4784124-.69124c-.03362-.01589-.07029-.0245-.107483-.02532-.0014-.00003-.0027.000529-.0041.000529v-.395213c.34936-.230963.6302981-.552021.8154322-.9288914h.2433879c.4047972 0 .7550583-.227806.9322133-.564671 1.0209643.751193 2.3431505 1.0172964 3.6001842.681945 2.255242-.604158 3.598328-2.9275728 2.994038-5.1822764-.453217-1.6910281-1.874007-2.8704493-3.507685-3.0987167-.13614-.01902-.27412-.03171-.4128826-.0372-.104071-.0041-.2085938-.0043-.3136815-.0005155-.3152295.01124-.6342047.05815-.9513478.1431052zm1.2458824.385918c.1215635.0047.2420465.01552.3612075.03203 1.42991.1981896 2.668676 1.2283751 3.066383 2.7122808.53027 1.9785402-.63987 4.0037514-2.618883 4.5338996-1.3753169.366908-2.8381781-.08432-3.7655434-1.1639558-.019431-.02259-.0424-.04194-.06821-.05683l-1.8752783-1.0833623 1.0841374-1.8784485c.014909-.02541.025749-.05326.03152-.08214.263918-1.3969816 1.3021412-2.5180949 2.6752036-2.887932.2782981-.07455.5581961-.1160137.8345506-.1260572.092123-.0033.1837384-.003.2749126.0005154zm-3.3242438 3.7021342c0 1.7530309 1.4214509 3.1741433 3.1748997 3.1741436 1.7534496.0000002 3.1749006-1.4211123 3.1749006-3.1741436-.000001-1.7530308-1.421452-3.1741426-3.1748992-3.1741424-1.7534479-.0000013-3.1749004 1.4211108-3.1749011 3.1741424zm5.8206503 0c0 1.4608596-1.184543 2.6451204-2.6457505 2.6451198-1.4612074.0000001-2.64575-1.1842605-2.6457496-2.6451198.0000002-1.4608588 1.1845426-2.6451187 2.645751-2.6451186 1.4612081.0000009 2.6457491 1.1842605 2.6457491 2.6451186zm-2.9103227-1.8505495h-.264574c-.435141 0-.7932081.3456221-.7932081.7930191v.5290238c0 .4496088.3580671.7925019.7932081.7925019h.2645712v1.0585647h-.2645741c-.1511502 0-.264059-.1123778-.264059-.2634783 0-.3527343-.5291493-.3527343-.5291493 0 0 .4349978.346374.7920651.7932083.7925019h.2645741c0 .1460168.118004.2639953.264575.2639953.1465731 0 .2640585-.1179785.2640585-.2639953h.265092c.435141 0 .793205-.3430381.793208-.7925019v-.5290239c0-.4481488-.358073-.7950771-.793208-.7950861h-.265092v-1.0559815h.265092c.151147 0 .264056.1123799.264058.2634794 0 .352731.529147.352731.52915 0 0-.443266-.358067-.7925961-.793208-.7930191h-.265092c0-.1465337-.1174854-.2645124-.2640571-.2645124-.1465696 0-.2645736.1179777-.2645736.2645124zm-.2645769.5295397h.2645741v1.0559815h-.2645741c-.1511502 0-.264059-.1123828-.264059-.2634783v-.5290238c0-.1438656.1129088-.2634784.264059-.2634794zm-5.2920175.5269577c.5233352 0 1.0042414.1662857 1.3952195.4479139l-.6474843 1.1210763c-.3437322-.3273696-.8000831-.5102735-1.2748181-.5109428-.5389637.0008991-1.0507994.2364798-1.4019375.6452646-.1169649-.02544-.231348-.03641-.341053-.03203.298915-.9718876 1.1943274-1.6712811 2.2700734-1.671282zm6.0852251 1.0580474h.265092c.151155.0000021.264056.1281149.264058.2660625v.5290239c0 .1418036-.112908.2634783-.264058.2634783h-.265092zm-5.6108498.9903709c-.06012.1233585-.018651.2733803.101799.3435551l.1446901.08369c.04906.1394518.074387.2861398.07493.4339647.0000002.7304299-.5922714 1.3225604-1.3228754 1.3225602-.7306036-.0000003-1.3228746-.5921307-1.3228744-1.3225602.0000001-.7304294.592271-1.3225594 1.3228734-1.3225583.3850702.0007333.7507103.1691746 1.0014573.4613485zm-1.0035482.0681938c-.4352283 0-.7926913.3578949-.7926913.7930189-.008.3605917.5371499.3605917.5291501 0 0-.1492185.1142871-.2639953.2635412-.2639953.3450155-.00766.3450155-.5213598 0-.5290236zm-1.8499647.793015c.00114.8705848.6087709 1.6227872 1.4598133 1.8071542-.03791.240049-.206977.4429784-.4552552.5202404-.01768-.01221-.03327-.02628-.05219-.0372l-1.3750673-.7930184c-.03545-.02046-.07251-.03508-.1095499-.0496-.010239-.3533021-.05231-.6526814-.0739-.9030607-.024511-.2843323-.0227198-.4997899.0583899-.7088092.08114-.2090695.2404211-.4017212.4356191-.490277.07702-.03494.1627131-.05453.2568301-.057857-.09484.2255857-.1440194.4677269-.14469.7124279zm4.2337193.2195657v.5941186c.0000008 1.0197479-.8321074 1.8355683-1.8515075 1.8355683-.2523081 0-.4901913-.05191-.7079453-.141039.1696681-.181829.2808122-.413833.3126331-.6633454.9672486-.07061 1.7162081-.8752758 1.7171504-1.844868-.00119-.029661-.00309-.05929-.00569-.08886zm.5291499.3053251.263542.1518876c.07856.0893.160659.1742307.2454551.2557295-.05979.2234543-.261583.3947013-.5089971.3947013h-.05736c.03652-.165433.05736-.3370595.05736-.5135251zm-5.45118419 1.4310534 1.37506639.7930204c.1309068.07556.169213.237226.09767.361121l-1.72077451 2.977825c-.29543708.51159-.94072722.679773-1.4453444.388502-.50461609-.291272-.68196509-.935477-.38652709-1.447067l1.71870348-2.9773084c.05404-.09357.15678204-.143146.25992361-.1301915.0343795.0043.0685594.015209.10128252.034099zm11.27079169.1570514c-.14632-.000556-.265314.118034-.265613.265028v6.882477c.000291.146996.119293.26559.26561.265028h1.585383c.146315.000556.265309-.118032.265608-.265028v-6.882477c-.000291-.146994-.119293-.265588-.265608-.265028zm.263538.532124h1.0583v6.348286h-1.0583zm-9.5009293.294992c.3140772.150561.6656363.238164 1.0371132.238164.2792831 0 .5449952-.04876.7926913-.134838v.553821l-.6387001.639582h-.3105661l-.9456483-.946974c.04914-.113868.0693-.23304.06511-.349755zm6.5916368.759955c-.1463151-.000555-.2653081.118034-.2656071.26503v5.295404c.0002911.146996.119292.26559.2656071.265028h1.5853835c.146317.000556.26531-.118032.265609-.265028v-5.295404c-.000291-.146996-.119292-.265589-.265609-.26503zm-4.1758401.06044.568423.266063-.8908742.893761-.4180489-.4195zm-2.7475488.0098.7296482.729474-.3978961.398834-.5710062-.713975zm7.1869309.461862h1.0583005v4.761215h-1.0583005zm-3.3604118.03307.2273689.106425.00209.0016c.306881.147789.5770712.275101.7616861.420016.1592771.125026.2705511.271377.3178001.493893h-.857795c-.1463159-.000608-.2653088.117997-.2656078.264992v3.441238h-1.6210385l-.479025-3.344629.2485549-.247463.07906.07905c.1032051.102571.2698879.102571.373093 0zm-4.3499852.41175.6262983.78217c.098756.123728.2833635.133631.394796.02118l.07286-.07285.2516559.24643-.4774751 3.339463h-2.22408238c-.27636606 0-.55509715-.111138-.73998319-.275362-.17622204-.156504-.27303006-.359133-.23822105-.578078l.15967502-1.002253c.48798812-.05142.94333424-.327447 1.2071234-.784236zm1.7357565.08886h.3105661l.262507.261411-.4185651.420017-.4216671-.414333zm3.3288909 1.053397h1.0583003v3.171045h-1.0583003zm-3.2446608.253147c.046434.01313.095575.01331.1421059.000529l.4180492 2.920468h-.9776872z" font-variant-ligatures="normal" font-variant-position="normal" font-variant-caps="normal" font-variant-numeric="normal" font-variant-alternates="normal" font-feature-settings="normal" text-indent="0" text-align="start" text-decoration-line="none" text-decoration-style="solid" text-decoration-color="rgb(0,0,0)" text-transform="none" text-orientation="mixed" white-space="normal" shape-padding="0" isolation="auto" mix-blend-mode="normal" solid-color="#ff6600" solid-opacity="1" vector-effect="none"/></g></svg>