<svg style="fill: #ff6600;" id="Layer_1" height="512" viewBox="0 0 512 512" width="512" xmlns="http://www.w3.org/2000/svg" data-name="Layer 1"><path d="m479 60.533h-46.066v-5.522a35.75 35.75 0 0 0 -71.5 0v5.522h-69.684v-5.522a35.75 35.75 0 0 0 -71.5 0v5.522h-69.684v-5.522a35.75 35.75 0 0 0 -71.5 0v5.522h-46.066a33.038 33.038 0 0 0 -33 33v366.206a33.037 33.037 0 0 0 33 33h446a33.037 33.037 0 0 0 33-33v-366.206a33.038 33.038 0 0 0 -33-33zm-101.566-5.522a19.75 19.75 0 0 1 39.5 0v29.25a19.75 19.75 0 1 1 -39.5 0zm-141.184 0a19.75 19.75 0 0 1 39.5 0v29.25a19.75 19.75 0 1 1 -39.5 0zm-141.184 0a19.75 19.75 0 0 1 39.5 0v29.25a19.75 19.75 0 0 1 -39.5 0zm400.934 404.728a17.019 17.019 0 0 1 -17 17h-446a17.019 17.019 0 0 1 -17-17v-262.689h480zm0-278.689h-480v-29h480zm0-45h-480v-42.517a17.019 17.019 0 0 1 17-17h46.066v7.728a35.75 35.75 0 0 0 71.5 0v-7.728h69.684v7.728a35.75 35.75 0 0 0 71.5 0v-7.728h69.684v7.728a35.75 35.75 0 1 0 71.5 0v-7.728h46.066a17.019 17.019 0 0 1 17 17zm-355.673 137.4a8 8 0 0 1 8-8h80.648a24.971 24.971 0 0 1 24.942 24.944v63.7a8.953 8.953 0 0 0 8.943 8.942h69.466l-6.638-6.639a8 8 0 1 1 11.312-11.307l20.294 20.3a8 8 0 0 1 0 11.313l-20.294 20.289a8 8 0 0 1 -11.314-11.314l6.637-6.637h-69.463a24.971 24.971 0 0 1 -24.943-24.941v-63.7a8.953 8.953 0 0 0 -8.942-8.944h-80.648a8 8 0 0 1 -8-8.006zm-58.387 15.724 15.724-15.723-15.724-15.723a8 8 0 0 1 11.315-11.315l15.723 15.723 15.722-15.723a8 8 0 0 1 11.315 11.315l-15.724 15.723 15.724 15.723a8 8 0 0 1 -11.315 11.314l-15.723-15.723-15.722 15.723a8 8 0 1 1 -11.315-11.314zm286.592 82.514a33.071 33.071 0 1 0 33.071-33.07 33.108 33.108 0 0 0 -33.071 33.07zm50.141 0a17.071 17.071 0 1 1 -17.07-17.07 17.089 17.089 0 0 1 17.07 17.07zm-107.944-76.288a8 8 0 0 1 8-8h91.456a8 8 0 0 1 0 16h-91.456a8 8 0 0 1 -8-8zm34.8-36.577a8 8 0 0 1 8-8h56.659a8 8 0 0 1 0 16h-56.662a8 8 0 0 1 -8-7.997zm-255.435 139.887h26.577l9.012 15.61a8 8 0 0 0 13.857 0l9.012-15.61h26.577a12.782 12.782 0 0 0 12.771-12.767v-60.884a12.782 12.782 0 0 0 -12.767-12.767h-85.039a12.782 12.782 0 0 0 -12.767 12.767v60.884a12.782 12.782 0 0 0 12.767 12.767zm3.233-70.418h78.573v54.418h-27.966a8 8 0 0 0 -6.928 4l-4.4 7.61-4.392-7.61a8 8 0 0 0 -6.929-4h-27.958zm176.056-88.153 6.3-6.3-6.3-6.3a8 8 0 1 1 11.317-11.315l6.3 6.3 6.3-6.3a8 8 0 1 1 11.312 11.314l-6.3 6.3 6.3 6.3a8 8 0 1 1 -11.312 11.315l-6.3-6.3-6.3 6.3a8 8 0 1 1 -11.312-11.314zm-35.162 193.509-6.3 6.3 6.3 6.3a8 8 0 1 1 -11.315 11.312l-6.3-6.3-6.3 6.3a8 8 0 0 1 -11.315-11.312l6.3-6.3-6.3-6.3a8 8 0 0 1 11.315-11.312l6.3 6.3 6.3-6.3a8 8 0 0 1 11.315 11.312z"/></svg>