<?xml version="1.0" encoding="UTF-8"?>
<svg id="svg8" xmlns="http://www.w3.org/2000/svg" version="1.1" xmlns:svg="http://www.w3.org/2000/svg" viewBox="0 0 512 512">
  <!-- Generator: Adobe Illustrator 29.8.3, SVG Export Plug-In . SVG Version: 2.1.1 Build 3)  -->
  <defs>
    <style>
      .st0 {
        fill: #f60;
      }
    </style>
  </defs>
  <g id="layer1-0">
    <path id="rect6824" class="st0" d="M334.8,20.4c-46.9,12.6-82.6,50.8-92.2,98.4l-.6,1c-14.2-9.9-31.5-15.8-50.1-15.8-43.2,0-78.8,31.1-86.3,72-8.1,5.1-13.9,12.9-17,21.2-3.8,9.7-3.7,19.2-2.8,28.6.7,8,1.8,16.2,2.2,25.4-5.4,1.7-10.3,5.4-13.4,10.8l-52,90c-13.2,22.9-5.6,52.2,17.6,65.5,4.2,2.4,8.5,4.1,13,5.2l-4.6,28.9c-2,12.6,3.4,24,12.4,31.9,8.7,7.8,20.6,12.3,33,12.3,78,0,156.1,0,234.1,0,4.4,0,8-3.6,8-8v-112c0-4.4-3.6-8-8-8h-5.6l-.2-1.1c-1.8-11.6-7.8-20-16-26.4-7.8-6.1-16.8-10.2-26-14.6,0,0,0,0-.1,0l-44.7-20.9c-1-.5-2.1-.7-3.2-.8,0,0,0,0-.1,0v-11.9c10.6-7,19.1-16.7,24.7-28.1h7.4c12.2,0,22.8-6.9,28.2-17.1,30.9,22.7,70.8,30.8,108.9,20.6,68.2-18.3,108.8-88.5,90.5-156.7-13.7-51.1-56.7-86.8-106.1-93.7-4.1-.6-8.3-1-12.5-1.1-3.1-.1-6.3-.1-9.5,0-9.5.3-19.2,1.8-28.8,4.3h0ZM372.5,32.1c3.7.1,7.3.5,10.9,1,43.2,6,80.7,37.1,92.7,82,16,59.8-19.3,121.1-79.2,137.1-41.6,11.1-85.8-2.5-113.9-35.2-.6-.7-1.3-1.3-2.1-1.7l-56.7-32.8,32.8-56.8c.5-.8.8-1.6,1-2.5,8-42.2,39.4-76.1,80.9-87.3,8.4-2.3,16.9-3.5,25.2-3.8,2.8,0,5.6,0,8.3,0h0ZM272,144c0,53,43,96,96,96,53,0,96-43,96-96,0-53-43-96-96-96-53,0-96,43-96,96ZM448,144c0,44.2-35.8,80-80,80-44.2,0-80-35.8-80-80,0-44.2,35.8-80,80-80,44.2,0,80,35.8,80,80h0ZM360,88.1h-8c-13.2,0-24,10.5-24,24v16c0,13.6,10.8,24,24,24h8v32h-8c-4.6,0-8-3.4-8-8,0-10.7-16-10.7-16,0s10.5,23.9,24,24h8c0,4.4,3.6,8,8,8s8-3.6,8-8h8c13.2,0,24-10.4,24-24v-16c0-13.6-10.8-24-24-24h-8v-31.9h8c4.6,0,8,3.4,8,8,0,10.7,16,10.7,16,0,0-13.4-10.8-24-24-24h-8c0-4.4-3.6-8-8-8s-8,3.6-8,8h0ZM352,104.1h8v31.9h-8c-4.6,0-8-3.4-8-8v-16c0-4.3,3.4-8,8-8h0ZM192,120c15.8,0,30.4,5,42.2,13.5l-19.6,33.9c-10.4-9.9-24.2-15.4-38.5-15.4-16.3,0-31.8,7.2-42.4,19.5-3.5-.8-7-1.1-10.3-1,9-29.4,36.1-50.5,68.6-50.5ZM376,152h8c4.6,0,8,3.9,8,8v16c0,4.3-3.4,8-8,8h-8v-32ZM206.3,181.9c-1.8,3.7-.6,8.3,3.1,10.4l4.4,2.5c1.5,4.2,2.2,8.7,2.3,13.1,0,22.1-17.9,40-40,40s-40-17.9-40-40,17.9-40,40-40c11.6,0,22.7,5.1,30.3,13.9ZM176,184c-13.2,0-24,10.8-24,24-.2,10.9,16.2,10.9,16,0,0-4.5,3.5-8,8-8,10.4-.2,10.4-15.8,0-16ZM120,208c0,26.3,18.4,49.1,44.1,54.6-1.1,7.3-6.3,13.4-13.8,15.7-.5-.4-1-.8-1.6-1.1l-41.6-24c-1.1-.6-2.2-1.1-3.3-1.5-.3-10.7-1.6-19.7-2.2-27.3-.7-8.6-.7-15.1,1.8-21.4,2.5-6.3,7.3-12.1,13.2-14.8,2.3-1.1,4.9-1.6,7.8-1.7-2.9,6.8-4.4,14.1-4.4,21.5h0ZM248.1,214.6v18c0,30.8-25.2,55.5-56,55.5s-14.8-1.6-21.4-4.3c5.1-5.5,8.5-12.5,9.5-20.1,29.2-2.1,51.9-26.5,51.9-55.8,0-.9,0-1.8-.2-2.7l16.2,9.3ZM264.1,223.8l8,4.6c2.4,2.7,4.9,5.3,7.4,7.7-1.8,6.8-7.9,11.9-15.4,11.9h-1.7c1.1-5,1.7-10.2,1.7-15.5v-8.7ZM99.2,267.1l41.6,24c4,2.3,5.1,7.2,3,10.9l-52,90c-8.9,15.5-28.4,20.6-43.7,11.7-15.3-8.8-20.6-28.3-11.7-43.8l52-90c1.6-2.8,4.7-4.3,7.9-3.9,1,.1,2.1.5,3.1,1ZM440,271.9c-4.4,0-8,3.6-8,8v208.1c0,4.4,3.6,8,8,8h47.9c4.4,0,8-3.6,8-8v-208.1c0-4.4-3.6-8-8-8h-47.9ZM448,288h32v191.9h-32v-191.9ZM160.7,296.9c9.5,4.6,20.1,7.2,31.4,7.2s16.5-1.5,24-4.1v16.7l-19.3,19.3h-9.4l-28.6-28.6c1.5-3.4,2.1-7,2-10.6h0ZM360,319.9c-4.4,0-8,3.6-8,8v160.1c0,4.4,3.6,8,8,8h47.9c4.4,0,8-3.6,8-8v-160.1c0-4.4-3.6-8-8-8h-47.9ZM233.8,321.7l17.2,8-26.9,27-12.6-12.7,22.4-22.4ZM150.7,322l22.1,22.1-12,12.1-17.3-21.6,7.2-12.5ZM368,335.9h32v144h-32v-144ZM266.4,336.9l6.9,3.2h0c9.3,4.5,17.4,8.4,23,12.7,4.8,3.8,8.2,8.2,9.6,14.9h-25.9c-4.4,0-8,3.6-8,8v104.1h-49l-14.5-101.1,7.5-7.5,2.4,2.4c3.1,3.1,8.2,3.1,11.3,0l36.7-36.7ZM134.9,349.4l18.9,23.6c3,3.7,8.6,4,11.9.6l2.2-2.2,7.6,7.5-14.4,101h-67.2c-8.4,0-16.8-3.4-22.4-8.3-5.3-4.7-8.3-10.9-7.2-17.5l4.8-30.3c14.8-1.6,28.5-9.9,36.5-23.7l29.2-50.7ZM187.3,352.1h9.4l7.9,7.9-12.7,12.7-12.7-12.5,8.1-8.1ZM288,383.9h32v95.9h-32v-95.9ZM189.9,391.6c1.4.4,2.9.4,4.3,0l12.6,88.3h-29.6l12.6-88.3Z" vector-effect="none"/>
  </g>
</svg>