<?xml version="1.0" encoding="UTF-8"?>
<svg id="Warehouse" xmlns="http://www.w3.org/2000/svg" version="1.1" viewBox="0 0 64 64">
  <!-- Generator: Adobe Illustrator 29.8.3, SVG Export Plug-In . SVG Version: 2.1.1 Build 3)  -->
  <defs>
    <style>
      .st0 {
        fill: #f60;
      }
    </style>
  </defs>
  <path class="st0" d="M60,42c-.5,0-1,.5-1,1v17h-5V23c0-.5-.5-1-1-1H11c-.6,0-1,.5-1,1v18c0,.5.4,1,1,1s1-.5,1-1v-17h40v36h-7c-.5,0-1,.5-1,1s.5,1,1,1h15c.5,0,1-.5,1-1v-18c0-.5-.5-1-1-1Z"/>
  <path class="st0" d="M60.5,16.1l-9-4.5c-.5-.2-1.1,0-1.3.4-.2.5,0,1.1.5,1.3l8.5,4.2v21.4c0,.5.5,1,1,1s1-.5,1-1v-22c0-.4-.2-.7-.5-.9h0Z"/>
  <path class="st0" d="M4,24c.6,0,1-.5,1-1v-5.4l27-13.5,14.5,7.3c.5.2,1.1,0,1.3-.4.2-.5,0-1.1-.5-1.3l-15-7.5c-.3-.1-.6-.1-.9,0L3.5,16.1c-.3.2-.5.5-.5.9v6c0,.5.5,1,1,1Z"/>
  <path class="st0" d="M7,60h-2V27c0-.5-.4-1-1-1s-1,.5-1,1v34c0,.5.5,1,1,1h3c.6,0,1-.5,1-1s-.4-1-1-1Z"/>
  <path class="st0" d="M41,48h-13v-3c0-.5-.5-1-1-1H11c-.6,0-1,.5-1,1v16c0,.5.4,1,1,1h30c.5,0,1-.5,1-1v-12c0-.5-.5-1-1-1ZM32,50h2v3h-2v-3ZM18,46h2v3h-2v-3ZM24,49v11h-12v-14h4v4c0,.5.5,1,1,1h4c.5,0,1-.5,1-1v-4h4v2h-1c-.5,0-1,.5-1,1ZM40,60h-14v-10h4v4c0,.5.5,1,1,1h4c.5,0,1-.5,1-1v-4h4v10Z"/>
  <path class="st0" d="M15,26h10c.5,0,1,.5,1,1s-.5,1-1,1h-10c-.6,0-1-.5-1-1s.4-1,1-1Z"/>
  <path class="st0" d="M50,27c0,.5-.5,1-1,1h-20c-.5,0-1-.5-1-1s.5-1,1-1h20c.5,0,1,.5,1,1Z"/>
  <path class="st0" d="M15,32h34c.5,0,1-.5,1-1s-.5-1-1-1H15c-.6,0-1,.5-1,1s.4,1,1,1Z"/>
  <path class="st0" d="M15,34h24c.5,0,1,.5,1,1s-.5,1-1,1H15c-.6,0-1-.5-1-1s.4-1,1-1Z"/>
  <path class="st0" d="M50,35c0,.5-.5,1-1,1h-6c-.5,0-1-.5-1-1s.5-1,1-1h6c.5,0,1,.5,1,1Z"/>
  <path class="st0" d="M39,12h-14c-.5,0-1,.4-1,1v4c0,.5.5,1,1,1h14c.5,0,1-.5,1-1v-4c0-.6-.5-1-1-1ZM38,16h-12v-2h12v2Z"/>
</svg>