<?xml version="1.0" encoding="UTF-8"?>
<svg id="Layer_1" xmlns="http://www.w3.org/2000/svg" version="1.1" viewBox="0 0 512 512">
  <!-- Generator: Adobe Illustrator 29.8.3, SVG Export Plug-In . SVG Version: 2.1.1 Build 3)  -->
  <defs>
    <style>
      .st0 {
        fill: #f60;
      }
    </style>
  </defs>
  <path class="st0" d="M390.8,327.9v-10.3c0-3.7-1.2-6.7-3.7-9.5l-52.1-57c-2.8-3.1-6.2-4.6-10.4-4.6h-27.9c-4.4,0-8,3.6-8,8v73.3c0,2.1.8,4.2,2.3,5.7,1.5,1.5,3.5,2.3,5.7,2.3h86c4.4,0,8-3.6,8-8h0ZM374.8,319.9h-70s0-57.3,0-57.3h19s51,55.8,51,55.8v1.5ZM315.9,353.1c0,4.4-3.6,8-8,8h-10.3c-4.4,0-8-3.6-8-8s3.6-8,8-8h10.3c4.4,0,8,3.6,8,8ZM201.1,272.6c3.1,3.1,3.1,8.2,0,11.3l-57.3,57.3c-1.6,1.6-3.6,2.3-5.7,2.3s-4.1-.8-5.7-2.3c-3.1-3.1-3.1-8.2,0-11.3l57.3-57.3c3.1-3.1,8.2-3.1,11.3,0ZM81.1,289.9c-3.1-3.1-3.1-8.2,0-11.3l57.3-57.3c3.1-3.1,8.2-3.1,11.3,0s3.1,8.2,0,11.3l-57.3,57.3c-1.6,1.6-3.6,2.3-5.7,2.3s-4.1-.8-5.7-2.3h0ZM80.4,342c-3.1-3.1-3.1-8.2,0-11.3l110.2-110.2c3.1-3.1,8.2-3.1,11.3,0s3.1,8.2,0,11.3l-110.2,110.2c-1.6,1.6-3.6,2.3-5.7,2.3s-4.1-.8-5.7-2.3h0ZM502.5,150.5l-57.3-62.7c-6.3-6.9-14.6-10.5-23.9-10.5h-45.2v-15.5c0-13.2-10.8-24-24-24H119.9c-13.2,0-24,10.8-24,24v48.7h-23.5c-13.2,0-24,10.8-24,24v48.7h-23.5c-13.2,0-24,10.8-24,24v210.6c0,13.2,10.8,24,24,24h8.6c3.7,18.6,20.1,32.6,39.8,32.6s36.1-14,39.8-32.6h4.2c3.7,18.6,20.1,32.6,39.8,32.6s36.1-14,39.8-32.6h97.9c3.7,18.6,20.1,32.6,39.8,32.6s36.1-14,39.8-32.6h17.7c13.2,0,24-10.8,24-24v-48.7h23.5c13.2,0,24-10.8,24-24v-48.7h23.5c13.2,0,24-10.8,24-24v-100c0-8.4-2.9-15.7-8.5-21.9h0ZM111.9,61.8c0-4.4,3.6-8,8-8h232.3c4.4,0,8,3.6,8,8v88.1h-31.5v-15.5c0-13.2-10.8-24-24-24H111.9v-48.7ZM64.4,134.4c0-4.4,3.6-8,8-8h232.3c4.4,0,8,3.6,8,8v88.1h-31.5v-15.5c0-13.2-10.8-24-24-24H64.4v-48.7ZM25,199.1h232.3c4.4,0,8,3.6,8,8v156.4s-248.2,0-248.2,0v-156.4c0-4.4,3.6-8,8-8h0ZM73.4,458.2c-13.6,0-24.6-11-24.6-24.6s11-24.6,24.6-24.6,24.6,11,24.6,24.6-11,24.6-24.6,24.6ZM157.2,458.2c-13.6,0-24.6-11-24.6-24.6s11-24.6,24.6-24.6,24.6,11,24.6,24.6-11,24.6-24.6,24.6ZM157.2,393c-19.6,0-36.1,14-39.8,32.6h-4.2c-3.7-18.6-20.1-32.6-39.8-32.6s-36.1,14-39.8,32.6h-8.6c-4.4,0-8-3.6-8-8v-38.2h248.2v46.1h-68.3c-3.7-18.6-20.1-32.6-39.8-32.6ZM334.7,458.2c-13.6,0-24.6-11-24.6-24.6s11-24.6,24.6-24.6,24.6,11,24.6,24.6-11,24.6-24.6,24.6ZM392.1,425.6h-17.7c-3.7-18.6-20.1-32.6-39.8-32.6s-36.1,14-39.8,32.6h-13.7v-187.1s45.2,0,45.2,0c4.9,0,8.8,1.7,12.1,5.3l57.3,62.7c2.9,3.2,4.3,6.7,4.3,11.1v46.7h-11.5c-8.4,0-15.2,6.8-15.2,15.2v17.2c0,8.4,6.8,15.2,15.2,15.2h11.5v5.6c0,4.4-3.6,8-8,8h0ZM352.2,235.2v-45.2h19s51,55.8,51,55.8v1.5h-58.9s-11.1-12.1-11.1-12.1ZM400.1,380.3v15.7h-10.7v-15.7h10.7ZM439.6,353h-23.5v-35.3c0-8.4-2.9-15.7-8.5-21.9l-29.7-32.5h52.3c4.4,0,8-3.6,8-8v-10.3c0-3.7-1.2-6.7-3.7-9.5l-52.1-57c-2.8-3.1-6.2-4.6-10.4-4.6h-27.9c-4.4,0-8,3.6-8,8v42c-2.4-.8-4.9-1.2-7.5-1.4v-56.7h45.2c4.9,0,8.8,1.7,12.1,5.3l57.3,62.7c2.9,3.2,4.3,6.7,4.3,11.1v46.7h-11.5c-8.4,0-15.2,6.8-15.2,15.2v17.2c0,8.4,6.8,15.2,15.2,15.2h11.5v5.6c0,4.4-3.6,8-8,8h0ZM399.6,162.5v-45.2h19s51,55.8,51,55.8v1.5h-58.9l-11.1-12.1ZM447.6,307.7v15.7h-10.7v-15.7h10.7ZM487,280.3h-23.5v-35.3c0-8.4-2.9-15.7-8.5-21.9l-29.7-32.5h52.3c4.4,0,8-3.6,8-8v-10.3c0-3.7-1.2-6.7-3.7-9.5l-52.1-57c-2.8-3.1-6.2-4.6-10.4-4.6h-27.9c-4.4,0-8,3.6-8,8v42c-2.4-.8-4.9-1.2-7.5-1.4v-56.7h45.2c4.9,0,8.8,1.7,12.1,5.3l57.3,62.7c2.9,3.2,4.3,6.7,4.3,11.1v46.7h-11.5c-8.4,0-15.2,6.8-15.2,15.2v17.2c0,8.4,6.8,15.2,15.2,15.2h11.5v5.6c0,4.4-3.6,8-8,8h0ZM495,235.1v15.7h-10.7v-15.7h10.7Z"/>
</svg>