<?xml version="1.0" encoding="UTF-8"?>
<svg id="Layer_1" xmlns="http://www.w3.org/2000/svg" version="1.1" viewBox="0 0 512 512">
  <!-- Generator: Adobe Illustrator 29.8.3, SVG Export Plug-In . SVG Version: 2.1.1 Build 3)  -->
  <defs>
    <style>
      .st0 {
        fill: #f60;
      }
    </style>
  </defs>
  <path class="st0" d="M89.8,155.7c32,0,58-26,58-58s-26-58-58-58-58,26-58,58,26,58,58,58ZM89.8,55.8c23.1,0,42,18.8,42,42s-18.8,42-42,42-42-18.8-42-42,18.8-42,42-42ZM68.7,85.9c0-8.6,5.5-15.9,13.1-18.6v-3.2c0-4.4,3.6-8,8-8s8,3.6,8,8v2.9c4.1,1.2,7.8,3.8,10.4,7.4,2.6,3.6,1.8,8.6-1.8,11.2-3.6,2.6-8.6,1.8-11.2-1.8-.7-1-1.9-1.6-3.1-1.6h-3.7c-2.1,0-3.8,1.7-3.8,3.8s1.7,3.8,3.8,3.8h2.6c10.9,0,19.8,8.9,19.8,19.8s-5.5,15.9-13.1,18.6v3.2c0,4.4-3.6,8-8,8s-8-3.6-8-8v-2.9c-4.1-1.2-7.8-3.8-10.4-7.4-2.6-3.6-1.8-8.6,1.8-11.2,3.6-2.6,8.6-1.8,11.2,1.8.7,1,1.9,1.6,3.1,1.6h3.7c2.1,0,3.8-1.7,3.8-3.8s-1.7-3.8-3.8-3.8h-2.6c-10.9,0-19.8-8.9-19.8-19.8ZM188,63.2c0-4.4,3.6-8,8-8h98.5c4.4,0,8,3.6,8,8s-3.6,8-8,8h-98.5c-4.4,0-8-3.6-8-8ZM188,91.7c0-4.4,3.6-8,8-8h98.5c4.4,0,8,3.6,8,8s-3.6,8-8,8h-98.5c-4.4,0-8-3.6-8-8ZM188,120.3c0-4.4,3.6-8,8-8h143.2c4.4,0,8,3.6,8,8s-3.6,8-8,8h-143.2c-4.4,0-8-3.6-8-8ZM118,382.2h-44.4c-4.4,0-8,3.6-8,8v44.4c0,4.4,3.6,8,8,8h44.4c4.4,0,8-3.6,8-8v-44.4c0-4.4-3.6-8-8-8ZM110,426.6h-28.4v-28.4h28.4v28.4h0ZM320.7,428.1c0,4.4-3.6,8-8,8h-152.5c-4.4,0-8-3.6-8-8s3.6-8,8-8h152.5c4.4,0,8,3.6,8,8ZM320.7,396.6c0,4.4-3.6,8-8,8h-152.5c-4.4,0-8-3.6-8-8s3.6-8,8-8h152.5c4.4,0,8,3.6,8,8ZM118,297.2h-44.4c-4.4,0-8,3.6-8,8v44.4c0,4.4,3.6,8,8,8h44.4c4.4,0,8-3.6,8-8v-44.4c0-4.4-3.6-8-8-8ZM110,341.6h-28.4v-28.4h28.4v28.4h0ZM501.7,416.1l-78-78c-1.9-1.9-4.4-2.9-7.1-2.9s-2.2.2-3.3.6v-41.5c3.7-11.6,5.7-24,5.7-36.8s-2-25.2-5.7-36.8V59.3c0-11-8.9-19.9-19.9-19.9h-43.5l-21.3-21.3c-3.8-3.8-8.7-5.8-14.1-5.8H20.9C9.9,12.3,1,21.2,1,32.2v420.5c0,11,8.9,19.9,19.9,19.9h9.4v7.2c0,11,8.9,19.9,19.9,19.9h343.2c11,0,19.9-8.9,19.9-19.9v-61.9l43.3,43.3c6,6,14,9.3,22.5,9.3s16.5-3.3,22.5-9.3c12.4-12.4,12.4-32.7,0-45.1h0ZM427,364l-22.5,22.5-10.4-10.4,22.5-22.5,10.4,10.4ZM178.3,253.7h-25v-26.3h28.3c-1.9,8.5-3,17.3-3.3,26.3ZM101.7,253.7v-26.3h35.6v26.3h-35.6ZM51.8,253.7v-26.3h33.9v26.3h-33.9ZM137.3,185.1v26.3h-35.6v-26.3h35.6ZM192.1,185.1v13c-2.2,4.3-4.1,8.7-5.8,13.3h-33v-26.3h38.8ZM85.7,211.4h-33.9v-26.3h33.9v26.3h0ZM194.3,257.4c0-12.1,1.8-23.8,5.1-34.8.2-.4.3-.8.4-1.2,4.4-13.6,11.2-26.1,20.4-36.5,18.7-21.3,45.6-32.6,77.7-32.6,58,0,105.1,47.2,105.1,105.1s-47.2,105.1-105.1,105.1-103.6-54.5-103.6-105.1ZM328.8,41l26.5,26.5h-22.6c-2.1,0-3.9-1.7-3.9-3.9v-22.6h0ZM397.3,350.3l-7.2,7.2-10.6-10.6c2.7-2.5,5.3-5.1,7.8-7.8l10,10v1.3ZM393.4,55.4c2.1,0,3.9,1.7,3.9,3.9v128.9c-4-5.7-8.4-11-13.3-16v-90.5c0-5.4-2-10.3-5.8-14.1l-12.3-12.3h27.5ZM17,452.7V32.2c0-2.1,1.7-3.9,3.9-3.9h291.9v35.3c0,11,8.9,19.9,19.9,19.9h35.3v75.2c-19.8-14.1-44-22.4-70.1-22.4s-24.6,1.6-35.8,4.6h-66.1c-4.4,0-8,3.6-8,8s3.6,8,8,8h31.7c-7.1,5-13.6,10.8-19.5,17.5-.1.2-.3.3-.4.5-1-3.3-4-5.7-7.7-5.7H43.8c-4.4,0-8,3.6-8,8v84.6c0,4.4,3.6,8,8,8h135.1c1.1,11.8,3.6,23.2,7.6,33.9h-26.2c-4.4,0-8,3.6-8,8s3.6,8,8,8h33.5c3,5.5,6.4,10.7,10.1,15.5h-43.6c-4.4,0-8,3.6-8,8s3.6,8,8,8h58.8c20.8,17.9,47.8,27.4,78.9,27.4s49.4-8,69-21.7l1.1,1.1v94.8c0,2.1-1.7,3.9-3.9,3.9H20.9c-2.1,0-3.9-1.7-3.9-3.9ZM397.3,479.8c0,2.1-1.7,3.9-3.9,3.9H50.2c-2.1,0-3.9-1.7-3.9-3.9v-7.2h317.8c11,0,19.9-8.9,19.9-19.9v-64.1l13.3,13.3v77.9h0ZM490.4,449.8c-3,3-7,4.6-11.2,4.6s-8.3-1.6-11.2-4.6l-52-52,22.5-22.5,52,52c6.2,6.2,6.2,16.3,0,22.5ZM389.3,257.4c0-50.4-41-91.4-91.4-91.4s-91.4,41-91.4,91.4,41,91.4,91.4,91.4,91.4-41,91.4-91.4ZM222.5,257.4c0-41.6,33.8-75.4,75.4-75.4s75.4,33.8,75.4,75.4-33.8,75.4-75.4,75.4-75.4-33.8-75.4-75.4ZM332.6,217.1l-58.7,93.5c-1.5,2.4-4.1,3.7-6.8,3.7s-2.9-.4-4.2-1.2c-3.7-2.4-4.9-7.3-2.5-11l58.7-93.5c2.4-3.7,7.3-4.9,11-2.5,3.7,2.4,4.9,7.3,2.5,11ZM300.5,289.8c0,15.1,10.6,27.3,23.7,27.3s23.7-12.2,23.7-27.3-10.6-27.3-23.7-27.3-23.7,12.2-23.7,27.3h0ZM331.8,289.8c0,6-3.6,11.3-7.7,11.3s-7.7-5.3-7.7-11.3,3.6-11.3,7.7-11.3,7.7,5.3,7.7,11.3ZM296.4,224.4c0-15.1-10.6-27.3-23.7-27.3s-23.7,12.2-23.7,27.3,10.6,27.3,23.7,27.3,23.7-12.2,23.7-27.3ZM265,224.4c0-6,3.6-11.3,7.7-11.3s7.7,5.3,7.7,11.3-3.6,11.3-7.7,11.3-7.7-5.3-7.7-11.3Z"/>
</svg>