<?xml version="1.0" encoding="UTF-8"?>
<svg id="Capa_1" xmlns="http://www.w3.org/2000/svg" version="1.1" viewBox="0 0 512 512">
  <!-- Generator: Adobe Illustrator 29.8.3, SVG Export Plug-In . SVG Version: 2.1.1 Build 3)  -->
  <defs>
    <style>
      .st0 {
        fill: none;
        stroke: #f60;
        stroke-linecap: round;
        stroke-linejoin: round;
        stroke-width: 15px;
      }
    </style>
  </defs>
  <path class="st0" d="M162.6,504.5h274.1c18.7,0,35.7-7.6,47.9-19.9,12.3-12.3,19.9-29.2,19.9-47.9,0-37.6-30.6-67.8-67.8-67.8H75.3c-37.4,0-67.8,30.4-67.8,67.8s30.3,67.8,67.8,67.8h52.4"/>
  <line class="st0" x1="384.5" y1="67.7" x2="301.2" y2="67.7"/>
  <path class="st0" d="M210.8,67.7H37.6c-16.6,0-30.1-13.5-30.1-30.1S21,7.5,37.6,7.5h436.8c16.6,0,30.1,13.5,30.1,30.1s-13.5,30.1-30.1,30.1h-54.9"/>
  <path class="st0" d="M82.4,256h-13.4c-11.1,0-20.1,9-20.1,20.1v98.2"/>
  <path class="st0" d="M161.9,369v-92.9c0-11.1-9-20.1-20.1-20.1h-13.4"/>
  <path class="st0" d="M128.4,256v33.1c0,4.9-5.6,7.8-9.6,4.9l-8.6-6.3c-2.9-2.1-6.8-2.1-9.7,0l-8.6,6.3c-4,2.9-9.6,0-9.6-4.9v-33.1h46Z"/>
  <path class="st0" d="M233,256h-13.4c-11.1,0-20.1,9-20.1,20.1v92.9"/>
  <path class="st0" d="M312.5,369v-92.9c0-11.1-9-20.1-20.1-20.1h-13.4"/>
  <path class="st0" d="M279,256v33.1c0,4.9-5.6,7.8-9.6,4.9l-8.6-6.3c-2.9-2.1-6.8-2.1-9.7,0l-8.6,6.3c-4,2.9-9.6,0-9.6-4.9v-33.1h46Z"/>
  <path class="st0" d="M383.6,256h-13.4c-11.1,0-20.1,9-20.1,20.1v92.9"/>
  <path class="st0" d="M463.1,374.3v-98.2c0-11.1-9-20.1-20.1-20.1h-13.4"/>
  <path class="st0" d="M429.6,256v33.1c0,4.9-5.6,7.8-9.6,4.9l-8.6-6.3c-2.9-2.1-6.8-2.1-9.7,0l-8.6,6.3c-4,2.9-9.6,0-9.6-4.9v-33.1h46Z"/>
  <circle class="st0" cx="75.3" cy="436.7" r="22.6"/>
  <circle class="st0" cx="165.6" cy="436.7" r="22.6"/>
  <circle class="st0" cx="256" cy="436.7" r="22.6"/>
  <circle class="st0" cx="346.4" cy="436.7" r="22.6"/>
  <circle class="st0" cx="436.7" cy="436.7" r="22.6"/>
  <path class="st0" d="M240.9,97.9h-14.1c-8.9,0-16.1-7.2-16.1-16.1v-14.1h90.4v14.1c0,8.9-7.2,16.1-16.1,16.1h-14.1"/>
  <path class="st0" d="M271.1,165.6c0,8.3-6.7,15.1-15.1,15.1s-15.1-6.7-15.1-15.1v-67.8h30.1c0,6.8,0,61,0,67.8Z"/>
  <path class="st0" d="M271.1,128l59.1,16.1c14,3.8,23.8,16.6,23.8,31.1v35.6c0,8.3-6.7,15.1-15.1,15.1s-15.1-6.7-15.1-15.1v-37.7l-52.7-14.4"/>
  <path class="st0" d="M240.9,158.8l-52.7,14.4v37.7c0,8.3-6.7,15.1-15.1,15.1s-15.1-6.7-15.1-15.1v-35.6c0-14.5,9.7-27.3,23.8-31.1l59.1-16.1"/>
</svg>