<?xml version="1.0" encoding="UTF-8"?>
<svg id="Layer_1" xmlns="http://www.w3.org/2000/svg" version="1.1" viewBox="0 0 512 512">
  <!-- Generator: Adobe Illustrator 29.8.3, SVG Export Plug-In . SVG Version: 2.1.1 Build 3)  -->
  <defs>
    <style>
      .st0 {
        fill: #f60;
      }
    </style>
  </defs>
  <path class="st0" d="M480.6,317.9h-37.3c-4.1,0-7.5,3.4-7.5,7.5h0v9.8h-40.5l-21.2-20.2c-3.9-4.5-13.1-12.2-26.8-4.8v-45.4l33.6,13.5c1.7.7,3.5.7,5.2,0l88.4-35.5c2.7-1.1,4.4-3.6,4.4-6.5v-113.7c0-2.9-1.7-5.4-4.4-6.5l-88.4-35.5c-1.7-.7-3.5-.7-5.2,0l-33.6,13.5v-30.1c0-14-11.4-25.4-25.5-25.4h-16.7v-13.4c0-14-11.4-25.4-25.5-25.4H49.3c-14,0-25.4,11.4-25.5,25.4v337.4c0,14,11.4,25.4,25.5,25.4h60.9l36.7,36.7c1.3,1.3,3.1,2.1,4.9,2h27.2v40.2c0,4.1,3.4,7.5,7.5,7.5h37.3c4.1,0,7.5-3.4,7.5-7.5v-13.7h28.4c6.7,4.9,30.4,30.6,38.4,39.3,3,3.2,5.1,5.5,6.3,6.8,8.5,9.4,16.9,12.9,23.9,12.9,4.4,0,8.7-1.4,12.2-4.1,3.3-2.6,5.6-6.1,6.8-10.1,1.4.1,2.7.1,4.1,0,8.1-.7,15-5.2,18-11.7.5-1.1.9-2.2,1.2-3.3,4.6,0,9.1-1.4,12.9-4,3.6-2.5,6.4-6.1,8-10.2,6.7,1.2,13.6-.4,19.2-4.3,4-2.8,7.2-6.7,9.1-11.2h16.1v13.7c0,4.1,3.4,7.5,7.5,7.5h37.3c4.1,0,7.5-3.4,7.5-7.5h0v-141.6c0-4.1-3.4-7.5-7.5-7.5h0ZM376.5,261.4l-74.4-29.9v-98.9l74.4,30.1v98.6ZM464.9,231.5l-74.4,29.9v-98.6l32.8-13.2v25.6c.2,3.9,3.3,7,7.1,7h0c3.9,0,7-3.2,7-7,0,0,0,0,0,0l-.2-31.2,27.7-11.2v98.8ZM383.5,94.6l69.4,27.8-22.9,9.2-69.3-27.9,22.7-9.1ZM342,111.3l69.4,28-27.9,11.2-69.3-28.1,27.8-11.1ZM49.3,374c-6.3,0-11.4-5.1-11.5-11.4V25.2c0-6.3,5.1-11.4,11.5-11.4h230.4c6.3,0,11.4,5.1,11.5,11.4v13.4H91.5c-14,0-25.4,11.4-25.5,25.4v276.9c0,1.9.7,3.6,2.1,5l28.2,28.2h-46.9ZM144.9,402.9l-26.7-26.7c0-.1-.2-.2-.3-.3l-28-28h55v55ZM216.4,459.5h-22.3v-126.6h22.3v126.6ZM223.9,317.9h-37.3c-4.1,0-7.5,3.4-7.5,7.5v87.4h-20.2v-71.9c0-3.9-3.1-7-7-7h-71.9V64c0-6.3,5.1-11.4,11.5-11.4h230.4c6.3,0,11.4,5.1,11.5,11.4v35.7l-40.9,16.4c-2.7,1.1-4.4,3.6-4.4,6.5v113.7c0,2.9,1.7,5.4,4.4,6.5l40.9,16.4v63l-13,13h-88.9v-9.8c0-4.1-3.4-7.5-7.5-7.5h0ZM402,452.2c-1.3.9-8.2,5.2-13.4-2.3h0c0-.1-.2-.2-.2-.3,0,0,0,0,0,0l-13-18.4c-2.3-3.4-7-4.4-10.4-2.1-3.4,2.3-4.4,7-2.1,10.4,0,.1.2.2.2.3l13,18.4c0,0,.1.1.2.2,0,0,0,0,0,0h0c3.1,4.4,0,7.3-1.4,8.3-1.2.8-5.3,3.2-8.5-1.4,0,0,0,0,0,0,0,0,0-.1-.1-.2l-13.1-18.5c-2.3-3.4-7-4.4-10.4-2.1-3.4,2.3-4.4,7-2.1,10.4,0,.1.2.2.2.3l13.1,18.5s0,0,0,0c0,0,0,.1.1.2h0c1,1.5,2.6,4.1,1.7,6-.7,1.6-3.1,2.9-5.7,3.1-1.2.1-4.2.1-5.9-2.2,0-.1-.2-.2-.3-.4l-13-18.4c-2.5-3.3-7.2-4-10.5-1.5-3.2,2.4-4,6.9-1.8,10.2l13.2,18.6s0,0,.1.1c1.7,2.7,1,5.5-.7,6.8-2.7,2.1-8.7.8-15.8-7.1,0,0-.1-.1-.2-.2-1.1-1.2-3.4-3.6-6.2-6.7-38.7-42-43.1-44.4-48-44.1h-29.8v-88.1h73.9l-6.7,6.7c-4.6,4.6-7.1,10.9-6.8,17.5.2,6.4,3.1,12.5,7.9,16.7,13.7,11.8,30.4,2.6,43.9-4.8,6.6-3.6,14.1-7.7,18.6-7.8l42.5,60.2c5.3,7.6-1.8,12.9-2.6,13.5h0ZM420.8,438.3c-.8-3-2.1-5.8-3.9-8.3l-43.3-61.3c-2.1-2.9-5.3-4.8-8.9-5.1-9.2-1.1-18.6,4-28.5,9.5-12.7,7-21.4,11.2-26.8,6.6-1.7-1.5-2.7-3.6-2.8-5.9-.1-2.3.8-4.6,2.4-6.3l19.5-19.5s0,0,0,0l22.2-22.2c7.6-6,10.1-3.1,12-.8.2.2.4.4.6.6l23.6,22.5c1.4,1.3,3.2,2.1,5.2,2.1h43.6v88.1h-15ZM473.1,459.5h-22.3v-126.6h22.3v126.6ZM249.8,290.4H114.4c-3.9,0-7-3.1-7-7s3.1-7,7-7h135.4c3.9,0,7,3.1,7,7s-3.1,7-7,7h0ZM107.4,240.6c0-3.9,3.1-7,7-7h135.4c3.9,0,7,3.1,7,7s-3.1,7-7,7H114.4c-3.9,0-7-3.1-7-7h0ZM107.4,197.7c0-3.9,3.1-7,7-7h135.4c3.9,0,7,3.1,7,7s-3.1,7-7,7H114.4c-3.9,0-7-3.1-7-7h0ZM107.4,154.9c0-3.9,3.1-7,7-7h102.6c3.9,0,7,3.1,7,7s-3.1,7-7,7h-102.6c-3.9,0-7-3.1-7-7h0ZM107.4,112c0-3.9,3.1-7,7-7h102.6c3.9,0,7,3.1,7,7s-3.1,7-7,7h-102.6c-3.9,0-7-3.1-7-7h0Z"/>
</svg>