<?xml version="1.0" encoding="UTF-8"?>
<svg id="Layer_5" xmlns="http://www.w3.org/2000/svg" version="1.1" viewBox="0 0 512 512">
  <!-- Generator: Adobe Illustrator 29.8.3, SVG Export Plug-In . SVG Version: 2.1.1 Build 3)  -->
  <defs>
    <style>
      .st0 {
        fill: #f60;
      }
    </style>
  </defs>
  <path class="st0" d="M480,184h-144c-13.2,0-24,10.8-24,24v96c0,13.2,10.8,24,24,24h40v16h-16v16h40v40c0,4.4-3.6,8-8,8h-48.4c-3.3-36.1-28.7-66.8-63.6-76.6v-11.4c0-13.2-10.8-24-24-24s-24,10.8-24,24v11.4c-34.9,9.9-60.3,40.6-63.6,76.6h-56.4c-4.4,0-8-3.6-8-8v-8.4c44.8-4.1,80-41.8,80-87.6s-39.5-88-88-88S8,255.5,8,304s35.2,83.5,80,87.6v8.4c0,13.2,10.8,24,24,24h56.4c4.1,44.8,41.8,80,87.6,80s83.5-35.2,87.6-80h48.4c13.2,0,24-10.8,24-24v-40h40v-16h-16v-16h40c13.2,0,24-10.8,24-24v-96c0-13.2-10.8-24-24-24ZM24,304c0-39.7,32.3-72,72-72s72,32.3,72,72-32.3,72-72,72-72-32.3-72-72ZM256,424c13.2,0,24-10.8,24-24v-15.9c9.9,7.4,16,19.2,16,31.9,0,22.1-17.9,40-40,40s-40-17.9-40-40,6.1-24.5,16-31.9v15.9c0,13.2,10.8,24,24,24ZM248,320c0-4.4,3.6-8,8-8s8,3.6,8,8v80c0,4.4-3.6,8-8,8s-8-3.6-8-8v-80ZM256,488c-39.7,0-72-32.3-72-72s19.7-57.8,48-67.8v17.4c-19.3,9.2-32,28.7-32,50.4,0,30.9,25.1,56,56,56s56-25.1,56-56-12.7-41.2-32-50.4v-17.4c28.3,10,48,37.1,48,67.8s-32.3,72-72,72ZM336,200h144c4.4,0,8,3.6,8,8v72h-160v-72c0-4.4,3.6-8,8-8ZM424,344h-32v-16h32v16ZM480,312h-144c-4.4,0-8-3.6-8-8v-8h160v8c0,4.4-3.6,8-8,8Z"/>
  <path class="st0" d="M32,200h80c13.2,0,24-10.8,24-24v-64h80c4.4,0,8,3.6,8,8v104h16v-104c0-13.2-10.8-24-24-24h-80V32c0-13.2-10.8-24-24-24H32c-13.2,0-24,10.8-24,24v144c0,13.2,10.8,24,24,24ZM112,184H32c-4.4,0-8-3.6-8-8v-8h96v8c0,4.4-3.6,8-8,8ZM24,152V56h96v96H24ZM32,24h80c4.4,0,8,3.6,8,8v8H24v-8c0-4.4,3.6-8,8-8Z"/>
  <path class="st0" d="M120,336c0-13.2-10.8-24-24-24s-24,10.8-24,24,10.8,24,24,24,24-10.8,24-24ZM88,336c0-4.4,3.6-8,8-8s8,3.6,8,8-3.6,8-8,8-8-3.6-8-8Z"/>
  <path class="st0" d="M124.3,307.7l11.3-11.3c-21.8-21.8-57.4-21.8-79.2,0l11.3,11.3c15.6-15.6,41-15.6,56.6,0Z"/>
  <path class="st0" d="M146.9,285.1l11.3-11.3c-34.3-34.3-90.1-34.3-124.5,0l11.3,11.3c28.1-28.1,73.8-28.1,101.8,0Z"/>
  <path class="st0" d="M224,272h16v16h-16v-16Z"/>
  <path class="st0" d="M224,240h16v16h-16v-16Z"/>
  <path class="st0" d="M272,272h16v16h-16v-16Z"/>
  <path class="st0" d="M272,240h16v16h-16v-16Z"/>
  <path class="st0" d="M288,104c0-4.4,3.6-8,8-8h48.4c4,40.4,38.2,72,79.6,72s80-35.9,80-80S468.1,8,424,8s-75.6,31.6-79.6,72h-48.4c-13.2,0-24,10.8-24,24v120h16v-120ZM424,24c2.5,0,7.9,8.2,11.7,24h-23.4c3.8-15.8,9.2-24,11.7-24h0ZM438.6,64c.6,4.9,1.1,10.2,1.3,16h-31.7c.2-5.8.7-11.1,1.3-16h29.1ZM424,152c-2.5,0-7.9-8.2-11.7-24h23.4c-3.8,15.8-9.2,24-11.7,24h0ZM409.4,112c-.6-4.9-1.1-10.2-1.3-16h31.7c-.2,5.8-.7,11.1-1.3,16h-29.1ZM455.8,96h31.6c-.7,5.6-2.1,11-4.2,16h-28.6c.6-5.3,1-10.6,1.2-16ZM487.4,80h-31.6c-.2-5.4-.6-10.7-1.2-16h28.6c2,5,3.5,10.4,4.2,16ZM392.2,80h-31.6c.7-5.6,2.1-11,4.2-16h28.6c-.6,5.3-1,10.6-1.2,16ZM392.2,96c.2,5.4.6,10.7,1.2,16h-28.6c-2-5-3.5-10.4-4.2-16h31.6ZM374.1,128h21.8c1.5,7.4,3.5,14.2,6,20-11-4.1-20.6-11-27.8-20ZM446.1,148c2.5-5.8,4.5-12.6,6-20h21.8c-7.2,9-16.8,15.9-27.8,20ZM473.9,48h-21.8c-1.5-7.4-3.5-14.2-6-20,11,4.1,20.6,11,27.8,20ZM401.9,28c-2.5,5.8-4.5,12.6-6,20h-21.8c7.2-9,16.8-15.9,27.8-20Z"/>
</svg>