<svg style="fill: #ff6600;" height="512pt" viewBox="0 0 512 512" width="512pt" xmlns="http://www.w3.org/2000/svg"><path d="m426.667969 170.667969c-47.128907 0-85.335938-38.207031-85.335938-85.335938 0-47.128906 38.207031-85.332031 85.335938-85.332031 47.128906 0 85.332031 38.203125 85.332031 85.332031-.054688 47.109375-38.226562 85.28125-85.332031 85.335938zm0-149.335938c-35.347657 0-64 28.65625-64 64 0 35.347657 28.652343 64 64 64 35.34375 0 64-28.652343 64-64-.035157-35.332031-28.667969-63.964843-64-64zm0 0"/><path d="m458.667969 330.667969h-64c-5.890625 0-10.667969-4.777344-10.667969-10.667969v-170.667969h21.332031v160h42.667969v-160h21.332031v170.667969c0 5.890625-4.773437 10.667969-10.664062 10.667969zm0 0"/><path d="m426.667969 117.332031c-17.675781 0-32-14.324219-32-32 0-17.671875 14.324219-32 32-32 17.671875 0 32 14.328125 32 32 0 17.675781-14.328125 32-32 32zm0-42.664062c-5.890625 0-10.667969 4.773437-10.667969 10.664062s4.777344 10.667969 10.667969 10.667969 10.664062-4.777344 10.664062-10.667969-4.773437-10.664062-10.664062-10.664062zm0 0"/><path d="m416 106.667969h21.332031v53.332031h-21.332031zm0 0"/><path d="m394.667969 192h64v21.332031h-64zm0 0"/><path d="m426.667969 362.667969c-2.828125 0-5.542969-1.125-7.542969-3.125l-32-32 15.082031-15.085938 24.460938 24.460938 24.457031-24.460938 15.082031 15.085938-32 32c-2 2-4.710937 3.125-7.539062 3.125zm0 0"/><path d="m352 512h-341.332031c-5.890625 0-10.667969-4.777344-10.667969-10.667969v-341.332031c0-4.3125 2.601562-8.203125 6.585938-9.851562 3.984374-1.652344 8.570312-.738282 11.621093 2.308593l341.335938 341.335938c3.046875 3.050781 3.960937 7.636719 2.308593 11.621093-1.648437 3.984376-5.539062 6.585938-9.851562 6.585938zm-330.667969-21.332031h304.917969l-304.917969-304.917969zm0 0"/><path d="m224 458.667969h-160c-5.890625 0-10.667969-4.777344-10.667969-10.667969v-149.332031c.003907-4.246094 2.523438-8.089844 6.417969-9.78125 3.890625-1.691407 8.417969-.914063 11.523438 1.984375l160 149.332031c3.203124 2.988281 4.253906 7.632813 2.648437 11.707031-1.609375 4.074219-5.542969 6.753906-9.921875 6.757813zm-149.332031-21.335938h122.269531l-122.269531-114.132812zm0 0"/><path d="m64 149.332031h-21.332031v-117.332031c0-17.671875 14.324219-32 32-32h277.332031v21.332031h-277.332031c-5.890625 0-10.667969 4.777344-10.667969 10.667969zm0 0"/><path d="m480 437.332031h-160v-21.332031h160c5.890625 0 10.667969-4.777344 10.667969-10.667969v-245.332031h21.332031v245.332031c0 17.675781-14.328125 32-32 32zm0 0"/><path d="m53.332031 53.332031h266.667969v21.335938h-266.667969zm0 0"/><path d="m128 181.332031c-23.5625 0-42.667969-19.101562-42.667969-42.664062 0-23.566407 19.105469-42.667969 42.667969-42.667969s42.667969 19.101562 42.667969 42.667969c0 23.5625-19.105469 42.664062-42.667969 42.664062zm0-64c-11.78125 0-21.332031 9.550781-21.332031 21.335938 0 11.78125 9.550781 21.332031 21.332031 21.332031s21.332031-9.550781 21.332031-21.332031c0-11.785157-9.550781-21.335938-21.332031-21.335938zm0 0"/><path d="m277.332031 181.332031c-23.5625 0-42.664062-19.101562-42.664062-42.664062 0-23.566407 19.101562-42.667969 42.664062-42.667969 23.566407 0 42.667969 19.101562 42.667969 42.667969 0 23.5625-19.101562 42.664062-42.667969 42.664062zm0-64c-11.78125 0-21.332031 9.550781-21.332031 21.335938 0 11.78125 9.550781 21.332031 21.332031 21.332031 11.785157 0 21.335938-9.550781 21.335938-21.332031 0-11.785157-9.550781-21.335938-21.335938-21.335938zm0 0"/><path d="m426.667969 362.667969h-128c-17.675781 0-32-14.328125-32-32v-42.667969c0-5.890625-4.777344-10.667969-10.667969-10.667969h-32c-17.671875 0-32-14.324219-32-32v-32c0-5.890625 4.777344-10.664062 10.667969-10.664062h53.332031c5.890625 0 10.667969-4.777344 10.667969-10.667969v-21.332031h21.332031v21.332031c0 17.671875-14.328125 32-32 32h-42.667969v21.332031c0 5.890625 4.777344 10.667969 10.667969 10.667969h32c17.671875 0 32 14.328125 32 32v42.667969c0 5.890625 4.777344 10.664062 10.667969 10.664062h128zm0 0"/><path d="m202.667969 224h-53.335938c-17.671875 0-32-14.328125-32-32v-21.332031h21.335938v21.332031c0 5.890625 4.773437 10.667969 10.664062 10.667969h53.335938zm0 0"/></svg>