<svg style="fill: #ff6600;" id="Layer_1" enable-background="new 0 0 512 512" height="512" viewBox="0 0 512 512" width="512" xmlns="http://www.w3.org/2000/svg"><path d="m390.089 366.928v-299.767c0-3.866-3.134-7-7-7h-78.82v-12.627c0-3.866-3.134-7-7-7h-24.999c-7.668-18.806-26.24-31.534-46.877-31.534s-39.209 12.728-46.877 31.534h-24.998c-3.866 0-7 3.134-7 7v12.626h-78.822c-3.866 0-7 3.134-7 7v421.68c0 3.866 3.134 7 7 7h285.02c9.154 4.572 19.464 7.16 30.373 7.16 37.613 0 68.215-30.602 68.215-68.215 0-35.25-26.878-64.341-61.215-67.857zm-229.571-312.394h22.971c3.121 0 5.865-2.067 6.728-5.067 4.476-15.583 18.942-26.467 35.176-26.467s30.699 10.884 35.177 26.467c.862 3 3.606 5.067 6.728 5.067h22.972v34.502h-129.752zm-85.822 19.627h71.821v21.876c0 3.866 3.134 7 7 7h143.751c3.866 0 7-3.134 7-7v-21.876h71.82v292.767c-34.337 3.516-61.215 32.607-61.215 67.857 0 18.233 7.205 34.804 18.898 47.055h-259.075zm308.393 414.839c-29.895 0-54.215-24.32-54.215-54.215s24.32-54.215 54.215-54.215 54.215 24.32 54.215 54.215-24.321 54.215-54.215 54.215zm39.44-71.778-42.414 44.756c-1.366 1.441-3.218 2.186-5.084 2.186-1.409 0-2.825-.424-4.048-1.292l-28.164-19.987c-3.153-2.237-3.896-6.606-1.657-9.759 2.236-3.154 6.606-3.896 9.759-1.657l23.211 16.472 38.235-40.347c2.66-2.808 7.089-2.925 9.896-.267 2.806 2.658 2.925 7.089.266 9.895zm-314.004-225.339h154.229c3.866 0 7-3.134 7-7v-37.42c0-3.866-3.134-7-7-7h-154.229c-3.866 0-7 3.134-7 7v37.42c0 3.866 3.134 7 7 7zm7-37.421h140.229v23.42h-140.229zm154.23 179.22v-91.977c0-3.866-3.134-7-7-7h-23.996c-3.866 0-7 3.134-7 7v91.977h-12.732v-72.65c0-3.866-3.134-7-7-7h-23.995c-3.866 0-7 3.134-7 7v72.65h-12.732v-42.587c0-3.866-3.134-7-7-7h-23.996c-3.866 0-7 3.134-7 7v42.587h-6.048c-3.866 0-7 3.134-7 7s3.134 7 7 7h202.274c3.866 0 7-3.134 7-7s-3.134-7-7-7h-6.048v-105.398c0-3.866-3.134-7-7-7h-23.996c-3.866 0-7 3.134-7 7v105.398zm-23.996-84.977h9.996v84.977h-9.996zm-50.728 19.326h9.995v65.65h-9.995zm-50.728 30.064h9.996v35.587h-9.996zm152.183-62.811h9.996v98.398h-9.996zm-4.691 145.401c0 3.866-3.134 7-7 7h-176.27c-3.866 0-7-3.134-7-7s3.134-7 7-7h176.27c3.866 0 7 3.133 7 7zm0 34.395c0 3.866-3.134 7-7 7h-176.27c-3.866 0-7-3.134-7-7s3.134-7 7-7h176.27c3.866 0 7 3.134 7 7z"/></svg>