<svg version="1.1" id="Capa_1" xmlns="http://www.w3.org/2000/svg" xmlns:xlink="http://www.w3.org/1999/xlink" x="0px" y="0px" viewBox="0 0 510 510" style="enable-background:new 0 0 510 510;" xml:space="preserve">
<g>
	<g id="XMLID_16_">
		<path id="XMLID_19_" style="fill:#FFFFFF;" d="M354.986,67.528c-0.679-31.523-26.487-57.106-58.013-57.523&#10;&#9;&#9;&#9;c-12.006-0.159-23.196,3.28-32.565,9.307c-5.716,3.676-13.1,3.676-18.815,0c-9.37-6.026-20.561-9.465-32.565-9.307&#10;&#9;&#9;&#9;c-31.32,0.414-57.047,25.675-57.999,56.985c-0.341,11.231,2.467,21.782,7.607,30.835c11.046,19.452,18.176,40.877,20.402,63.135&#10;&#9;&#9;&#9;l3.998,27.038c2.581,17.452,12.818,32.842,27.915,41.968l1.951,1.179c8.565,3.333,17.946-2.423,18.857-11.568l5.902-59.318&#10;&#9;&#9;&#9;c0.88-8.357,7.825-14.938,16.229-14.964c8.383-0.026,15.421,6.294,16.298,14.625l5.933,59.609&#10;&#9;&#9;&#9;c0.911,9.16,10.32,14.915,18.89,11.555l0,0c15.999-9.768,26.423-26.54,28.094-45.21l1.965-21.932&#10;&#9;&#9;&#9;c1.184-23.671,7.967-46.627,19.087-67.556C352.713,87.81,355.21,77.97,354.986,67.528z"/>
		<path style="fill:#CFDDFE;" d="M254.744,144.585c-29.764,0-57.539-8.499-81.049-23.188c4.788,12.706,7.983,25.978,9.342,39.564&#10;&#9;&#9;&#9;l3.998,27.038c2.581,17.452,12.818,32.842,27.915,41.968l1.951,1.179c8.565,3.333,17.946-2.423,18.857-11.568l5.902-59.318&#10;&#9;&#9;&#9;c0.88-8.357,7.826-14.938,16.229-14.964c8.383-0.026,15.421,6.294,16.298,14.625l5.933,59.609&#10;&#9;&#9;&#9;c0.911,9.16,10.32,14.915,18.89,11.555c15.999-9.768,26.422-26.54,28.094-45.21l1.965-21.932&#10;&#9;&#9;&#9;c0.75-14.99,3.751-29.692,8.671-43.775C313.824,135.614,285.332,144.585,254.744,144.585z"/>
		<rect id="XMLID_21_" x="10" y="260" style="fill:#00CDD2;" width="89.878" height="240"/>
		<path style="fill:#F06B5B;" d="M490.62,278.92c-4.14-3.1-9.09-4.69-14.07-4.69c-3.759,0-7.52,0.9-10.97,2.73l-137.355,79.234&#10;&#9;&#9;&#9;l-0.012,0c7.053-4.42,11.747-12.257,11.747-21.195c0-13.807-11.193-25-25-25h-75.081c-42.666-24.38-95.618-21.701-135.606,6.861&#10;&#9;&#9;&#9;L99.878,320v140l59.052-30.04L319.959,420L488.48,317.87C502.87,309.36,504,288.96,490.62,278.92z"/>
		<path style="fill:#CF5246;" d="M157.646,294.984c-18.887,3.003-37.192,10.319-53.374,21.877L99.878,320v140l59.052-30.04&#10;&#9;&#9;&#9;l60.953-3.77C188.885,389.189,166.997,344.308,157.646,294.984z"/>
	</g>
	<g>
		<g id="XMLID_00000026156047280730984860000002109901260069107622_">
			
				<path id="XMLID_00000093141148974886507760000008477355559882441903_" style="fill:none;stroke:#002678;stroke-width:20;stroke-linecap:round;stroke-linejoin:round;stroke-miterlimit:10;" d="&#10;&#9;&#9;&#9;&#9;M354.986,67.528c-0.679-31.523-26.487-57.106-58.013-57.523c-12.006-0.159-23.196,3.28-32.565,9.307&#10;&#9;&#9;&#9;&#9;c-5.716,3.676-13.1,3.676-18.815,0c-9.37-6.026-20.561-9.465-32.565-9.307c-31.32,0.414-57.047,25.675-57.999,56.985&#10;&#9;&#9;&#9;&#9;c-0.341,11.231,2.467,21.782,7.607,30.835c11.046,19.452,18.176,40.877,20.402,63.135l3.998,27.038&#10;&#9;&#9;&#9;&#9;c2.581,17.452,12.818,32.842,27.915,41.968l1.951,1.179c8.565,3.333,17.946-2.423,18.857-11.568l5.902-59.318&#10;&#9;&#9;&#9;&#9;c0.88-8.357,7.825-14.938,16.229-14.964c8.383-0.026,15.421,6.294,16.298,14.625l5.933,59.609&#10;&#9;&#9;&#9;&#9;c0.911,9.16,10.32,14.915,18.89,11.555l0,0c15.999-9.768,26.423-26.54,28.094-45.21l1.965-21.932&#10;&#9;&#9;&#9;&#9;c1.184-23.671,7.967-46.627,19.087-67.556C352.713,87.81,355.21,77.97,354.986,67.528z"/>
			
				<rect id="XMLID_00000089537023892375216150000004083824517813254823_" x="10" y="260" style="fill:none;stroke:#002678;stroke-width:20;stroke-linecap:round;stroke-linejoin:round;stroke-miterlimit:10;" width="89.878" height="240"/>
			
				<path id="XMLID_00000062892557658949777480000002760837420539586983_" style="fill:none;stroke:#002678;stroke-width:20;stroke-linecap:round;stroke-linejoin:round;stroke-miterlimit:10;" d="&#10;&#9;&#9;&#9;&#9;M99.878,320l4.394-3.139c39.987-28.562,92.94-31.241,135.606-6.861l0,0h75.081c13.807,0,25.001,11.193,25.001,25l0,0&#10;&#9;&#9;&#9;&#9;c0,13.808-11.194,25-25.001,25h-75.081"/>
			
				<path id="XMLID_00000145744943591779256660000014668488335861444792_" style="fill:none;stroke:#002678;stroke-width:20;stroke-linecap:round;stroke-linejoin:round;stroke-miterlimit:10;" d="&#10;&#9;&#9;&#9;&#9;M328.224,356.194L465.58,276.96c3.45-1.83,7.211-2.73,10.97-2.73c4.981,0,9.93,1.59,14.07,4.69&#10;&#9;&#9;&#9;&#9;c13.38,10.04,12.25,30.44-2.14,38.95L319.959,420L158.93,429.96L99.878,460"/>
		</g>
		
			<line style="fill:none;stroke:#002678;stroke-width:20;stroke-linecap:round;stroke-linejoin:round;stroke-miterlimit:10;" x1="54.94" y1="460.164" x2="54.94" y2="460.164"/>
	</g>
</g>
<g>
</g>
<g>
</g>
<g>
</g>
<g>
</g>
<g>
</g>
<g>
</g>
<g>
</g>
<g>
</g>
<g>
</g>
<g>
</g>
<g>
</g>
<g>
</g>
<g>
</g>
<g>
</g>
<g>
</g>
</svg>