<svg version="1.1" id="Capa_1" xmlns="http://www.w3.org/2000/svg" xmlns:xlink="http://www.w3.org/1999/xlink" x="0px" y="0px" viewBox="0 0 510 510" style="enable-background:new 0 0 510 510;" xml:space="preserve">
<g>
	<g>
		<g>
			<path style="fill:#B1D952;" d="M129.06,435.738L77,500l-52.06-64.262c-21.589-26.649-19.567-65.299,4.684-89.55l0,0&#10;&#9;&#9;&#9;&#9;c26.165-26.165,68.587-26.165,94.752,0l0,0C148.627,370.439,150.649,409.089,129.06,435.738z"/>
			<path style="fill:#91B706;" d="M52.812,346.067c0-5.304,0.507-10.486,1.431-15.523c-8.984,3.237-17.418,8.444-24.618,15.644h0&#10;&#9;&#9;&#9;&#9;c-24.251,24.251-26.273,62.901-4.684,89.551L77,500l52.06-64.262c1.139-1.406,2.197-2.852,3.205-4.32&#10;&#9;&#9;&#9;&#9;C87.862,428.266,52.812,391.271,52.812,346.067z"/>
			<circle style="fill:#FFFFFF;" cx="77" cy="393.515" r="22"/>
		</g>
		<g>
			<path style="fill:#B1D952;" d="M485.06,435.738L433,500l-52.06-64.262c-21.589-26.649-19.567-65.299,4.684-89.55l0,0&#10;&#9;&#9;&#9;&#9;c26.165-26.165,68.587-26.165,94.752,0l0,0C504.627,370.439,506.649,409.089,485.06,435.738z"/>
			<path style="fill:#91B706;" d="M408.812,346.067c0-5.304,0.507-10.486,1.431-15.523c-8.984,3.237-17.418,8.444-24.618,15.644h0&#10;&#9;&#9;&#9;&#9;c-24.251,24.251-26.273,62.901-4.684,89.551L433,500l52.06-64.262c1.139-1.406,2.197-2.852,3.205-4.32&#10;&#9;&#9;&#9;&#9;C443.862,428.266,408.812,391.271,408.812,346.067z"/>
			<circle style="fill:#FFFFFF;" cx="433" cy="393.515" r="22"/>
		</g>
		<g>
			<g>
				<rect x="56.057" y="42.277" style="fill:#67CCD1;" width="241.521" height="212.74"/>
				<path style="fill:#27A2CC;" d="M142.925,42.277H56.057v212.74h241.521v-41.82C216.706,193.534,154.583,125.989,142.925,42.277z"/>
			</g>
			<g>
				<path style="fill:#FD7DA0;" d="M430.202,155.73h-16.611l-25.555-74.166h-90.458v173.454h156.365v-75.546&#10;&#9;&#9;&#9;&#9;&#9;C453.943,166.359,443.314,155.73,430.202,155.73z"/>
				<polygon style="fill:#FFFFFF;" points="341.578,81.564 341.578,155.73 413.591,155.73 388.035,81.564 &#9;&#9;&#9;&#9;"/>
			</g>
			<g>
				<circle style="fill:#D2DCFD;" cx="142.317" cy="255.017" r="36"/>
				<circle style="fill:#D2DCFD;" cx="373.995" cy="255.017" r="36"/>
			</g>
			<g>
				<rect x="110.817" y="10" style="fill:#FDCB50;" width="132" height="132"/>
				<path style="fill:#FD8F01;" d="M140.936,13.703c0-1.238,0.025-2.47,0.047-3.703h-30.165v132h75.149&#10;&#9;&#9;&#9;&#9;&#9;C157.796,106.853,140.936,62.25,140.936,13.703z"/>
				<rect x="154.817" y="10" style="fill:#FFFFFF;" width="44" height="44"/>
			</g>
		</g>
	</g>
	<g>
		<g>
			<path style="fill:none;stroke:#052A75;stroke-width:20;stroke-linejoin:round;stroke-miterlimit:10;" d="M129.06,435.738L77,500&#10;&#9;&#9;&#9;&#9;l-52.06-64.262c-21.589-26.649-19.567-65.299,4.684-89.55l0,0c26.165-26.165,68.587-26.165,94.752,0l0,0&#10;&#9;&#9;&#9;&#9;C148.627,370.439,150.649,409.089,129.06,435.738z"/>
			<path style="fill:none;stroke:#052A75;stroke-width:20;stroke-linejoin:round;stroke-miterlimit:10;" d="M485.06,435.738L433,500&#10;&#9;&#9;&#9;&#9;l-52.06-64.262c-21.589-26.649-19.567-65.299,4.684-89.55l0,0c26.165-26.165,68.587-26.165,94.752,0l0,0&#10;&#9;&#9;&#9;&#9;C504.627,370.439,506.649,409.089,485.06,435.738z"/>
		</g>
		<g>
			
				<line style="fill:none;stroke:#93B2F4;stroke-width:20;stroke-linecap:round;stroke-linejoin:round;stroke-miterlimit:10;" x1="10" y1="500" x2="20.373" y2="500"/>
			
				<line style="fill:none;stroke:#93B2F4;stroke-width:20;stroke-linecap:round;stroke-linejoin:round;stroke-miterlimit:10;" x1="144" y1="500" x2="133.627" y2="500"/>
			
				<line style="fill:none;stroke:#93B2F4;stroke-width:20;stroke-linecap:round;stroke-linejoin:round;stroke-miterlimit:10;" x1="500" y1="500" x2="489.627" y2="500"/>
			
				<line style="fill:none;stroke:#93B2F4;stroke-width:20;stroke-linecap:round;stroke-linejoin:round;stroke-miterlimit:10;" x1="366" y1="500" x2="376.373" y2="500"/>
			
				<line style="fill:none;stroke:#93B2F4;stroke-width:20;stroke-linecap:round;stroke-linejoin:round;stroke-miterlimit:10;" x1="307.907" y1="500" x2="318.28" y2="500"/>
			
				<line style="fill:none;stroke:#93B2F4;stroke-width:20;stroke-linecap:round;stroke-linejoin:round;stroke-miterlimit:10;" x1="249.813" y1="500" x2="260.187" y2="500"/>
			
				<line style="fill:none;stroke:#93B2F4;stroke-width:20;stroke-linecap:round;stroke-linejoin:round;stroke-miterlimit:10;" x1="191.72" y1="500" x2="202.093" y2="500"/>
		</g>
		<g>
			<g>
				
					<line style="fill:none;stroke:#052A75;stroke-width:20;stroke-linejoin:round;stroke-miterlimit:10;" x1="178.317" y1="255.127" x2="337.995" y2="255.127"/>
				<polyline style="fill:none;stroke:#052A75;stroke-width:20;stroke-linejoin:round;stroke-miterlimit:10;" points="&#10;&#9;&#9;&#9;&#9;&#9;109.647,42.277 56.057,42.277 56.057,255.017 106.317,255.017 &#9;&#9;&#9;&#9;"/>
				<polyline style="fill:none;stroke:#052A75;stroke-width:20;stroke-linejoin:round;stroke-miterlimit:10;" points="&#10;&#9;&#9;&#9;&#9;&#9;297.578,255.017 297.578,42.277 246.203,42.277 &#9;&#9;&#9;&#9;"/>
			</g>
			<g>
				<path style="fill:none;stroke:#052A75;stroke-width:20;stroke-linejoin:round;stroke-miterlimit:10;" d="M409.995,255.017&#10;&#9;&#9;&#9;&#9;&#9;h43.948v-75.546c0-13.112-10.629-23.741-23.741-23.741h-16.611l-25.555-74.166h-90.458"/>
				<polyline style="fill:none;stroke:#052A75;stroke-width:20;stroke-linejoin:round;stroke-miterlimit:10;" points="&#10;&#9;&#9;&#9;&#9;&#9;341.578,81.564 341.578,155.73 413.591,155.73 &#9;&#9;&#9;&#9;"/>
			</g>
			<g>
				
					<circle style="fill:none;stroke:#052A75;stroke-width:20;stroke-linejoin:round;stroke-miterlimit:10;" cx="142.317" cy="255.017" r="36"/>
				
					<circle style="fill:none;stroke:#052A75;stroke-width:20;stroke-linejoin:round;stroke-miterlimit:10;" cx="373.995" cy="255.017" r="36"/>
			</g>
			
				<rect x="110.817" y="10" style="fill:none;stroke:#052A75;stroke-width:20;stroke-linejoin:round;stroke-miterlimit:10;" width="132" height="132"/>
		</g>
	</g>
</g>
<g>
</g>
<g>
</g>
<g>
</g>
<g>
</g>
<g>
</g>
<g>
</g>
<g>
</g>
<g>
</g>
<g>
</g>
<g>
</g>
<g>
</g>
<g>
</g>
<g>
</g>
<g>
</g>
<g>
</g>
</svg>