<svg version="1.1" id="Capa_1" xmlns="http://www.w3.org/2000/svg" xmlns:xlink="http://www.w3.org/1999/xlink" x="0px" y="0px" viewBox="0 0 512 512" style="enable-background:new 0 0 512 512;" xml:space="preserve">
<g>
	<g>
		<path style="fill:#B1D952;" d="M226.599,13.676l36.686,9.631L294.02,10l30.739,13.308L355.497,10l30.741,13.308L416.977,10&#10;&#9;&#9;&#9;l30.744,13.308l36.733-9.556l0.152,0.049c21.566,106.388,23.078,212.776,4.534,319.165c-2.423,13.899-14.478,24.055-28.59,24.055&#10;&#9;&#9;&#9;H226.446c-22.319-116.156-24.053-230.698,0-343.219L226.599,13.676z"/>
		<path style="fill:#91B706;" d="M338.325,357.021H226.45c-19.961-103.852-23.455-206.429-6.788-307.41&#10;&#9;&#9;&#9;c4.85,0.211,9.669,1.295,14.218,3.263l18.053,7.822l23.355-6.075c3.324-0.863,6.717-1.295,10.111-1.295&#10;&#9;&#9;&#9;c4.207,0,8.394,0.653,12.43,1.968l0.151,0.05c13.776,4.478,24.058,16.025,26.94,30.213&#10;&#9;&#9;&#9;C343.164,175.563,347.643,266.603,338.325,357.021z"/>
		<path style="fill:#FFFFFF;" d="M498.586,109.304H329.408l-117.256-19.57c2.791-31.99,7.521-44.25,14.298-75.929l0.151-0.131&#10;&#9;&#9;&#9;l36.689,9.629L294.025,10l30.735,13.304L355.495,10l30.745,13.304L416.974,10l30.745,13.304l36.739-9.549l0.151,0.05&#10;&#9;&#9;&#9;C491.065,45.635,495.724,77.474,498.586,109.304z"/>
		<path style="fill:#D2DCFD;" d="M329.408,109.304H212.152c1.737-19.961,4.237-39.862,7.51-59.693&#10;&#9;&#9;&#9;c4.85,0.211,9.669,1.295,14.218,3.263l18.053,7.822l23.355-6.075c3.324-0.863,6.717-1.295,10.111-1.295&#10;&#9;&#9;&#9;c4.207,0,8.394,0.653,12.43,1.968l0.151,0.05c13.776,4.478,24.058,16.025,26.94,30.213&#10;&#9;&#9;&#9;C326.527,93.469,328.023,101.381,329.408,109.304z"/>
		<path style="fill:#91B706;" d="M460.622,357.021H343.596c3.555-29.128,28.436-51.76,58.508-51.76&#10;&#9;&#9;&#9;C432.176,305.26,457.067,327.892,460.622,357.021z"/>
		<path style="fill:#FD6050;" d="M421.648,234.633c0,29.872-29.604,57.461-66.122,57.461s-66.122-27.589-66.122-57.461&#10;&#9;&#9;&#9;c0-66.092,66.122-43.409,66.122-43.409S421.648,168.541,421.648,234.633z"/>
		<path style="fill:#DB4B86;" d="M342.672,290.932c-30.363-5.512-53.267-30.022-53.267-56.299c0-45.053,30.725-48.849,50.284-46.7&#10;&#9;&#9;&#9;C342.672,222.243,343.666,256.602,342.672,290.932z"/>
		<path style="fill:#B1D952;" d="M27.548,93.411l36.686,9.631l30.735-13.308l30.739,13.308l30.739-13.308l30.741,13.308&#10;&#9;&#9;&#9;l30.74-13.308l30.744,13.308l36.733-9.556l0.152,0.049c21.566,106.388,23.078,212.776,4.534,319.165&#10;&#9;&#9;&#9;c-2.423,13.899-14.478,24.055-28.59,24.055H51.655c-14.183,0-26.277-10.257-28.621-24.242&#10;&#9;&#9;&#9;C4.96,304.656,5.018,198.221,27.396,93.536L27.548,93.411z"/>
		<path style="fill:#67CCD1;" d="M27.548,93.411l36.686,9.631l30.735-13.308l30.739,13.308l30.739-13.308l30.741,13.308&#10;&#9;&#9;&#9;l30.74-13.308l30.744,13.308l36.733-9.556l0.152,0.049c21.566,106.388,23.078,212.776,4.534,319.165&#10;&#9;&#9;&#9;c-2.423,13.899-14.478,24.055-28.59,24.055H51.655c-14.183,0-26.277-10.257-28.621-24.242&#10;&#9;&#9;&#9;C4.96,304.656,5.018,198.221,27.396,93.536L27.548,93.411z"/>
		<path style="fill:#27A2CC;" d="M297.7,359.44c-1.978,17.752-4.518,35.504-7.611,53.257c-2.42,13.906-14.479,24.058-28.586,24.058&#10;&#9;&#9;&#9;H125.52c3.093-32.392,30.474-57.815,63.669-57.815c16.206,0,31.016,6.055,42.302,16.035&#10;&#9;&#9;&#9;C246.692,374.401,270.64,360.776,297.7,359.44z"/>
		<path style="fill:#FFFFFF;" d="M299.527,189.038H13.103c2.791-31.99,7.521-63.819,14.298-95.498l0.151-0.131l36.679,9.629&#10;&#9;&#9;&#9;l30.735-13.304l30.745,13.304l30.735-13.304l30.745,13.304l30.735-13.304l30.745,13.304l36.729-9.549l0.161,0.05&#10;&#9;&#9;&#9;C292.006,125.369,296.665,157.198,299.527,189.038z"/>
		<path style="fill:#FDCB50;" d="M223.742,311.195c0,17.386-13.178,31.695-30.082,33.469c-1.956,0.205-3.529,1.779-3.734,3.736&#10;&#9;&#9;&#9;c-1.773,16.916-16.073,30.103-33.446,30.103c-17.38,0-31.68-13.187-33.453-30.103c-0.205-1.958-1.778-3.531-3.734-3.736&#10;&#9;&#9;&#9;c-16.905-1.775-30.083-16.084-30.083-33.469c0-17.392,13.178-31.702,30.083-33.477c1.956-0.205,3.529-1.779,3.734-3.736&#10;&#9;&#9;&#9;c1.773-16.916,16.073-30.103,33.453-30.103c17.374,0,31.673,13.187,33.446,30.103c0.205,1.958,1.778,3.531,3.734,3.736&#10;&#9;&#9;&#9;C210.564,279.493,223.742,293.803,223.742,311.195z"/>
		<ellipse style="fill:#FDCB50;" cx="475" cy="478.203" rx="23.802" ry="23.797"/>
		<ellipse style="fill:#FDE0BE;" cx="402.107" cy="364.198" rx="23.802" ry="23.797"/>
		<ellipse style="fill:#FDCB50;" cx="189.185" cy="442.9" rx="23.802" ry="23.797"/>
		<path style="fill:#FDE0BE;" d="M252.951,474.786l1.631-30.427c1.396-26.041,23.845-46.206,49.887-44.811l0.374,0.02&#10;&#9;&#9;&#9;c21.673,1.161,38.455,19.844,37.293,41.517l-0.019,0.354c-1.396,26.041-23.845,46.206-49.887,44.811l-30.447-1.632&#10;&#9;&#9;&#9;C256.651,484.344,252.676,479.919,252.951,474.786z"/>
	</g>
	<g>
		<g>
			
				<line style="fill:#606060;stroke:#27A2CC;stroke-width:20;stroke-linecap:round;stroke-linejoin:round;stroke-miterlimit:10;" x1="355.526" y1="191.086" x2="335.587" y2="169.08"/>
			
				<line style="fill:#606060;stroke:#27A2CC;stroke-width:20;stroke-linecap:round;stroke-linejoin:round;stroke-miterlimit:10;" x1="355.526" y1="191.086" x2="375.466" y2="169.08"/>
			<path style="fill:none;stroke:#052A75;stroke-width:20;stroke-linecap:round;stroke-linejoin:round;stroke-miterlimit:10;" d="&#10;&#9;&#9;&#9;&#9;M302.949,196.736c19.345-16.913,52.578-5.512,52.578-5.512s66.122-22.683,66.122,43.409c0,29.872-29.604,57.461-66.122,57.461&#10;&#9;&#9;&#9;&#9;c-20.365,0-38.58-8.58-50.71-21.352"/>
		</g>
		<g>
			<path style="fill:none;stroke:#052A75;stroke-width:20;stroke-linecap:round;stroke-linejoin:round;stroke-miterlimit:10;" d="&#10;&#9;&#9;&#9;&#9;M214.245,88.488c2.852-24.991,6.9-49.888,12.202-74.687"/>
			
				<line style="fill:none;stroke:#052A75;stroke-width:20;stroke-linecap:round;stroke-linejoin:round;stroke-miterlimit:10;" x1="378.305" y1="357.02" x2="302.95" y2="357.02"/>
			<path style="fill:none;stroke:#052A75;stroke-width:20;stroke-linecap:round;stroke-linejoin:round;stroke-miterlimit:10;" d="&#10;&#9;&#9;&#9;&#9;M484.606,13.801c21.566,106.388,23.078,212.776,4.534,319.165c-2.423,13.899-14.478,24.055-28.59,24.055h-34.642"/>
			
				<polyline style="fill:none;stroke:#052A75;stroke-width:20;stroke-linecap:round;stroke-linejoin:round;stroke-miterlimit:10;" points="&#10;&#9;&#9;&#9;&#9;226.599,13.676 263.285,23.308 294.02,10 324.758,23.308 355.497,10 386.238,23.308 416.977,10 447.721,23.308 484.454,13.752 &#10;&#9;&#9;&#9;&#9;&#9;&#9;&#9;"/>
		</g>
		
			<line style="fill:#606060;stroke:#27A2CC;stroke-width:20;stroke-linecap:round;stroke-linejoin:round;stroke-miterlimit:10;" x1="330.808" y1="65.888" x2="380.243" y2="65.888"/>
		<g>
			<g>
				<path style="fill:none;stroke:#052A75;stroke-width:20;stroke-linecap:round;stroke-linejoin:round;stroke-miterlimit:10;" d="&#10;&#9;&#9;&#9;&#9;&#9;M165.383,436.755H51.655c-14.183,0-26.277-10.257-28.621-24.242C4.96,304.656,5.018,198.221,27.396,93.536"/>
				
					<line style="fill:none;stroke:#052A75;stroke-width:20;stroke-linecap:round;stroke-linejoin:round;stroke-miterlimit:10;" x1="251.837" y1="436.755" x2="214.245" y2="436.755"/>
				<path style="fill:none;stroke:#052A75;stroke-width:20;stroke-linecap:round;stroke-linejoin:round;stroke-miterlimit:10;" d="&#10;&#9;&#9;&#9;&#9;&#9;M285.556,93.536c20.542,101.336,22.889,202.672,7.04,304.008"/>
				
					<polyline style="fill:none;stroke:#052A75;stroke-width:20;stroke-linecap:round;stroke-linejoin:round;stroke-miterlimit:10;" points="&#10;&#9;&#9;&#9;&#9;&#9;27.548,93.411 64.234,103.043 94.969,89.735 125.708,103.043 156.447,89.735 187.187,103.043 217.927,89.735 248.671,103.043 &#10;&#9;&#9;&#9;&#9;&#9;285.403,93.487 &#9;&#9;&#9;&#9;"/>
			</g>
			
				<line style="fill:#606060;stroke:#27A2CC;stroke-width:20;stroke-linecap:round;stroke-linejoin:round;stroke-miterlimit:10;" x1="131.757" y1="145.623" x2="181.192" y2="145.623"/>
			<path style="fill:none;stroke:#052A75;stroke-width:20;stroke-linecap:round;stroke-linejoin:round;stroke-miterlimit:10;" d="&#10;&#9;&#9;&#9;&#9;M223.742,311.195c0,17.386-13.178,31.695-30.082,33.469c-1.956,0.205-3.529,1.779-3.734,3.736&#10;&#9;&#9;&#9;&#9;c-1.773,16.916-16.073,30.103-33.446,30.103c-17.38,0-31.68-13.187-33.453-30.103c-0.205-1.958-1.778-3.531-3.734-3.736&#10;&#9;&#9;&#9;&#9;c-16.905-1.775-30.083-16.084-30.083-33.469c0-17.392,13.178-31.702,30.083-33.477c1.956-0.205,3.529-1.779,3.734-3.736&#10;&#9;&#9;&#9;&#9;c1.773-16.916,16.073-30.103,33.453-30.103c17.374,0,31.673,13.187,33.446,30.103c0.205,1.958,1.778,3.531,3.734,3.736&#10;&#9;&#9;&#9;&#9;C210.564,279.493,223.742,293.803,223.742,311.195z"/>
			
				<line style="fill:none;stroke:#FFFFFF;stroke-width:20;stroke-linecap:round;stroke-linejoin:round;stroke-miterlimit:10;" x1="156.476" y1="311.191" x2="156.476" y2="311.191"/>
		</g>
		
			<ellipse style="fill:none;stroke:#052A75;stroke-width:20;stroke-linecap:round;stroke-linejoin:round;stroke-miterlimit:10;" cx="475" cy="478.203" rx="23.802" ry="23.797"/>
		
			<ellipse style="fill:none;stroke:#052A75;stroke-width:20;stroke-linecap:round;stroke-linejoin:round;stroke-miterlimit:10;" cx="402.107" cy="364.198" rx="23.802" ry="23.797"/>
		
			<ellipse style="fill:none;stroke:#052A75;stroke-width:20;stroke-linecap:round;stroke-linejoin:round;stroke-miterlimit:10;" cx="189.185" cy="442.9" rx="23.802" ry="23.797"/>
		<g>
			
				<line style="fill:none;stroke:#F7B073;stroke-width:20;stroke-linecap:round;stroke-linejoin:round;stroke-miterlimit:10;" x1="255.698" y1="480.543" x2="286.42" y2="453.229"/>
			<path style="fill:none;stroke:#052A75;stroke-width:20;stroke-linecap:round;stroke-linejoin:round;stroke-miterlimit:10;" d="&#10;&#9;&#9;&#9;&#9;M252.951,474.786l1.631-30.427c1.396-26.041,23.845-46.206,49.887-44.811l0.374,0.02c21.673,1.161,38.455,19.844,37.293,41.517&#10;&#9;&#9;&#9;&#9;l-0.019,0.354c-1.396,26.041-23.845,46.206-49.887,44.811l-30.447-1.632C256.651,484.344,252.676,479.919,252.951,474.786z"/>
		</g>
		
			<line style="fill:none;stroke:#F7B073;stroke-width:20;stroke-linecap:round;stroke-linejoin:round;stroke-miterlimit:10;" x1="399.448" y1="451.395" x2="399.448" y2="451.395"/>
		
			<line style="fill:none;stroke:#F7B073;stroke-width:20;stroke-linecap:round;stroke-linejoin:round;stroke-miterlimit:10;" x1="113.367" y1="498.988" x2="113.367" y2="498.988"/>
	</g>
</g>
<g>
</g>
<g>
</g>
<g>
</g>
<g>
</g>
<g>
</g>
<g>
</g>
<g>
</g>
<g>
</g>
<g>
</g>
<g>
</g>
<g>
</g>
<g>
</g>
<g>
</g>
<g>
</g>
<g>
</g>
</svg>