<?xml version="1.0" encoding="UTF-8"?>
<svg id="Layer_5" xmlns="http://www.w3.org/2000/svg" version="1.1" viewBox="0 0 512 512">
  <!-- Generator: Adobe Illustrator 29.8.3, SVG Export Plug-In . SVG Version: 2.1.1 Build 3)  -->
  <defs>
    <style>
      .st0 {
        fill: #f60;
      }
    </style>
  </defs>
  <path class="st0" d="M467.8,357.2c-1.4-4.5-3.3-9-5.6-13.5l-2-3.9,10-16.8-25.1-25.1-16.8,10-3.9-2c-4.5-2.3-9-4.2-13.5-5.6l-4.2-1.3-4.8-18.8h-35.6l-4.8,18.8-4.2,1.3c-4.5,1.4-9,3.3-13.5,5.6l-3.9,2-16.8-10-14.8,14.8c12.1,6,22.6,15,30.3,26.3,11.6-11.7,27.7-19,45.5-19,35.3,0,64,28.7,64,64s-28.7,64-64,64-33.9-7.3-45.5-19c-7.8,11.3-18.2,20.3-30.3,26.3l14.8,14.8,16.8-10,3.9,2c4.5,2.3,9,4.2,13.5,5.6l4.2,1.3,4.8,18.8h35.6l4.8-18.8,4.2-1.3c4.5-1.4,9-3.3,13.5-5.6l3.9-2,16.8,10,25.1-25.1-10-16.8,2-3.9c2.3-4.5,4.2-9,5.6-13.5l1.4-4.2,18.8-4.8v-35.6l-18.8-4.8-1.4-4.2Z"/>
  <circle class="st0" cx="384" cy="384" r="32"/>
  <path class="st0" d="M328,416v-8h-39.2c-9.3,0-16.8-7.5-16.8-16.8v-14.4c0-9.3,7.5-16.8,16.8-16.8h39.2v-8c-11.1-19.1-32.3-32-56-32s-39.8,10.2-51.4,26c-5.1,6.9-12.4,11.8-20.6,13.4v-175.4h-48v176h-64v-64h-48v64c-13.3,0-24,10.7-24,24s10.7,24,24,24h154.1c10.6,0,20.1,5.5,26.4,14,11.6,15.8,30.3,26,51.4,26s44.9-12.9,56-32Z"/>
  <path class="st0" d="M280,304.5c4,.4,7.9,1,11.8,2l28.7-28.7,7.5,4.5v-34.2h-48v56.5Z"/>
  <path class="st0" d="M400,264h14.2l3.7,14.6,17.4,6.4,12.1-7.2.5.5v-118.3h-48v104Z"/>
  <path class="st0" d="M64,272c30.9,0,56-25.1,56-56s-4.6-25.4-12.4-35l31-33.2c10.5,7.6,23.4,12.2,37.4,12.2,21,0,39.7-10.2,51.3-26l24.5,13.8c-2.4,6.3-3.8,13.1-3.8,20.2,0,30.9,25.1,56,56,56s56-25.1,56-56-2.9-20-7.8-28.3l27.2-21.8c11.5,11.2,27.2,18.1,44.5,18.1,35.3,0,64-28.7,64-64s-28.7-64-64-64-64,28.7-64,64,3.5,23.6,9.5,33.4l-27.3,21.8c-10-9.4-23.4-15.2-38.2-15.2s-34.1,8.6-44.3,21.9l-24.4-13.8c3.1-7.5,4.8-15.6,4.8-24.1,0-35.3-28.7-64-64-64s-64,28.7-64,64,5.6,29.8,14.9,40.9l-30.9,33.1c-9.1-6.3-20.1-10.1-31.9-10.1-30.9,0-56,25.1-56,56s25.1,56,56,56ZM424,48c13.3,0,24,10.7,24,24s-10.7,24-24,24-24-10.7-24-24,10.7-24,24-24ZM304,152c8.8,0,16,7.2,16,16s-7.2,16-16,16-16-7.2-16-16,7.2-16,16-16ZM176,72c13.3,0,24,10.7,24,24s-10.7,24-24,24-24-10.7-24-24,10.7-24,24-24ZM64,200c8.8,0,16,7.2,16,16s-7.2,16-16,16-16-7.2-16-16,7.2-16,16-16Z"/>
</svg>