<?xml version="1.0" encoding="UTF-8"?>
<svg id="_x33_0" xmlns="http://www.w3.org/2000/svg" version="1.1" viewBox="0 0 512 512">
  <!-- Generator: Adobe Illustrator 29.8.3, SVG Export Plug-In . SVG Version: 2.1.1 Build 3)  -->
  <defs>
    <style>
      .st0 {
        fill: #f60;
      }
    </style>
  </defs>
  <path class="st0" d="M434.1,158.4c16.4,29.8,25,63.2,25,97.6s-.2,6.4-.4,9.6c3-.5,6.1-.8,9.2-.8s5.7.3,8.4.6c.1-3.2.4-6.3.4-9.5,0-40.2-11-79.4-31.6-113.6-2.6,4.5-5.4,8.9-8.7,13.1l-2.3,3Z"/>
  <path class="st0" d="M171,71.6c25.9-12,53.5-18.2,82.3-18.6,2.2-6.1,4.9-12,8.1-17.6-34.2-.8-69,6.5-100,21.2,3.9,4.5,7.1,9.5,9.6,14.9h0Z"/>
  <path class="st0" d="M80.4,154.2l-11.4-15.2c-20.4,32.6-31.8,69.6-33.3,108.1h17.7c1.4-32.9,10.6-64.6,27.1-92.9Z"/>
  <path class="st0" d="M394.8,404.1l4.8,19.3c13.2-11.3,24.9-24,35-38l-11.1-14.8c-8.4,12.2-17.9,23.5-28.7,33.6h0Z"/>
  <path class="st0" d="M247.2,264.8h-70.6v67.2l-44.1-22.1-44.1,22.1v-67.2H17.7v176.6h23.7c9.9-20.8,31.2-35.3,55.7-35.3s45.8,14.5,55.7,35.3h94.3v-176.6Z"/>
  <path class="st0" d="M158.2,459c.4,2.9.7,5.8.7,8.8s-.3,5.9-.7,8.8h89.7c-.4-2.9-.7-5.8-.7-8.8s.3-5.9.7-8.8h-89.7Z"/>
  <path class="st0" d="M372.7,388.4h-54.9c-9.7,0-17.7-7.9-17.7-17.7v-17.7c0-9.7,7.9-17.7,17.7-17.7h41.7l-2.7-11c-1-3.9-4.5-6.7-8.6-6.7h-83.3v106.9c11.2-11.5,26.9-18.6,44.1-18.6,24.6,0,45.8,14.5,55.7,35.3h21.2l-13.2-53Z"/>
  <path class="st0" d="M0,459v17.7h36c-.4-2.9-.7-5.8-.7-8.8s.3-5.9.7-8.8H0Z"/>
  <path class="st0" d="M97.1,423.7c-24.3,0-44.1,19.8-44.1,44.1s19.8,44.1,44.1,44.1,44.1-19.8,44.1-44.1-19.8-44.1-44.1-44.1ZM97.1,485.5c-9.8,0-17.7-7.9-17.7-17.7s7.9-17.7,17.7-17.7,17.7,7.9,17.7,17.7-7.9,17.7-17.7,17.7Z"/>
  <path class="st0" d="M105.9,303.5l26.5-13.2,26.5,13.2v-38.7h-53v38.7Z"/>
  <path class="st0" d="M309,423.7c-24.3,0-44.1,19.8-44.1,44.1s19.8,44.1,44.1,44.1,44.1-19.8,44.1-44.1-19.8-44.1-44.1-44.1ZM309,485.5c-9.8,0-17.7-7.9-17.7-17.7s7.9-17.7,17.7-17.7,17.7,7.9,17.7,17.7-7.9,17.7-17.7,17.7Z"/>
  <path class="st0" d="M317.8,370.8h50.5l-4.4-17.7h-46.1v17.7Z"/>
  <path class="st0" d="M370.8,467.9c0,3-.3,5.9-.7,8.8h18.4v-17.7h-18.4c.4,2.9.7,5.8.7,8.8Z"/>
  <path class="st0" d="M114.8,170.7l35.3-47.1c5.7-7.6,8.8-17,8.8-26.5,0-24.3-19.8-44.1-44.1-44.1s-44.1,19.8-44.1,44.1,3.1,18.9,8.8,26.5l35.3,47.1ZM114.8,79.4c9.8,0,17.7,7.9,17.7,17.7s-7.9,17.7-17.7,17.7-17.7-7.9-17.7-17.7,7.9-17.7,17.7-17.7Z"/>
  <path class="st0" d="M467.9,282.5c-24.3,0-44.1,19.8-44.1,44.1s3.1,18.9,8.8,26.5l35.3,47.1,35.3-47.1c5.7-7.6,8.8-17,8.8-26.5,0-24.3-19.8-44.1-44.1-44.1ZM467.9,344.3c-9.8,0-17.7-7.9-17.7-17.7s7.9-17.7,17.7-17.7,17.7,7.9,17.7,17.7-7.9,17.7-17.7,17.7Z"/>
  <path class="st0" d="M353.1,232.9l69.4-88.4c12.2-15.5,18.9-34.8,18.9-54.5v-1.7C441.4,39.6,401.8,0,353.1,0s-88.3,39.6-88.3,88.3v1.7c0,19.7,6.7,39.1,18.9,54.5l69.4,88.4ZM353.1,26.5c34.1,0,61.8,27.7,61.8,61.8s-27.7,61.8-61.8,61.8-61.8-27.7-61.8-61.8,27.7-61.8,61.8-61.8Z"/>
  <path class="st0" d="M194.2,211.9h17.7v17.7h-17.7v-17.7Z"/>
  <path class="st0" d="M229.5,211.9h17.7v17.7h-17.7v-17.7Z"/>
  <path class="st0" d="M264.8,211.9h17.7v17.7h-17.7v-17.7Z"/>
</svg>