<?xml version="1.0" encoding="UTF-8"?>
<svg id="Layer_1" xmlns="http://www.w3.org/2000/svg" version="1.1" viewBox="0 0 128 128">
  <!-- Generator: Adobe Illustrator 29.8.3, SVG Export Plug-In . SVG Version: 2.1.1 Build 3)  -->
  <defs>
    <style>
      .st0 {
        fill: #f60;
      }
    </style>
  </defs>
  <path class="st0" d="M89,74c0,3.9,3.1,7,7,7s7-3.1,7-7-3.1-7-7-7c-3.9,0-7,3.1-7,7Z"/>
  <path class="st0" d="M104.5,85h-17c-3,0-5.5,2.5-5.5,5.5v17.7c0,2.1,1.7,3.8,3.8,3.8h2.2v12.3c0,2,1.7,3.7,3.7,3.7h8.6c2.1,0,3.7-1.7,3.7-3.7v-12.9h2.1c2.2-.1,3.9-1.8,3.9-4v-16.8c0-3-2.5-5.5-5.5-5.5ZM106,107.3s0,0,0,0h-1.9v-2.3c0-1.1-.9-2-2-2s-2,.9-2,2v19h-8v-19c0-1.1-.9-2-2-2s-2,.9-2,2v3h-2v-17.5c0-.8.7-1.5,1.5-1.5h17c.8,0,1.5.7,1.5,1.5v16.8Z"/>
  <path class="st0" d="M84.7,127.5s0,0,0,0c-.3-.7-.6-1.5-.7-2.3h0c0-.3,0-.6,0-.9v-1.8c-4.4-2.6-9.3-6.2-10.2-11.3-.9-4.7,1.3-9.1,4.2-12.8v-7.8c0-5.3,4.3-9.5,9.5-9.5h0c-3.9-4.7-3.2-11.6,1.5-15.5,2-1.6,4.5-2.5,7-2.5.3,0,.6,0,.9,0-3.2-7.9-12.9-12-16.6-13.5-2.8-1.2-5.4-2.5-6.4-5-.8-2.2.4-4.6,1.6-6,3-3.3,6.3-6.5,4.4-11.4-1.1-3-4.7-5.4-8-6.5v-5.8s10.8-4.9,10.8-4.9c1-.5,1.4-1.7,1-2.7-.2-.4-.5-.7-.9-.9L70.9.2c-.6-.3-1.4-.3-2,0-.6.4-1,1-.9,1.7v18h-2.5c-2.7,0-3,5.2-.2,5.4,1.4,0,2.5,1.1,2.6,2.5,0,4-6.2,6.3-9.2,7.5-4.2,1.7-10,4.1-11.7,8.3-4.1,10.6,15.1,11.1,14.5,20.7-.3,4.7-4,10.2-10.7,15.9-7.6,6.5-16,12-23.7,18.4-6.5,5.3-11.7,14-7.5,22.2.5.9,1.1,1.8,1.8,2.6l3.6,4.4h60c0-.1-.1-.3-.2-.4h0ZM77.6,62.2c.9-.6,2.2-.3,2.8.6.2.3.4.7.6,1,.5,1,.1,2.2-.9,2.7,0,0,0,0,0,0-1,.5-2.2,0-2.7-.9-.1-.2-.3-.5-.4-.7-.6-.9-.3-2.2.6-2.8ZM76.6,72.2c.2-.2.3-.5.4-.8.5-1,1.7-1.3,2.7-.8,1,.5,1.3,1.7.8,2.7-.2.3-.4.7-.6,1-.6.9-1.8,1.2-2.8.6-.9-.6-1.2-1.8-.6-2.8ZM72,5.3l5.4,2.7-5.4,2.4v-5.2ZM45.7,105c.2-.3.3-.7.5-1,.5-1,1.7-1.4,2.7-.8,1,.5,1.4,1.7.8,2.7h0c-.1.3-.3.5-.4.8-.5,1-1.7,1.4-2.7,1-1-.5-1.4-1.7-1-2.7h0ZM46.7,116.5c-1.1.2-2.1-.5-2.4-1.5,0-.4-.2-.8-.2-1.2-.1-1.1.6-2.1,1.7-2.2,1.1-.1,2.1.6,2.2,1.7,0,0,0,0,0,0,0,.3,0,.5.2.8.2,1.1-.4,2.1-1.5,2.4,0,0,0,0,0,0ZM51.8,124c-.9.6-2.1.5-2.8-.4l-.6-.8c-.6-.9-.4-2.1.5-2.8.9-.6,2.1-.4,2.8.4l.6.8c.7.9.5,2.1-.4,2.8ZM54.7,99.1c-.2.2-.4.5-.6.7-.7.8-2,.9-2.8.2s-.9-2-.2-2.8h0c.2-.3.5-.5.7-.8.7-.8,2-.9,2.8-.1s.9,2,.1,2.8c0,0,0,0,0,0ZM61.1,92.9l-.7.7c-.8.7-2.1.7-2.8-.1-.7-.8-.7-2.1.1-2.8,0,0,0,0,0,0l.8-.7c.8-.7,2.1-.7,2.8.2s.7,2.1-.2,2.8ZM61.7,46.9c-1.1-.3-1.7-1.3-1.5-2.4.1-.4.2-.8.4-1.2.4-1,1.6-1.5,2.6-1.1,1,.4,1.5,1.6,1.1,2.6,0,.2-.2.4-.2.7-.3,1.1-1.3,1.7-2.4,1.5ZM64,50.4c.7-.9,2-1,2.8-.3l.8.6c.9.7,1,1.9.3,2.8-.7.8-1.9,1-2.8.3l-.8-.6c-.9-.7-1-2-.3-2.8ZM67.8,87l-.8.7c-.8.7-2.1.6-2.8-.2-.7-.8-.7-2.1.2-2.8,0,0,0,0,0,0l.7-.7c.8-.7,2.1-.7,2.8.2.7.8.7,2.1-.2,2.8ZM70.8,56.3c.7-.9,2-1,2.8-.3,0,0,0,0,0,0l.8.6c.8.7,1,2,.3,2.8,0,0,0,0,0,0-.7.8-2,.9-2.8.3l-.8-.6c-.9-.7-1-2-.3-2.8ZM70.9,81.4c-.8-.8-.7-2.1,0-2.8h0s.7-.7.7-.7c.8-.8,2-.7,2.8,0,0,0,0,0,0,0,.8.8.7,2.1,0,2.8l-.7.7c-.8.8-2.1.7-2.8,0Z"/>
</svg>